0
SECTION
2
HEADER
999
*** POWERPCB  HEADER ***
9
$EXTMIN
10
-0.05
20
-0.05
9
$EXTMAX
10
25.05
20
50.05
9
$FILLMODE
70
0
9
$GRIDMODE
70
1
9
$GRIDUNIT
10
0.2
20
0.2
9
$INSBASE
10
-444.15
20
-461.4
9
$LIMCHECK
70
0
9
$PLINEWID
40
0.01
9
$SNAPMODE
70
1
9
$SNAPUNIT
10
0.1
20
0.1
9
$TEXTSIZE
40
2.54
9
$TEXTSTYLE
7
W0$254
9
$USERI1
70
101
9
$USERI2
70
0
9
$USERI5
70
150
9
$VIEWCTR
10
297.8304473333
20
-10.850572
0
ENDSEC
0
SECTION
2
TABLES
999
*** POWERPCB  LAYER ***
0
TABLE
2
LAYER
70
4
0
LAYER
2
DBLAYERS
70
1
62
-254
6
CONTINUOUS
0
LAYER
2
BOARD_OUTLINE_00
70
0
62
254
6
CONTINUOUS
0
LAYER
2
BOARD_CUTOUT_00
70
0
62
254
6
CONTINUOUS
0
LAYER
2
PCB_PARAMS
70
1
62
-254
6
CONTINUOUS
0
ENDTAB
999
*** POWERPCB  TEXT STYLE ***
0
TABLE
2
STYLE
70
1
0
STYLE
2
W0$254
70
64
40
0
41
0.75
42
0
50
0
71
0
3
simplex
0
ENDTAB
0
ENDSEC
0
SECTION
2
BLOCKS
999
*** POWERPCB  DBLAYER ***
0
BLOCK
2
DBLAYERS
8
0
10
0
20
0
3
DBLAYERS
70
64
0
TEXT
8
DBLAYERS
10
0
20
-3.048
40
1.778
1
__It__Is__Job__Name__:=PCB1.pcb
999
 *  1.Number             2.Type                  3.RouteColor
999
 *  4.ViaColor           5.PadColor              6.CopperColor
999
 *  7.2DLineColor        8.TextColor             9.ErrorColor
999
 * 10.TopComponentColor 11.BottomComponentColor 12.RoutingDirection
999
 * 13.LayerThickness    14.CopperThickness      15.Dielectric
999
 * 16.IsRouteable       17.IsVisible            18.IsSelectable
999
 * 19.IsPrepreg         20.AssSilkScreen        21.AssPasteMask
999
 * 22.AssSolderMask     23.AssAssembly
0
TEXT
8
DBLAYERS
10
0
20
-6.096
40
1.778
1
Bottom:=4 1 12 8 12 28 13 12 15 0 27 1 0 51435 3.2999999523 1 1 1 0 29 22 28 30 0 0 1 27 0 12 20 
0
ENDBLK
999
*** POWERPCB  BOARD ***
0
BLOCK
2
BOARD_1
8
0
10
0
20
0
3
BOARD_1
70
64
0
POLYLINE
8
BOARD_OUTLINE_00
66
1
40
0.1
41
0.1
70
1
0
VERTEX
8
BOARD_OUTLINE_00
10
0.35
20
7.7
0
VERTEX
8
BOARD_OUTLINE_00
10
25.35
20
7.7
0
VERTEX
8
BOARD_OUTLINE_00
10
25.35
20
-42.3
0
VERTEX
8
BOARD_OUTLINE_00
10
0.35
20
-42.3
0
SEQEND
0
INSERT
2
SMOOTH_0$1
8
BOARD_OUTLINE_00
10
0.35
20
7.7
0
INSERT
2
SMOOTH_0$1
8
BOARD_OUTLINE_00
10
25.35
20
7.7
0
INSERT
2
SMOOTH_0$1
8
BOARD_OUTLINE_00
10
25.35
20
-42.3
0
INSERT
2
SMOOTH_0$1
8
BOARD_OUTLINE_00
10
0.35
20
-42.3
0
POLYLINE
8
BOARD_CUTOUT_00
66
1
40
0.1
41
0.1
70
1
0
VERTEX
8
BOARD_CUTOUT_00
10
5.98
20
5.9
0
VERTEX
8
BOARD_CUTOUT_00
10
8.63
20
5.9
0
VERTEX
8
BOARD_CUTOUT_00
10
8.63
20
3.5
0
VERTEX
8
BOARD_CUTOUT_00
10
5.98
20
3.5
0
SEQEND
0
INSERT
2
SMOOTH_0$1
8
BOARD_CUTOUT_00
10
5.98
20
5.9
0
INSERT
2
SMOOTH_0$1
8
BOARD_CUTOUT_00
10
8.63
20
5.9
0
INSERT
2
SMOOTH_0$1
8
BOARD_CUTOUT_00
10
8.63
20
3.5
0
INSERT
2
SMOOTH_0$1
8
BOARD_CUTOUT_00
10
5.98
20
3.5
0
POLYLINE
8
BOARD_CUTOUT_00
66
1
40
0.1
41
0.1
70
1
0
VERTEX
8
BOARD_CUTOUT_00
10
22
20
5.9
0
VERTEX
8
BOARD_CUTOUT_00
10
24.65
20
5.9
0
VERTEX
8
BOARD_CUTOUT_00
10
24.65
20
3.5
0
VERTEX
8
BOARD_CUTOUT_00
10
22
20
3.5
0
SEQEND
0
INSERT
2
SMOOTH_0$1
8
BOARD_CUTOUT_00
10
22
20
5.9
0
INSERT
2
SMOOTH_0$1
8
BOARD_CUTOUT_00
10
24.65
20
5.9
0
INSERT
2
SMOOTH_0$1
8
BOARD_CUTOUT_00
10
24.65
20
3.5
0
INSERT
2
SMOOTH_0$1
8
BOARD_CUTOUT_00
10
22
20
3.5
0
ENDBLK
999
*** POWERPCB  2DLINE ***
999
*** POWERPCB  COMPONENT ***
999
*** POWERPCB  PCB PARAMETER ***
0
BLOCK
2
PCB_PARAMS
8
0
10
0
20
0
3
PCB_PARAMS
70
64
999
 *  1.Job name           2.Backupfile name       3.CursorType
999
 *  4.TearDropFlag       5.HighlighNetsFlag      6.HatchDisplayFlag
999
 *  7.PadsFlag           8.TracksFlag            9.ViasFlag
999
 * 10.CopperFlag        11.LinesFlag            12.TextFlag
999
 * 13.TopComponentFlag  14.BottomComponentFlag  16.ObjectSnapFlags
0
TEXT
8
PCB_PARAMS
10
0
20
-3.048
40
1.778
1
A:=PCB1.pcb <> 3 1 1 1 1 1 1 1 1 1 1 1 0 510 0
999
 *  1.RefDesHeight       2.RefDesWidth           3.DefaultWidth
999
 *  4.VGX                5.VGY                   6.OVR
999
 *  7.HatchGrid          8.ObjectSnapRadius
0
TEXT
8
PCB_PARAMS
10
0
20
-6.096
40
1.778
1
B:=2.54 0.254 1 0.1 0.1 0 0.1 0.01
999
 *  1.ScaleFactor        2.NetAttributeFlags     3.BackupInterval
999
 *  4.WorkingLevel       5.HatchMode             6.HatchDirection
999
 *  7.ConnectionColor    8.BackgroundColor       9.ForegroundColor
999
 * 10.BoardOutlineColor
0
TEXT
8
PCB_PARAMS
10
0
20
-9.144
40
1.778
1
C:=1.2590274811 10002 20 1 0 0 15 0 8 8
999
 * MitreAngle0 - MitreAngle6
0
TEXT
8
PCB_PARAMS
10
0
20
-12.192
40
1.778
1
D:=324000000 324000000 324000000 324000000 324000000 324000000 324000000
999
 * Hatch & Keepout Parameters
0
TEXT
8
PCB_PARAMS
10
0
20
-15.24
40
1.778
1
E:=0.5 0 0 2.54 2 1
999
 * Fanout Parameters
0
TEXT
8
PCB_PARAMS
10
0
20
-18.288
40
1.778
1
F:=0.635 0.635 6.35 1 2 0 1 1 0 0 1 1 1 1
999
 * Pad Entry Parameters
0
TEXT
8
PCB_PARAMS
10
0
20
-21.336
40
1.778
1
P:= 1 1 1 1
999
 * DFF Parameters
0
TEXT
8
PCB_PARAMS
10
0
20
-24.384
40
1.778
1
Q:=89.9999 3967 114300 114300 114300 5 4 114300 114300 114300 114300 1 114300 1 114300 1 114300 0
0
ENDBLK
999
*** POWERPCB  SMOOTH CIRCLE ***
0
BLOCK
2
SMOOTH_0$1
8
0
10
0
20
0
3
SMOOTH_0$1
70
64
0
POLYLINE
8
0
66
1
40
0.05
41
0.05
70
1
0
VERTEX
8
0
10
-0.025
20
0
42
1
0
VERTEX
8
0
10
0.025
20
0
42
1
0
SEQEND
0
ENDBLK
0
ENDSEC
0
SECTION
2
ENTITIES
999
*** POWERPCB  DBLAYER ***
0
INSERT
2
DBLAYERS
8
0
10
0
20
0
999
*** POWERPCB  BOARD ***
0
INSERT
2
BOARD_1
8
0
10
-0.35
20
42.3
999
*** POWERPCB  2DLINE ***
999
*** POWERPCB  COMPONENT ***
999
*** POWERPCB  PCB PARAMETER ***
0
INSERT
2
PCB_PARAMS
8
0
10
0
20
0
0
ENDSEC
0
EOF
