0
SECTION
2
HEADER
999
*** POWERPCB  HEADER ***
9
$EXTMIN
10
-1.2
20
-0.057
9
$EXTMAX
10
26.2
20
50.05
9
$FILLMODE
70
0
9
$GRIDMODE
70
1
9
$GRIDUNIT
10
0.2
20
0.2
9
$INSBASE
10
-444.15
20
-461.4
9
$LIMCHECK
70
0
9
$PLINEWID
40
0.01
9
$SNAPMODE
70
1
9
$SNAPUNIT
10
0.1
20
0.1
9
$TEXTSIZE
40
2.54
9
$TEXTSTYLE
7
W0$254
9
$USERI1
70
101
9
$USERI2
70
0
9
$USERI5
70
150
9
$VIEWCTR
10
297.8304473333
20
-10.850572
0
ENDSEC
0
SECTION
2
TABLES
999
*** POWERPCB  LAYER ***
0
TABLE
2
LAYER
70
32
0
LAYER
2
DBLAYERS
70
1
62
-254
6
CONTINUOUS
0
LAYER
2
BOARD_OUTLINE_00
70
0
62
254
6
CONTINUOUS
0
LAYER
2
BOARD_CUTOUT_00
70
0
62
254
6
CONTINUOUS
0
LAYER
2
LABEL_INFO
70
1
62
-254
6
CONTINUOUS
0
LAYER
2
LABEL_ATTRIBUTE
70
1
62
-254
6
CONTINUOUS
0
LAYER
2
PART_NAME_01
70
0
62
254
6
CONTINUOUS
0
LAYER
2
PART_TYPE_01
70
1
62
-250
6
CONTINUOUS
0
LAYER
2
PART_INFO
70
1
62
-254
6
CONTINUOUS
0
LAYER
2
PART_PTS
70
1
62
-254
6
CONTINUOUS
0
LAYER
2
PART_TYPE_TOP
70
1
62
-250
6
CONTINUOUS
0
LAYER
2
SYM_NAME
70
1
62
-254
6
CONTINUOUS
0
LAYER
2
SYM_PART_NAME_01
70
1
62
-254
6
CONTINUOUS
0
LAYER
2
SYM_PART_TYPE_01
70
1
62
-254
6
CONTINUOUS
0
LAYER
2
SYM_TERMINAL
70
1
62
-254
6
CONTINUOUS
0
LAYER
2
PKG_INFO
70
1
62
-254
6
CONTINUOUS
0
LAYER
2
PART_TOP_2DLINE_01
70
0
62
254
6
CONTINUOUS
0
LAYER
2
DRIL_PLTE_THRU_01
70
0
62
176
6
CONTINUOUS
0
LAYER
2
DRIL_PLTE_THRU_02
70
0
62
136
6
CONTINUOUS
0
LAYER
2
DRIL_PLTE_THRU_03
70
0
62
56
6
CONTINUOUS
0
LAYER
2
DRIL_PLTE_THRU_04
70
0
62
16
6
CONTINUOUS
0
LAYER
2
PADS_INNER
70
0
62
5
6
CONTINUOUS
0
LAYER
2
PADS_BOT
70
0
62
1
6
CONTINUOUS
0
LAYER
2
PADS_TOP
70
0
62
5
6
CONTINUOUS
0
LAYER
2
PART_TOP_2DLINE_20
70
1
62
-6
6
CONTINUOUS
0
LAYER
2
PART_TOP_COPPER_26
70
0
62
254
6
CONTINUOUS
0
LAYER
2
PART_TOP_2DLINE_26
70
0
62
254
6
CONTINUOUS
0
LAYER
2
DRIL_NPLTE_THRU_01
70
0
62
176
6
CONTINUOUS
0
LAYER
2
DRIL_NPLTE_THRU_02
70
0
62
136
6
CONTINUOUS
0
LAYER
2
DRIL_NPLTE_THRU_03
70
0
62
56
6
CONTINUOUS
0
LAYER
2
DRIL_NPLTE_THRU_04
70
0
62
16
6
CONTINUOUS
0
LAYER
2
PCB_PARAMS
70
1
62
-254
6
CONTINUOUS
0
LAYER
2
DRIL_SYMBOL
70
0
62
254
6
CONTINUOUS
0
ENDTAB
999
*** POWERPCB  TEXT STYLE ***
0
TABLE
2
STYLE
70
6
0
STYLE
2
W0$1
70
64
40
0
41
0.75
42
0
50
0
71
0
3
simplex
0
STYLE
2
W0$127
70
64
40
0
41
0.75
42
0
50
0
71
0
3
simplex
0
STYLE
2
W0$1R0
70
64
40
0
41
0.75
42
0
50
0
71
0
3
simplex
0
STYLE
2
W0$127R0
70
64
40
0
41
0.75
42
0
50
0
71
0
3
simplex
0
STYLE
2
W0$0381R0
70
64
40
0
41
0.75
42
0
50
0
71
0
3
simplex
0
STYLE
2
W0$254
70
64
40
0
41
0.75
42
0
50
0
71
0
3
simplex
0
ENDTAB
0
ENDSEC
0
SECTION
2
BLOCKS
999
*** POWERPCB  DBLAYER ***
0
BLOCK
2
DBLAYERS
8
0
10
0
20
0
3
DBLAYERS
70
64
0
TEXT
8
DBLAYERS
10
0
20
-3.048
40
1.778
1
__It__Is__Job__Name__:=PCB1.pcb
999
 *  1.Number             2.Type                  3.RouteColor
999
 *  4.ViaColor           5.PadColor              6.CopperColor
999
 *  7.2DLineColor        8.TextColor             9.ErrorColor
999
 * 10.TopComponentColor 11.BottomComponentColor 12.RoutingDirection
999
 * 13.LayerThickness    14.CopperThickness      15.Dielectric
999
 * 16.IsRouteable       17.IsVisible            18.IsSelectable
999
 * 19.IsPrepreg         20.AssSilkScreen        21.AssPasteMask
999
 * 22.AssSolderMask     23.AssAssembly
0
TEXT
8
DBLAYERS
10
0
20
-6.096
40
1.778
1
Top:=1 1 9 8 9 25 14 9 15 8 0 0 381000 51435 4.3000001907 1 1 1 0 26 23 21 27 0 0 1 8 0 9 27 
0
ENDBLK
999
*** POWERPCB  BOARD ***
0
BLOCK
2
BOARD_1
8
0
10
0
20
0
3
BOARD_1
70
64
0
POLYLINE
8
BOARD_OUTLINE_00
66
1
40
0.1
41
0.1
70
1
0
VERTEX
8
BOARD_OUTLINE_00
10
0.35
20
7.7
0
VERTEX
8
BOARD_OUTLINE_00
10
25.35
20
7.7
0
VERTEX
8
BOARD_OUTLINE_00
10
25.35
20
-42.3
0
VERTEX
8
BOARD_OUTLINE_00
10
0.35
20
-42.3
0
SEQEND
0
INSERT
2
SMOOTH_0$1
8
BOARD_OUTLINE_00
10
0.35
20
7.7
0
INSERT
2
SMOOTH_0$1
8
BOARD_OUTLINE_00
10
25.35
20
7.7
0
INSERT
2
SMOOTH_0$1
8
BOARD_OUTLINE_00
10
25.35
20
-42.3
0
INSERT
2
SMOOTH_0$1
8
BOARD_OUTLINE_00
10
0.35
20
-42.3
0
POLYLINE
8
BOARD_CUTOUT_00
66
1
40
0.1
41
0.1
70
1
0
VERTEX
8
BOARD_CUTOUT_00
10
5.98
20
5.9
0
VERTEX
8
BOARD_CUTOUT_00
10
8.63
20
5.9
0
VERTEX
8
BOARD_CUTOUT_00
10
8.63
20
3.5
0
VERTEX
8
BOARD_CUTOUT_00
10
5.98
20
3.5
0
SEQEND
0
INSERT
2
SMOOTH_0$1
8
BOARD_CUTOUT_00
10
5.98
20
5.9
0
INSERT
2
SMOOTH_0$1
8
BOARD_CUTOUT_00
10
8.63
20
5.9
0
INSERT
2
SMOOTH_0$1
8
BOARD_CUTOUT_00
10
8.63
20
3.5
0
INSERT
2
SMOOTH_0$1
8
BOARD_CUTOUT_00
10
5.98
20
3.5
0
POLYLINE
8
BOARD_CUTOUT_00
66
1
40
0.1
41
0.1
70
1
0
VERTEX
8
BOARD_CUTOUT_00
10
22
20
5.9
0
VERTEX
8
BOARD_CUTOUT_00
10
24.65
20
5.9
0
VERTEX
8
BOARD_CUTOUT_00
10
24.65
20
3.5
0
VERTEX
8
BOARD_CUTOUT_00
10
22
20
3.5
0
SEQEND
0
INSERT
2
SMOOTH_0$1
8
BOARD_CUTOUT_00
10
22
20
5.9
0
INSERT
2
SMOOTH_0$1
8
BOARD_CUTOUT_00
10
24.65
20
5.9
0
INSERT
2
SMOOTH_0$1
8
BOARD_CUTOUT_00
10
24.65
20
3.5
0
INSERT
2
SMOOTH_0$1
8
BOARD_CUTOUT_00
10
22
20
3.5
0
ENDBLK
999
*** POWERPCB  2DLINE ***
999
*** POWERPCB  COMPONENT ***
0
BLOCK
2
PART_TOP_0
8
0
10
0
20
0
3
PART_TOP_0
70
64
0
INSERT
2
SYM_TOP_2
8
0
10
0
20
0
0
INSERT
2
PKG_0
8
0
10
0
20
0
0
TEXT
8
LABEL_INFO
10
1.6
20
-0.3999993333
40
0.56
1
0 162000000 0 0 0 1
50
90
41
0.75
7
W0$1
0
TEXT
8
LABEL_ATTRIBUTE
10
1.6
20
-0.3999993333
40
0.56
1
Ref.Des.
50
90
41
0.75
7
W0$1
0
TEXT
8
PART_NAME_01
10
1.6
20
-0.3999993333
40
0.56
1
C10
50
90
41
0.75
7
W0$1
0
TEXT
8
LABEL_INFO
10
-1.124
20
1.652
40
0.7
1
0 0 0 0 0 1
41
0.75
7
W0$1
0
TEXT
8
LABEL_ATTRIBUTE
10
-1.124
20
1.652
40
0.7
1
PartType
41
0.75
7
W0$1
0
TEXT
8
PART_TYPE_01
10
-1.124
20
1.652
40
0.7
1
C_0201
41
0.75
7
W0$1
0
TEXT
8
PART_INFO
10
-1.124
20
0.652
40
0.7
1
000000
41
0.75
7
W0$1
0
TEXT
8
PART_PTS
10
-1.124
20
-0.348
40
0.7
1
1 2 
41
0.75
7
W0$1
0
ENDBLK
0
BLOCK
2
PART_TOP_1
8
0
10
0
20
0
3
PART_TOP_1
70
64
0
INSERT
2
SYM_TOP_2
8
0
10
0
20
0
0
INSERT
2
PKG_0
8
0
10
0
20
0
0
TEXT
8
LABEL_INFO
10
-0.8
20
-0.4
40
0.56
1
0 162000000 0 0 0 1
50
90
41
0.75
7
W0$1
0
TEXT
8
LABEL_ATTRIBUTE
10
-0.8
20
-0.4
40
0.56
1
Ref.Des.
50
90
41
0.75
7
W0$1
0
TEXT
8
PART_NAME_01
10
-0.8
20
-0.4
40
0.56
1
C11
50
90
41
0.75
7
W0$1
0
TEXT
8
LABEL_INFO
10
-1.124
20
1.652
40
0.7
1
0 0 0 0 0 1
41
0.75
7
W0$1
0
TEXT
8
LABEL_ATTRIBUTE
10
-1.124
20
1.652
40
0.7
1
PartType
41
0.75
7
W0$1
0
TEXT
8
PART_TYPE_01
10
-1.124
20
1.652
40
0.7
1
C_0201
41
0.75
7
W0$1
0
TEXT
8
PART_INFO
10
-1.124
20
0.652
40
0.7
1
000000
41
0.75
7
W0$1
0
TEXT
8
PART_PTS
10
-1.124
20
-0.348
40
0.7
1
1 2 
41
0.75
7
W0$1
0
ENDBLK
0
BLOCK
2
PART_TOP_2
8
0
10
0
20
0
3
PART_TOP_2
70
64
0
INSERT
2
SYM_TOP_2
8
0
10
0
20
0
0
INSERT
2
PKG_0
8
0
10
0
20
0
0
TEXT
8
LABEL_INFO
10
0.8
20
-0.2
40
0.56
1
0 0 0 0 0 1
41
0.75
7
W0$1
0
TEXT
8
LABEL_ATTRIBUTE
10
0.8
20
-0.2
40
0.56
1
Ref.Des.
41
0.75
7
W0$1
0
TEXT
8
PART_NAME_01
10
0.8
20
-0.2
40
0.56
1
C12
41
0.75
7
W0$1
0
TEXT
8
LABEL_INFO
10
-1.124
20
1.652
40
0.7
1
0 0 0 0 0 1
41
0.75
7
W0$1
0
TEXT
8
LABEL_ATTRIBUTE
10
-1.124
20
1.652
40
0.7
1
PartType
41
0.75
7
W0$1
0
TEXT
8
PART_TYPE_01
10
-1.124
20
1.652
40
0.7
1
C_0201
41
0.75
7
W0$1
0
TEXT
8
PART_INFO
10
-1.124
20
0.652
40
0.7
1
000000
41
0.75
7
W0$1
0
TEXT
8
PART_PTS
10
-1.124
20
-0.348
40
0.7
1
1 2 
41
0.75
7
W0$1
0
ENDBLK
0
BLOCK
2
PART_TOP_3
8
0
10
0
20
0
3
PART_TOP_3
70
64
0
INSERT
2
SYM_TOP_2
8
0
10
0
20
0
0
INSERT
2
PKG_0
8
0
10
0
20
0
0
TEXT
8
LABEL_INFO
10
-0.1999993333
20
-0.4
40
0.56
1
0 486000000 0 0 0 1
50
270
41
0.75
7
W0$1
0
TEXT
8
LABEL_ATTRIBUTE
10
-0.1999993333
20
-0.4
40
0.56
1
Ref.Des.
50
270
41
0.75
7
W0$1
0
TEXT
8
PART_NAME_01
10
-0.1999993333
20
-0.4
40
0.56
1
C13
50
270
41
0.75
7
W0$1
0
TEXT
8
LABEL_INFO
10
-1.124
20
1.652
40
0.7
1
0 0 0 0 0 1
41
0.75
7
W0$1
0
TEXT
8
LABEL_ATTRIBUTE
10
-1.124
20
1.652
40
0.7
1
PartType
41
0.75
7
W0$1
0
TEXT
8
PART_TYPE_01
10
-1.124
20
1.652
40
0.7
1
C_0201
41
0.75
7
W0$1
0
TEXT
8
PART_INFO
10
-1.124
20
0.652
40
0.7
1
000000
41
0.75
7
W0$1
0
TEXT
8
PART_PTS
10
-1.124
20
-0.348
40
0.7
1
1 2 
41
0.75
7
W0$1
0
ENDBLK
0
BLOCK
2
PART_TOP_4
8
0
10
0
20
0
3
PART_TOP_4
70
64
0
INSERT
2
SYM_TOP_3
8
0
10
0
20
0
0
INSERT
2
PKG_1
8
0
10
0
20
0
0
TEXT
8
LABEL_INFO
10
-1.124
20
1.652
40
0.7
1
0 0 0 0 0 1
41
0.75
7
W0$1
0
TEXT
8
LABEL_ATTRIBUTE
10
-1.124
20
1.652
40
0.7
1
PartType
41
0.75
7
W0$1
0
TEXT
8
PART_TYPE_01
10
-1.124
20
1.652
40
0.7
1
C_1005
41
0.75
7
W0$1
0
TEXT
8
LABEL_INFO
10
-2.1
20
-0.2
40
0.56
1
0 0 0 0 0 1
41
0.75
7
W0$1
0
TEXT
8
LABEL_ATTRIBUTE
10
-2.1
20
-0.2
40
0.56
1
Ref.Des.
41
0.75
7
W0$1
0
TEXT
8
PART_NAME_01
10
-2.1
20
-0.2
40
0.56
1
C14
41
0.75
7
W0$1
0
TEXT
8
PART_INFO
10
-2.1
20
-1
40
0.56
1
000000
41
0.75
7
W0$1
0
TEXT
8
PART_PTS
10
-2.1
20
-1.8
40
0.56
1
1 2 
41
0.75
7
W0$1
0
ENDBLK
0
BLOCK
2
PART_TOP_5
8
0
10
0
20
0
3
PART_TOP_5
70
64
0
INSERT
2
SYM_TOP_3
8
0
10
0
20
0
0
INSERT
2
PKG_1
8
0
10
0
20
0
0
TEXT
8
LABEL_INFO
10
-1.124
20
1.652
40
0.7
1
0 0 0 0 0 1
41
0.75
7
W0$1
0
TEXT
8
LABEL_ATTRIBUTE
10
-1.124
20
1.652
40
0.7
1
PartType
41
0.75
7
W0$1
0
TEXT
8
PART_TYPE_01
10
-1.124
20
1.652
40
0.7
1
C_1005
41
0.75
7
W0$1
0
TEXT
8
LABEL_INFO
10
-2.06
20
-0.04
40
0.56
1
0 0 0 0 0 1
41
0.75
7
W0$1
0
TEXT
8
LABEL_ATTRIBUTE
10
-2.06
20
-0.04
40
0.56
1
Ref.Des.
41
0.75
7
W0$1
0
TEXT
8
PART_NAME_01
10
-2.06
20
-0.04
40
0.56
1
C15
41
0.75
7
W0$1
0
TEXT
8
PART_INFO
10
-2.06
20
-0.84
40
0.56
1
000000
41
0.75
7
W0$1
0
TEXT
8
PART_PTS
10
-2.06
20
-1.64
40
0.56
1
1 2 
41
0.75
7
W0$1
0
ENDBLK
0
BLOCK
2
PART_TOP_6
8
0
10
0
20
0
3
PART_TOP_6
70
64
0
INSERT
2
SYM_TOP_2
8
0
10
0
20
0
0
INSERT
2
PKG_0
8
0
10
0
20
0
0
TEXT
8
LABEL_INFO
10
-1.36
20
-0.84
40
0.56
1
0 0 0 0 0 1
41
0.75
7
W0$1
0
TEXT
8
LABEL_ATTRIBUTE
10
-1.36
20
-0.84
40
0.56
1
Ref.Des.
41
0.75
7
W0$1
0
TEXT
8
PART_NAME_01
10
-1.36
20
-0.84
40
0.56
1
C16
41
0.75
7
W0$1
0
TEXT
8
LABEL_INFO
10
-1.124
20
1.652
40
0.7
1
0 0 0 0 0 1
41
0.75
7
W0$1
0
TEXT
8
LABEL_ATTRIBUTE
10
-1.124
20
1.652
40
0.7
1
PartType
41
0.75
7
W0$1
0
TEXT
8
PART_TYPE_01
10
-1.124
20
1.652
40
0.7
1
C_0201
41
0.75
7
W0$1
0
TEXT
8
PART_INFO
10
-1.124
20
0.652
40
0.7
1
000000
41
0.75
7
W0$1
0
TEXT
8
PART_PTS
10
-1.124
20
-0.348
40
0.7
1
1 2 
41
0.75
7
W0$1
0
ENDBLK
0
BLOCK
2
PART_TOP_7
8
0
10
0
20
0
3
PART_TOP_7
70
64
0
INSERT
2
SYM_TOP_3
8
0
10
0
20
0
0
INSERT
2
PKG_1
8
0
10
0
20
0
0
TEXT
8
LABEL_INFO
10
-1.124
20
1.652
40
0.7
1
0 0 0 0 0 1
41
0.75
7
W0$1
0
TEXT
8
LABEL_ATTRIBUTE
10
-1.124
20
1.652
40
0.7
1
PartType
41
0.75
7
W0$1
0
TEXT
8
PART_TYPE_01
10
-1.124
20
1.652
40
0.7
1
C_1005
41
0.75
7
W0$1
0
TEXT
8
LABEL_INFO
10
-1.1
20
0.2999993333
40
0.56
1
0 324000000 0 0 0 1
50
180
41
0.75
7
W0$1
0
TEXT
8
LABEL_ATTRIBUTE
10
-1.1
20
0.2999993333
40
0.56
1
Ref.Des.
50
180
41
0.75
7
W0$1
0
TEXT
8
PART_NAME_01
10
-1.1
20
0.2999993333
40
0.56
1
C17
50
180
41
0.75
7
W0$1
0
TEXT
8
PART_INFO
10
-1.1
20
-0.5000006667
40
0.56
1
000000
50
180
41
0.75
7
W0$1
0
TEXT
8
PART_PTS
10
-1.1
20
-1.3000006667
40
0.56
1
1 2 
50
180
41
0.75
7
W0$1
0
ENDBLK
0
BLOCK
2
PART_TOP_8
8
0
10
0
20
0
3
PART_TOP_8
70
64
0
INSERT
2
SYM_TOP_3
8
0
10
0
20
0
0
INSERT
2
PKG_1
8
0
10
0
20
0
0
TEXT
8
LABEL_INFO
10
-1.124
20
1.652
40
0.7
1
0 0 0 0 0 1
41
0.75
7
W0$1
0
TEXT
8
LABEL_ATTRIBUTE
10
-1.124
20
1.652
40
0.7
1
PartType
41
0.75
7
W0$1
0
TEXT
8
PART_TYPE_01
10
-1.124
20
1.652
40
0.7
1
C_1005
41
0.75
7
W0$1
0
TEXT
8
LABEL_INFO
10
-1.1
20
0.2999993333
40
0.56
1
0 324000000 0 0 0 1
50
180
41
0.75
7
W0$1
0
TEXT
8
LABEL_ATTRIBUTE
10
-1.1
20
0.2999993333
40
0.56
1
Ref.Des.
50
180
41
0.75
7
W0$1
0
TEXT
8
PART_NAME_01
10
-1.1
20
0.2999993333
40
0.56
1
C18
50
180
41
0.75
7
W0$1
0
TEXT
8
PART_INFO
10
-1.1
20
-0.5000006667
40
0.56
1
000000
50
180
41
0.75
7
W0$1
0
TEXT
8
PART_PTS
10
-1.1
20
-1.3000006667
40
0.56
1
1 2 
50
180
41
0.75
7
W0$1
0
ENDBLK
0
BLOCK
2
PART_TOP_9
8
0
10
0
20
0
3
PART_TOP_9
70
64
0
INSERT
2
SYM_TOP_2
8
0
10
0
20
0
0
INSERT
2
PKG_0
8
0
10
0
20
0
0
TEXT
8
LABEL_INFO
10
-0.8
20
0.1999993333
40
0.56
1
0 324000000 0 0 0 1
50
180
41
0.75
7
W0$1
0
TEXT
8
LABEL_ATTRIBUTE
10
-0.8
20
0.1999993333
40
0.56
1
Ref.Des.
50
180
41
0.75
7
W0$1
0
TEXT
8
PART_NAME_01
10
-0.8
20
0.1999993333
40
0.56
1
C19
50
180
41
0.75
7
W0$1
0
TEXT
8
LABEL_INFO
10
-1.124
20
1.652
40
0.7
1
0 0 0 0 0 1
41
0.75
7
W0$1
0
TEXT
8
LABEL_ATTRIBUTE
10
-1.124
20
1.652
40
0.7
1
PartType
41
0.75
7
W0$1
0
TEXT
8
PART_TYPE_01
10
-1.124
20
1.652
40
0.7
1
C_0201
41
0.75
7
W0$1
0
TEXT
8
PART_INFO
10
-1.124
20
0.652
40
0.7
1
000000
41
0.75
7
W0$1
0
TEXT
8
PART_PTS
10
-1.124
20
-0.348
40
0.7
1
1 2 
41
0.75
7
W0$1
0
ENDBLK
0
BLOCK
2
PART_TOP_10
8
0
10
0
20
0
3
PART_TOP_10
70
64
0
INSERT
2
SYM_TOP_2
8
0
10
0
20
0
0
INSERT
2
PKG_0
8
0
10
0
20
0
0
TEXT
8
LABEL_INFO
10
-1.3
20
0.3999993333
40
0.56
1
0 486000000 0 0 0 1
50
270
41
0.75
7
W0$1
0
TEXT
8
LABEL_ATTRIBUTE
10
-1.3
20
0.3999993333
40
0.56
1
Ref.Des.
50
270
41
0.75
7
W0$1
0
TEXT
8
PART_NAME_01
10
-1.3
20
0.3999993333
40
0.56
1
C22
50
270
41
0.75
7
W0$1
0
TEXT
8
LABEL_INFO
10
-1.124
20
1.652
40
0.7
1
0 0 0 0 0 1
41
0.75
7
W0$1
0
TEXT
8
LABEL_ATTRIBUTE
10
-1.124
20
1.652
40
0.7
1
PartType
41
0.75
7
W0$1
0
TEXT
8
PART_TYPE_01
10
-1.124
20
1.652
40
0.7
1
C_0201
41
0.75
7
W0$1
0
TEXT
8
PART_INFO
10
-1.124
20
0.652
40
0.7
1
000000
41
0.75
7
W0$1
0
TEXT
8
PART_PTS
10
-1.124
20
-0.348
40
0.7
1
1 2 
41
0.75
7
W0$1
0
ENDBLK
0
BLOCK
2
PART_TOP_11
8
0
10
0
20
0
3
PART_TOP_11
70
64
0
INSERT
2
SYM_TOP_2
8
0
10
0
20
0
0
INSERT
2
PKG_0
8
0
10
0
20
0
0
TEXT
8
LABEL_INFO
10
-1.4
20
0.8999993333
40
0.56
1
0 486000000 0 0 0 1
50
270
41
0.75
7
W0$1
0
TEXT
8
LABEL_ATTRIBUTE
10
-1.4
20
0.8999993333
40
0.56
1
Ref.Des.
50
270
41
0.75
7
W0$1
0
TEXT
8
PART_NAME_01
10
-1.4
20
0.8999993333
40
0.56
1
C23
50
270
41
0.75
7
W0$1
0
TEXT
8
LABEL_INFO
10
-1.124
20
1.652
40
0.7
1
0 0 0 0 0 1
41
0.75
7
W0$1
0
TEXT
8
LABEL_ATTRIBUTE
10
-1.124
20
1.652
40
0.7
1
PartType
41
0.75
7
W0$1
0
TEXT
8
PART_TYPE_01
10
-1.124
20
1.652
40
0.7
1
C_0201
41
0.75
7
W0$1
0
TEXT
8
PART_INFO
10
-1.124
20
0.652
40
0.7
1
000000
41
0.75
7
W0$1
0
TEXT
8
PART_PTS
10
-1.124
20
-0.348
40
0.7
1
1 2 
41
0.75
7
W0$1
0
ENDBLK
0
BLOCK
2
PART_TOP_12
8
0
10
0
20
0
3
PART_TOP_12
70
64
0
INSERT
2
SYM_TOP_3
8
0
10
0
20
0
0
INSERT
2
PKG_1
8
0
10
0
20
0
0
TEXT
8
LABEL_INFO
10
-1.124
20
1.652
40
0.7
1
0 0 0 0 0 1
41
0.75
7
W0$1
0
TEXT
8
LABEL_ATTRIBUTE
10
-1.124
20
1.652
40
0.7
1
PartType
41
0.75
7
W0$1
0
TEXT
8
PART_TYPE_01
10
-1.124
20
1.652
40
0.7
1
C_1005
41
0.75
7
W0$1
0
TEXT
8
LABEL_INFO
10
1.04
20
0.36
40
0.56
1
0 0 0 0 0 1
41
0.75
7
W0$1
0
TEXT
8
LABEL_ATTRIBUTE
10
1.04
20
0.36
40
0.56
1
Ref.Des.
41
0.75
7
W0$1
0
TEXT
8
PART_NAME_01
10
1.04
20
0.36
40
0.56
1
C24
41
0.75
7
W0$1
0
TEXT
8
PART_INFO
10
1.04
20
-0.44
40
0.56
1
000000
41
0.75
7
W0$1
0
TEXT
8
PART_PTS
10
1.04
20
-1.24
40
0.56
1
1 2 
41
0.75
7
W0$1
0
ENDBLK
0
BLOCK
2
PART_TOP_13
8
0
10
0
20
0
3
PART_TOP_13
70
64
0
INSERT
2
SYM_TOP_3
8
0
10
0
20
0
0
INSERT
2
PKG_1
8
0
10
0
20
0
0
TEXT
8
LABEL_INFO
10
-1.124
20
1.652
40
0.7
1
0 0 0 0 0 1
41
0.75
7
W0$1
0
TEXT
8
LABEL_ATTRIBUTE
10
-1.124
20
1.652
40
0.7
1
PartType
41
0.75
7
W0$1
0
TEXT
8
PART_TYPE_01
10
-1.124
20
1.652
40
0.7
1
C_1005
41
0.75
7
W0$1
0
TEXT
8
LABEL_INFO
10
0.6
20
-1.1
40
0.56
1
0 0 0 0 0 1
41
0.75
7
W0$1
0
TEXT
8
LABEL_ATTRIBUTE
10
0.6
20
-1.1
40
0.56
1
Ref.Des.
41
0.75
7
W0$1
0
TEXT
8
PART_NAME_01
10
0.6
20
-1.1
40
0.56
1
C25
41
0.75
7
W0$1
0
TEXT
8
PART_INFO
10
0.6
20
-1.9
40
0.56
1
000000
41
0.75
7
W0$1
0
TEXT
8
PART_PTS
10
0.6
20
-2.7
40
0.56
1
1 2 
41
0.75
7
W0$1
0
ENDBLK
0
BLOCK
2
PART_TOP_14
8
0
10
0
20
0
3
PART_TOP_14
70
64
0
INSERT
2
SYM_TOP_2
8
0
10
0
20
0
0
INSERT
2
PKG_0
8
0
10
0
20
0
0
TEXT
8
LABEL_INFO
10
0.3
20
-1
40
0.56
1
0 0 0 0 0 1
41
0.75
7
W0$1
0
TEXT
8
LABEL_ATTRIBUTE
10
0.3
20
-1
40
0.56
1
Ref.Des.
41
0.75
7
W0$1
0
TEXT
8
PART_NAME_01
10
0.3
20
-1
40
0.56
1
C26
41
0.75
7
W0$1
0
TEXT
8
LABEL_INFO
10
-1.124
20
1.652
40
0.7
1
0 0 0 0 0 1
41
0.75
7
W0$1
0
TEXT
8
LABEL_ATTRIBUTE
10
-1.124
20
1.652
40
0.7
1
PartType
41
0.75
7
W0$1
0
TEXT
8
PART_TYPE_01
10
-1.124
20
1.652
40
0.7
1
C_0201
41
0.75
7
W0$1
0
TEXT
8
PART_INFO
10
-1.124
20
0.652
40
0.7
1
000000
41
0.75
7
W0$1
0
TEXT
8
PART_PTS
10
-1.124
20
-0.348
40
0.7
1
1 2 
41
0.75
7
W0$1
0
ENDBLK
0
BLOCK
2
PART_TOP_15
8
0
10
0
20
0
3
PART_TOP_15
70
64
0
INSERT
2
SYM_TOP_2
8
0
10
0
20
0
0
INSERT
2
PKG_0
8
0
10
0
20
0
0
TEXT
8
LABEL_INFO
10
-0.6
20
-1
40
0.56
1
0 0 0 0 0 1
41
0.75
7
W0$1
0
TEXT
8
LABEL_ATTRIBUTE
10
-0.6
20
-1
40
0.56
1
Ref.Des.
41
0.75
7
W0$1
0
TEXT
8
PART_NAME_01
10
-0.6
20
-1
40
0.56
1
C27
41
0.75
7
W0$1
0
TEXT
8
LABEL_INFO
10
-1.124
20
1.652
40
0.7
1
0 0 0 0 0 1
41
0.75
7
W0$1
0
TEXT
8
LABEL_ATTRIBUTE
10
-1.124
20
1.652
40
0.7
1
PartType
41
0.75
7
W0$1
0
TEXT
8
PART_TYPE_01
10
-1.124
20
1.652
40
0.7
1
C_0201
41
0.75
7
W0$1
0
TEXT
8
PART_INFO
10
-1.124
20
0.652
40
0.7
1
000000
41
0.75
7
W0$1
0
TEXT
8
PART_PTS
10
-1.124
20
-0.348
40
0.7
1
1 2 
41
0.75
7
W0$1
0
ENDBLK
0
BLOCK
2
PART_TOP_16
8
0
10
0
20
0
3
PART_TOP_16
70
64
0
INSERT
2
SYM_TOP_3
8
0
10
0
20
0
0
INSERT
2
PKG_1
8
0
10
0
20
0
0
TEXT
8
LABEL_INFO
10
-1.124
20
1.652
40
0.7
1
0 0 0 0 0 1
41
0.75
7
W0$1
0
TEXT
8
LABEL_ATTRIBUTE
10
-1.124
20
1.652
40
0.7
1
PartType
41
0.75
7
W0$1
0
TEXT
8
PART_TYPE_01
10
-1.124
20
1.652
40
0.7
1
C_1005
41
0.75
7
W0$1
0
TEXT
8
LABEL_INFO
10
-1.1399993333
20
-0.59
40
0.56
1
0 162000000 0 0 0 1
50
90
41
0.75
7
W0$1
0
TEXT
8
LABEL_ATTRIBUTE
10
-1.1399993333
20
-0.59
40
0.56
1
Ref.Des.
50
90
41
0.75
7
W0$1
0
TEXT
8
PART_NAME_01
10
-1.1399993333
20
-0.59
40
0.56
1
C28
50
90
41
0.75
7
W0$1
0
TEXT
8
PART_INFO
10
-1.1399993333
20
-1.39
40
0.56
1
000000
50
90
41
0.75
7
W0$1
0
TEXT
8
PART_PTS
10
-1.1399993333
20
-2.19
40
0.56
1
1 2 
50
90
41
0.75
7
W0$1
0
ENDBLK
0
BLOCK
2
PART_TOP_17
8
0
10
0
20
0
3
PART_TOP_17
70
64
0
INSERT
2
SYM_TOP_2
8
0
10
0
20
0
0
INSERT
2
PKG_0
8
0
10
0
20
0
0
TEXT
8
LABEL_INFO
10
1.2
20
-0.2999993333
40
0.56
1
0 162000000 0 0 0 1
50
90
41
0.75
7
W0$1
0
TEXT
8
LABEL_ATTRIBUTE
10
1.2
20
-0.2999993333
40
0.56
1
Ref.Des.
50
90
41
0.75
7
W0$1
0
TEXT
8
PART_NAME_01
10
1.2
20
-0.2999993333
40
0.56
1
C3
50
90
41
0.75
7
W0$1
0
TEXT
8
LABEL_INFO
10
-1.124
20
1.652
40
0.7
1
0 0 0 0 0 1
41
0.75
7
W0$1
0
TEXT
8
LABEL_ATTRIBUTE
10
-1.124
20
1.652
40
0.7
1
PartType
41
0.75
7
W0$1
0
TEXT
8
PART_TYPE_01
10
-1.124
20
1.652
40
0.7
1
C_0201
41
0.75
7
W0$1
0
TEXT
8
PART_INFO
10
-1.124
20
0.652
40
0.7
1
000000
41
0.75
7
W0$1
0
TEXT
8
PART_PTS
10
-1.124
20
-0.348
40
0.7
1
1 2 
41
0.75
7
W0$1
0
ENDBLK
0
BLOCK
2
PART_TOP_18
8
0
10
0
20
0
3
PART_TOP_18
70
64
0
INSERT
2
SYM_TOP_2
8
0
10
0
20
0
0
INSERT
2
PKG_0
8
0
10
0
20
0
0
TEXT
8
LABEL_INFO
10
0.4
20
-0.4999993333
40
0.56
1
0 324000000 0 0 0 1
50
180
41
0.75
7
W0$1
0
TEXT
8
LABEL_ATTRIBUTE
10
0.4
20
-0.4999993333
40
0.56
1
Ref.Des.
50
180
41
0.75
7
W0$1
0
TEXT
8
PART_NAME_01
10
0.4
20
-0.4999993333
40
0.56
1
C6
50
180
41
0.75
7
W0$1
0
TEXT
8
LABEL_INFO
10
-1.124
20
1.652
40
0.7
1
0 0 0 0 0 1
41
0.75
7
W0$1
0
TEXT
8
LABEL_ATTRIBUTE
10
-1.124
20
1.652
40
0.7
1
PartType
41
0.75
7
W0$1
0
TEXT
8
PART_TYPE_01
10
-1.124
20
1.652
40
0.7
1
C_0201
41
0.75
7
W0$1
0
TEXT
8
PART_INFO
10
-1.124
20
0.652
40
0.7
1
000000
41
0.75
7
W0$1
0
TEXT
8
PART_PTS
10
-1.124
20
-0.348
40
0.7
1
1 2 
41
0.75
7
W0$1
0
ENDBLK
0
BLOCK
2
PART_TOP_19
8
0
10
0
20
0
3
PART_TOP_19
70
64
0
INSERT
2
SYM_TOP_3
8
0
10
0
20
0
0
INSERT
2
PKG_1
8
0
10
0
20
0
0
TEXT
8
LABEL_INFO
10
-1.124
20
1.652
40
0.7
1
0 0 0 0 0 1
41
0.75
7
W0$1
0
TEXT
8
LABEL_ATTRIBUTE
10
-1.124
20
1.652
40
0.7
1
PartType
41
0.75
7
W0$1
0
TEXT
8
PART_TYPE_01
10
-1.124
20
1.652
40
0.7
1
C_1005
41
0.75
7
W0$1
0
TEXT
8
LABEL_INFO
10
-0.97
20
-1.12
40
0.56
1
0 0 0 0 0 1
41
0.75
7
W0$1
0
TEXT
8
LABEL_ATTRIBUTE
10
-0.97
20
-1.12
40
0.56
1
Ref.Des.
41
0.75
7
W0$1
0
TEXT
8
PART_NAME_01
10
-0.97
20
-1.12
40
0.56
1
C8
41
0.75
7
W0$1
0
TEXT
8
PART_INFO
10
-0.97
20
-1.92
40
0.56
1
000000
41
0.75
7
W0$1
0
TEXT
8
PART_PTS
10
-0.97
20
-2.72
40
0.56
1
1 2 
41
0.75
7
W0$1
0
ENDBLK
0
BLOCK
2
PART_TOP_20
8
0
10
0
20
0
3
PART_TOP_20
70
64
0
INSERT
2
SYM_TOP_3
8
0
10
0
20
0
0
INSERT
2
PKG_1
8
0
10
0
20
0
0
TEXT
8
LABEL_INFO
10
-1.124
20
1.652
40
0.7
1
0 0 0 0 0 1
41
0.75
7
W0$1
0
TEXT
8
LABEL_ATTRIBUTE
10
-1.124
20
1.652
40
0.7
1
PartType
41
0.75
7
W0$1
0
TEXT
8
PART_TYPE_01
10
-1.124
20
1.652
40
0.7
1
C_1005
41
0.75
7
W0$1
0
TEXT
8
LABEL_INFO
10
-0.6
20
-1.2
40
0.56
1
0 0 0 0 0 1
41
0.75
7
W0$1
0
TEXT
8
LABEL_ATTRIBUTE
10
-0.6
20
-1.2
40
0.56
1
Ref.Des.
41
0.75
7
W0$1
0
TEXT
8
PART_NAME_01
10
-0.6
20
-1.2
40
0.56
1
C9
41
0.75
7
W0$1
0
TEXT
8
PART_INFO
10
-0.6
20
-2
40
0.56
1
000000
41
0.75
7
W0$1
0
TEXT
8
PART_PTS
10
-0.6
20
-2.8
40
0.56
1
1 2 
41
0.75
7
W0$1
0
ENDBLK
0
BLOCK
2
PART_TOP_21
8
0
10
0
20
0
3
PART_TOP_21
70
64
0
INSERT
2
SYM_TOP_4
8
0
10
0
20
0
0
INSERT
2
PKG_2
8
0
10
0
20
0
0
TEXT
8
LABEL_INFO
10
6.15
20
-8.4999993333
40
0.56
1
0 162000000 0 0 0 1
50
90
41
0.75
7
W0$1
0
TEXT
8
LABEL_ATTRIBUTE
10
6.15
20
-8.4999993333
40
0.56
1
Ref.Des.
50
90
41
0.75
7
W0$1
0
TEXT
8
PART_NAME_01
10
6.15
20
-8.4999993333
40
0.56
1
CON1
50
90
41
0.75
7
W0$1
0
TEXT
8
LABEL_INFO
10
0
20
0
40
0.889
1
0 0 0 2 0 1
73
2
11
0
21
0
41
0.75
7
W0$127
0
TEXT
8
LABEL_ATTRIBUTE
10
0
20
0
40
0.889
1
PartType
73
2
11
0
21
0
41
0.75
7
W0$127
0
TEXT
8
PART_TYPE_01
10
0
20
0
40
0.889
1
WM9364CT-ND
73
3
11
0
21
0
41
0.75
7
W0$127
0
TEXT
8
PART_INFO
10
0
20
-1.27
40
0.889
1
000000
73
3
11
0
21
-1.27
41
0.75
7
W0$127
0
TEXT
8
PART_PTS
10
0
20
-2.54
40
0.889
1
1 2 3 4 5 6 7 8 9 10 11 12 
73
3
11
0
21
-2.54
41
0.75
7
W0$127
0
ENDBLK
0
BLOCK
2
PART_TOP_22
8
0
10
0
20
0
3
PART_TOP_22
70
64
0
INSERT
2
SYM_TOP_5
8
0
10
0
20
0
0
INSERT
2
PKG_3
8
0
10
0
20
0
0
TEXT
8
LABEL_INFO
10
-2.47
20
-0.27
40
0.56
1
0 0 0 0 0 1
41
0.75
7
W0$1
0
TEXT
8
LABEL_ATTRIBUTE
10
-2.47
20
-0.27
40
0.56
1
Ref.Des.
41
0.75
7
W0$1
0
TEXT
8
PART_NAME_01
10
-2.47
20
-0.27
40
0.56
1
ESD1
41
0.75
7
W0$1
0
TEXT
8
LABEL_INFO
10
-1.124
20
1.652
40
0.7
1
0 0 0 0 0 1
41
0.75
7
W0$1
0
TEXT
8
LABEL_ATTRIBUTE
10
-1.124
20
1.652
40
0.7
1
PartType
41
0.75
7
W0$1
0
TEXT
8
PART_TYPE_01
10
-1.124
20
1.652
40
0.7
1
LXES1UTBB1-157
41
0.75
7
W0$1
0
TEXT
8
PART_INFO
10
-1.124
20
0.652
40
0.7
1
000000
41
0.75
7
W0$1
0
TEXT
8
PART_PTS
10
-1.124
20
-0.348
40
0.7
1
1 2 
41
0.75
7
W0$1
0
ENDBLK
0
BLOCK
2
PART_TOP_23
8
0
10
0
20
0
3
PART_TOP_23
70
64
0
INSERT
2
SYM_TOP_5
8
0
10
0
20
0
0
INSERT
2
PKG_3
8
0
10
0
20
0
0
TEXT
8
LABEL_INFO
10
-1.6
20
-0.5
40
0.56
1
0 162000000 0 0 0 1
50
90
41
0.75
7
W0$1
0
TEXT
8
LABEL_ATTRIBUTE
10
-1.6
20
-0.5
40
0.56
1
Ref.Des.
50
90
41
0.75
7
W0$1
0
TEXT
8
PART_NAME_01
10
-1.6
20
-0.5
40
0.56
1
ESD2
50
90
41
0.75
7
W0$1
0
TEXT
8
LABEL_INFO
10
-1.124
20
1.652
40
0.7
1
0 0 0 0 0 1
41
0.75
7
W0$1
0
TEXT
8
LABEL_ATTRIBUTE
10
-1.124
20
1.652
40
0.7
1
PartType
41
0.75
7
W0$1
0
TEXT
8
PART_TYPE_01
10
-1.124
20
1.652
40
0.7
1
LXES1UTBB1-157
41
0.75
7
W0$1
0
TEXT
8
PART_INFO
10
-1.124
20
0.652
40
0.7
1
000000
41
0.75
7
W0$1
0
TEXT
8
PART_PTS
10
-1.124
20
-0.348
40
0.7
1
1 2 
41
0.75
7
W0$1
0
ENDBLK
0
BLOCK
2
PART_TOP_24
8
0
10
0
20
0
3
PART_TOP_24
70
64
0
INSERT
2
SYM_TOP_5
8
0
10
0
20
0
0
INSERT
2
PKG_3
8
0
10
0
20
0
0
TEXT
8
LABEL_INFO
10
-1.5999993333
20
-1.1
40
0.56
1
0 162000000 0 0 0 1
50
90
41
0.75
7
W0$1
0
TEXT
8
LABEL_ATTRIBUTE
10
-1.5999993333
20
-1.1
40
0.56
1
Ref.Des.
50
90
41
0.75
7
W0$1
0
TEXT
8
PART_NAME_01
10
-1.5999993333
20
-1.1
40
0.56
1
ESD3
50
90
41
0.75
7
W0$1
0
TEXT
8
LABEL_INFO
10
-1.124
20
1.652
40
0.7
1
0 0 0 0 0 1
41
0.75
7
W0$1
0
TEXT
8
LABEL_ATTRIBUTE
10
-1.124
20
1.652
40
0.7
1
PartType
41
0.75
7
W0$1
0
TEXT
8
PART_TYPE_01
10
-1.124
20
1.652
40
0.7
1
LXES1UTBB1-157
41
0.75
7
W0$1
0
TEXT
8
PART_INFO
10
-1.124
20
0.652
40
0.7
1
000000
41
0.75
7
W0$1
0
TEXT
8
PART_PTS
10
-1.124
20
-0.348
40
0.7
1
1 2 
41
0.75
7
W0$1
0
ENDBLK
0
BLOCK
2
PART_TOP_25
8
0
10
0
20
0
3
PART_TOP_25
70
64
0
INSERT
2
SYM_TOP_5
8
0
10
0
20
0
0
INSERT
2
PKG_3
8
0
10
0
20
0
0
TEXT
8
LABEL_INFO
10
-1.1
20
-0.3
40
0.56
1
0 162000000 0 0 0 1
50
90
41
0.75
7
W0$1
0
TEXT
8
LABEL_ATTRIBUTE
10
-1.1
20
-0.3
40
0.56
1
Ref.Des.
50
90
41
0.75
7
W0$1
0
TEXT
8
PART_NAME_01
10
-1.1
20
-0.3
40
0.56
1
ESD4
50
90
41
0.75
7
W0$1
0
TEXT
8
LABEL_INFO
10
-1.124
20
1.652
40
0.7
1
0 0 0 0 0 1
41
0.75
7
W0$1
0
TEXT
8
LABEL_ATTRIBUTE
10
-1.124
20
1.652
40
0.7
1
PartType
41
0.75
7
W0$1
0
TEXT
8
PART_TYPE_01
10
-1.124
20
1.652
40
0.7
1
LXES1UTBB1-157
41
0.75
7
W0$1
0
TEXT
8
PART_INFO
10
-1.124
20
0.652
40
0.7
1
000000
41
0.75
7
W0$1
0
TEXT
8
PART_PTS
10
-1.124
20
-0.348
40
0.7
1
1 2 
41
0.75
7
W0$1
0
ENDBLK
0
BLOCK
2
PART_TOP_26
8
0
10
0
20
0
3
PART_TOP_26
70
64
0
INSERT
2
SYM_TOP_7
8
0
10
0
20
0
0
INSERT
2
PKG_5
8
0
10
0
20
0
0
TEXT
8
LABEL_INFO
10
0
20
0
40
0.889
1
0 0 0 2 0 1
73
2
11
0
21
0
41
0.75
7
W0$127
0
TEXT
8
LABEL_ATTRIBUTE
10
0
20
0
40
0.889
1
PartType
73
2
11
0
21
0
41
0.75
7
W0$127
0
TEXT
8
PART_TYPE_01
10
0
20
0
40
0.889
1
2.54MM_16PIN
73
3
11
0
21
0
41
0.75
7
W0$127
0
TEXT
8
LABEL_INFO
10
-1
20
0.1999993333
40
0.56
1
0 162000000 0 0 0 1
50
90
41
0.75
7
W0$1
0
TEXT
8
LABEL_ATTRIBUTE
10
-1
20
0.1999993333
40
0.56
1
Ref.Des.
50
90
41
0.75
7
W0$1
0
TEXT
8
PART_NAME_01
10
-1
20
0.1999993333
40
0.56
1
J2
50
90
41
0.75
7
W0$1
0
TEXT
8
PART_INFO
10
-1
20
-0.6000006667
40
0.56
1
000000
50
90
41
0.75
7
W0$1
0
TEXT
8
PART_PTS
10
-1
20
-1.4000006667
40
0.56
1
1 2 3 4 5 6 7 8 9 10 11 12 13 14 15 16 
50
90
41
0.75
7
W0$1
0
ENDBLK
0
BLOCK
2
PART_TOP_27
8
0
10
0
20
0
3
PART_TOP_27
70
64
0
INSERT
2
SYM_TOP_7
8
0
10
0
20
0
0
INSERT
2
PKG_5
8
0
10
0
20
0
0
TEXT
8
LABEL_INFO
10
0
20
0
40
0.889
1
0 0 0 2 0 1
73
2
11
0
21
0
41
0.75
7
W0$127
0
TEXT
8
LABEL_ATTRIBUTE
10
0
20
0
40
0.889
1
PartType
73
2
11
0
21
0
41
0.75
7
W0$127
0
TEXT
8
PART_TYPE_01
10
0
20
0
40
0.889
1
2.54MM_16PIN
73
3
11
0
21
0
41
0.75
7
W0$127
0
TEXT
8
LABEL_INFO
10
-1.0999993333
20
-1
40
0.56
1
0 162000000 0 0 0 1
50
90
41
0.75
7
W0$1
0
TEXT
8
LABEL_ATTRIBUTE
10
-1.0999993333
20
-1
40
0.56
1
Ref.Des.
50
90
41
0.75
7
W0$1
0
TEXT
8
PART_NAME_01
10
-1.0999993333
20
-1
40
0.56
1
J3
50
90
41
0.75
7
W0$1
0
TEXT
8
PART_INFO
10
-1.0999993333
20
-1.8
40
0.56
1
000000
50
90
41
0.75
7
W0$1
0
TEXT
8
PART_PTS
10
-1.0999993333
20
-2.6
40
0.56
1
1 2 3 4 5 6 7 8 9 10 11 12 13 14 15 16 
50
90
41
0.75
7
W0$1
0
ENDBLK
0
BLOCK
2
PART_TOP_28
8
0
10
0
20
0
3
PART_TOP_28
70
64
0
INSERT
2
SYM_TOP_8
8
0
10
0
20
0
0
INSERT
2
PKG_6
8
0
10
0
20
0
0
TEXT
8
LABEL_INFO
10
-0.32
20
1.22
40
0.56
1
0 486000000 0 0 0 1
50
270
41
0.75
7
W0$1
0
TEXT
8
LABEL_ATTRIBUTE
10
-0.32
20
1.22
40
0.56
1
Ref.Des.
50
270
41
0.75
7
W0$1
0
TEXT
8
PART_NAME_01
10
-0.32
20
1.22
40
0.56
1
L1
50
270
41
0.75
7
W0$1
0
TEXT
8
LABEL_INFO
10
-1.124
20
1.652
40
0.7
1
0 0 0 0 0 1
41
0.75
7
W0$1
0
TEXT
8
LABEL_ATTRIBUTE
10
-1.124
20
1.652
40
0.7
1
PartType
41
0.75
7
W0$1
0
TEXT
8
PART_TYPE_01
10
-1.124
20
1.652
40
0.7
1
L_1005
41
0.75
7
W0$1
0
TEXT
8
PART_INFO
10
-1.124
20
0.652
40
0.7
1
000000
41
0.75
7
W0$1
0
TEXT
8
PART_PTS
10
-1.124
20
-0.348
40
0.7
1
1 2 
41
0.75
7
W0$1
0
ENDBLK
0
BLOCK
2
PART_TOP_29
8
0
10
0
20
0
3
PART_TOP_29
70
64
0
INSERT
2
SYM_TOP_8
8
0
10
0
20
0
0
INSERT
2
PKG_6
8
0
10
0
20
0
0
TEXT
8
LABEL_INFO
10
-1.1
20
0.2999993333
40
0.56
1
0 324000000 0 0 0 1
50
180
41
0.75
7
W0$1
0
TEXT
8
LABEL_ATTRIBUTE
10
-1.1
20
0.2999993333
40
0.56
1
Ref.Des.
50
180
41
0.75
7
W0$1
0
TEXT
8
PART_NAME_01
10
-1.1
20
0.2999993333
40
0.56
1
L2
50
180
41
0.75
7
W0$1
0
TEXT
8
LABEL_INFO
10
-1.124
20
1.652
40
0.7
1
0 0 0 0 0 1
41
0.75
7
W0$1
0
TEXT
8
LABEL_ATTRIBUTE
10
-1.124
20
1.652
40
0.7
1
PartType
41
0.75
7
W0$1
0
TEXT
8
PART_TYPE_01
10
-1.124
20
1.652
40
0.7
1
L_1005
41
0.75
7
W0$1
0
TEXT
8
PART_INFO
10
-1.124
20
0.652
40
0.7
1
000000
41
0.75
7
W0$1
0
TEXT
8
PART_PTS
10
-1.124
20
-0.348
40
0.7
1
1 2 
41
0.75
7
W0$1
0
ENDBLK
0
BLOCK
2
PART_TOP_30
8
0
10
0
20
0
3
PART_TOP_30
70
64
0
INSERT
2
SYM_TOP_9
8
0
10
0
20
0
0
INSERT
2
PKG_7
8
0
10
0
20
0
0
TEXT
8
LABEL_INFO
10
-1.124
20
1.652
40
0.7
1
0 0 0 0 0 1
41
0.75
7
W0$1
0
TEXT
8
LABEL_ATTRIBUTE
10
-1.124
20
1.652
40
0.7
1
PartType
41
0.75
7
W0$1
0
TEXT
8
PART_TYPE_01
10
-1.124
20
1.652
40
0.7
1
R_1005
41
0.75
7
W0$1
0
TEXT
8
LABEL_INFO
10
-0.2
20
0.6
40
0.56
1
0 0 0 0 0 1
41
0.75
7
W0$1
0
TEXT
8
LABEL_ATTRIBUTE
10
-0.2
20
0.6
40
0.56
1
Ref.Des.
41
0.75
7
W0$1
0
TEXT
8
PART_NAME_01
10
-0.2
20
0.6
40
0.56
1
R1
41
0.75
7
W0$1
0
TEXT
8
PART_INFO
10
-0.2
20
-0.2
40
0.56
1
000000
41
0.75
7
W0$1
0
TEXT
8
PART_PTS
10
-0.2
20
-1
40
0.56
1
1 2 
41
0.75
7
W0$1
0
ENDBLK
0
BLOCK
2
PART_TOP_31
8
0
10
0
20
0
3
PART_TOP_31
70
64
0
INSERT
2
SYM_TOP_9
8
0
10
0
20
0
0
INSERT
2
PKG_7
8
0
10
0
20
0
0
TEXT
8
LABEL_INFO
10
-1.124
20
1.652
40
0.7
1
0 0 0 0 0 1
41
0.75
7
W0$1
0
TEXT
8
LABEL_ATTRIBUTE
10
-1.124
20
1.652
40
0.7
1
PartType
41
0.75
7
W0$1
0
TEXT
8
PART_TYPE_01
10
-1.124
20
1.652
40
0.7
1
R_1005
41
0.75
7
W0$1
0
TEXT
8
LABEL_INFO
10
-1.1
20
0.1999993333
40
0.56
1
0 324000000 0 0 0 1
50
180
41
0.75
7
W0$1
0
TEXT
8
LABEL_ATTRIBUTE
10
-1.1
20
0.1999993333
40
0.56
1
Ref.Des.
50
180
41
0.75
7
W0$1
0
TEXT
8
PART_NAME_01
10
-1.1
20
0.1999993333
40
0.56
1
R10
50
180
41
0.75
7
W0$1
0
TEXT
8
PART_INFO
10
-1.1
20
-0.6000006667
40
0.56
1
000000
50
180
41
0.75
7
W0$1
0
TEXT
8
PART_PTS
10
-1.1
20
-1.4000006667
40
0.56
1
1 2 
50
180
41
0.75
7
W0$1
0
ENDBLK
0
BLOCK
2
PART_TOP_32
8
0
10
0
20
0
3
PART_TOP_32
70
64
0
INSERT
2
SYM_TOP_9
8
0
10
0
20
0
0
INSERT
2
PKG_7
8
0
10
0
20
0
0
TEXT
8
LABEL_INFO
10
-1.124
20
1.652
40
0.7
1
0 0 0 0 0 1
41
0.75
7
W0$1
0
TEXT
8
LABEL_ATTRIBUTE
10
-1.124
20
1.652
40
0.7
1
PartType
41
0.75
7
W0$1
0
TEXT
8
PART_TYPE_01
10
-1.124
20
1.652
40
0.7
1
R_1005
41
0.75
7
W0$1
0
TEXT
8
LABEL_INFO
10
0.1999993333
20
0.7
40
0.56
1
0 162000000 0 0 0 1
50
90
41
0.75
7
W0$1
0
TEXT
8
LABEL_ATTRIBUTE
10
0.1999993333
20
0.7
40
0.56
1
Ref.Des.
50
90
41
0.75
7
W0$1
0
TEXT
8
PART_NAME_01
10
0.1999993333
20
0.7
40
0.56
1
R13
50
90
41
0.75
7
W0$1
0
TEXT
8
PART_INFO
10
0.1999993333
20
-0.1
40
0.56
1
000000
50
90
41
0.75
7
W0$1
0
TEXT
8
PART_PTS
10
0.1999993333
20
-0.9
40
0.56
1
1 2 
50
90
41
0.75
7
W0$1
0
ENDBLK
0
BLOCK
2
PART_TOP_33
8
0
10
0
20
0
3
PART_TOP_33
70
64
0
INSERT
2
SYM_TOP_9
8
0
10
0
20
0
0
INSERT
2
PKG_7
8
0
10
0
20
0
0
TEXT
8
LABEL_INFO
10
-1.124
20
1.652
40
0.7
1
0 0 0 0 0 1
41
0.75
7
W0$1
0
TEXT
8
LABEL_ATTRIBUTE
10
-1.124
20
1.652
40
0.7
1
PartType
41
0.75
7
W0$1
0
TEXT
8
PART_TYPE_01
10
-1.124
20
1.652
40
0.7
1
R_1005
41
0.75
7
W0$1
0
TEXT
8
LABEL_INFO
10
-1.0899993333
20
-1.09
40
0.56
1
0 162000000 0 0 0 1
50
90
41
0.75
7
W0$1
0
TEXT
8
LABEL_ATTRIBUTE
10
-1.0899993333
20
-1.09
40
0.56
1
Ref.Des.
50
90
41
0.75
7
W0$1
0
TEXT
8
PART_NAME_01
10
-1.0899993333
20
-1.09
40
0.56
1
R14
50
90
41
0.75
7
W0$1
0
TEXT
8
PART_INFO
10
-1.0899993333
20
-1.89
40
0.56
1
000000
50
90
41
0.75
7
W0$1
0
TEXT
8
PART_PTS
10
-1.0899993333
20
-2.69
40
0.56
1
1 2 
50
90
41
0.75
7
W0$1
0
ENDBLK
0
BLOCK
2
PART_TOP_34
8
0
10
0
20
0
3
PART_TOP_34
70
64
0
INSERT
2
SYM_TOP_9
8
0
10
0
20
0
0
INSERT
2
PKG_7
8
0
10
0
20
0
0
TEXT
8
LABEL_INFO
10
-1.124
20
1.652
40
0.7
1
0 0 0 0 0 1
41
0.75
7
W0$1
0
TEXT
8
LABEL_ATTRIBUTE
10
-1.124
20
1.652
40
0.7
1
PartType
41
0.75
7
W0$1
0
TEXT
8
PART_TYPE_01
10
-1.124
20
1.652
40
0.7
1
R_1005
41
0.75
7
W0$1
0
TEXT
8
LABEL_INFO
10
1.6
20
-0.3999993333
40
0.56
1
0 162000000 0 0 0 1
50
90
41
0.75
7
W0$1
0
TEXT
8
LABEL_ATTRIBUTE
10
1.6
20
-0.3999993333
40
0.56
1
Ref.Des.
50
90
41
0.75
7
W0$1
0
TEXT
8
PART_NAME_01
10
1.6
20
-0.3999993333
40
0.56
1
R15
50
90
41
0.75
7
W0$1
0
TEXT
8
PART_INFO
10
1.6
20
-1.1999993333
40
0.56
1
000000
50
90
41
0.75
7
W0$1
0
TEXT
8
PART_PTS
10
1.6
20
-1.9999993333
40
0.56
1
1 2 
50
90
41
0.75
7
W0$1
0
ENDBLK
0
BLOCK
2
PART_TOP_35
8
0
10
0
20
0
3
PART_TOP_35
70
64
0
INSERT
2
SYM_TOP_9
8
0
10
0
20
0
0
INSERT
2
PKG_7
8
0
10
0
20
0
0
TEXT
8
LABEL_INFO
10
-1.124
20
1.652
40
0.7
1
0 0 0 0 0 1
41
0.75
7
W0$1
0
TEXT
8
LABEL_ATTRIBUTE
10
-1.124
20
1.652
40
0.7
1
PartType
41
0.75
7
W0$1
0
TEXT
8
PART_TYPE_01
10
-1.124
20
1.652
40
0.7
1
R_1005
41
0.75
7
W0$1
0
TEXT
8
LABEL_INFO
10
-0.4
20
-0.6
40
0.56
1
0 486000000 0 0 0 1
50
270
41
0.75
7
W0$1
0
TEXT
8
LABEL_ATTRIBUTE
10
-0.4
20
-0.6
40
0.56
1
Ref.Des.
50
270
41
0.75
7
W0$1
0
TEXT
8
PART_NAME_01
10
-0.4
20
-0.6
40
0.56
1
R16
50
270
41
0.75
7
W0$1
0
TEXT
8
PART_INFO
10
-0.4
20
-1.4
40
0.56
1
000000
50
270
41
0.75
7
W0$1
0
TEXT
8
PART_PTS
10
-0.4
20
-2.2
40
0.56
1
1 2 
50
270
41
0.75
7
W0$1
0
ENDBLK
0
BLOCK
2
PART_TOP_36
8
0
10
0
20
0
3
PART_TOP_36
70
64
0
INSERT
2
SYM_TOP_9
8
0
10
0
20
0
0
INSERT
2
PKG_7
8
0
10
0
20
0
0
TEXT
8
LABEL_INFO
10
-1.124
20
1.652
40
0.7
1
0 0 0 0 0 1
41
0.75
7
W0$1
0
TEXT
8
LABEL_ATTRIBUTE
10
-1.124
20
1.652
40
0.7
1
PartType
41
0.75
7
W0$1
0
TEXT
8
PART_TYPE_01
10
-1.124
20
1.652
40
0.7
1
R_1005
41
0.75
7
W0$1
0
TEXT
8
LABEL_INFO
10
-0.05
20
0.65
40
0.56
1
0 0 0 0 0 1
41
0.75
7
W0$1
0
TEXT
8
LABEL_ATTRIBUTE
10
-0.05
20
0.65
40
0.56
1
Ref.Des.
41
0.75
7
W0$1
0
TEXT
8
PART_NAME_01
10
-0.05
20
0.65
40
0.56
1
R17
41
0.75
7
W0$1
0
TEXT
8
PART_INFO
10
-0.05
20
-0.15
40
0.56
1
000000
41
0.75
7
W0$1
0
TEXT
8
PART_PTS
10
-0.05
20
-0.95
40
0.56
1
1 2 
41
0.75
7
W0$1
0
ENDBLK
0
BLOCK
2
PART_TOP_37
8
0
10
0
20
0
3
PART_TOP_37
70
64
0
INSERT
2
SYM_TOP_9
8
0
10
0
20
0
0
INSERT
2
PKG_7
8
0
10
0
20
0
0
TEXT
8
LABEL_INFO
10
-1.124
20
1.652
40
0.7
1
0 0 0 0 0 1
41
0.75
7
W0$1
0
TEXT
8
LABEL_ATTRIBUTE
10
-1.124
20
1.652
40
0.7
1
PartType
41
0.75
7
W0$1
0
TEXT
8
PART_TYPE_01
10
-1.124
20
1.652
40
0.7
1
R_1005
41
0.75
7
W0$1
0
TEXT
8
LABEL_INFO
10
1.1
20
-0.3
40
0.56
1
0 0 0 0 0 1
41
0.75
7
W0$1
0
TEXT
8
LABEL_ATTRIBUTE
10
1.1
20
-0.3
40
0.56
1
Ref.Des.
41
0.75
7
W0$1
0
TEXT
8
PART_NAME_01
10
1.1
20
-0.3
40
0.56
1
R2
41
0.75
7
W0$1
0
TEXT
8
PART_INFO
10
1.1
20
-1.1
40
0.56
1
000000
41
0.75
7
W0$1
0
TEXT
8
PART_PTS
10
1.1
20
-1.9
40
0.56
1
1 2 
41
0.75
7
W0$1
0
ENDBLK
0
BLOCK
2
PART_TOP_38
8
0
10
0
20
0
3
PART_TOP_38
70
64
0
INSERT
2
SYM_TOP_9
8
0
10
0
20
0
0
INSERT
2
PKG_7
8
0
10
0
20
0
0
TEXT
8
LABEL_INFO
10
-1.124
20
1.652
40
0.7
1
0 0 0 0 0 1
41
0.75
7
W0$1
0
TEXT
8
LABEL_ATTRIBUTE
10
-1.124
20
1.652
40
0.7
1
PartType
41
0.75
7
W0$1
0
TEXT
8
PART_TYPE_01
10
-1.124
20
1.652
40
0.7
1
R_1005
41
0.75
7
W0$1
0
TEXT
8
LABEL_INFO
10
1.122
20
-0.3
40
0.56
1
0 0 0 0 0 1
41
0.75
7
W0$1
0
TEXT
8
LABEL_ATTRIBUTE
10
1.122
20
-0.3
40
0.56
1
Ref.Des.
41
0.75
7
W0$1
0
TEXT
8
PART_NAME_01
10
1.122
20
-0.3
40
0.56
1
R3
41
0.75
7
W0$1
0
TEXT
8
PART_INFO
10
1.122
20
-1.1
40
0.56
1
000000
41
0.75
7
W0$1
0
TEXT
8
PART_PTS
10
1.122
20
-1.9
40
0.56
1
1 2 
41
0.75
7
W0$1
0
ENDBLK
0
BLOCK
2
PART_TOP_39
8
0
10
0
20
0
3
PART_TOP_39
70
64
0
INSERT
2
SYM_TOP_9
8
0
10
0
20
0
0
INSERT
2
PKG_7
8
0
10
0
20
0
0
TEXT
8
LABEL_INFO
10
-1.124
20
1.652
40
0.7
1
0 0 0 0 0 1
41
0.75
7
W0$1
0
TEXT
8
LABEL_ATTRIBUTE
10
-1.124
20
1.652
40
0.7
1
PartType
41
0.75
7
W0$1
0
TEXT
8
PART_TYPE_01
10
-1.124
20
1.652
40
0.7
1
R_1005
41
0.75
7
W0$1
0
TEXT
8
LABEL_INFO
10
0.2999993333
20
1.2
40
0.56
1
0 324000000 0 0 0 1
50
180
41
0.75
7
W0$1
0
TEXT
8
LABEL_ATTRIBUTE
10
0.2999993333
20
1.2
40
0.56
1
Ref.Des.
50
180
41
0.75
7
W0$1
0
TEXT
8
PART_NAME_01
10
0.2999993333
20
1.2
40
0.56
1
R4
50
180
41
0.75
7
W0$1
0
TEXT
8
PART_INFO
10
0.2999993333
20
0.4
40
0.56
1
000000
50
180
41
0.75
7
W0$1
0
TEXT
8
PART_PTS
10
0.2999993333
20
-0.4
40
0.56
1
1 2 
50
180
41
0.75
7
W0$1
0
ENDBLK
0
BLOCK
2
PART_TOP_40
8
0
10
0
20
0
3
PART_TOP_40
70
64
0
INSERT
2
SYM_TOP_9
8
0
10
0
20
0
0
INSERT
2
PKG_7
8
0
10
0
20
0
0
TEXT
8
LABEL_INFO
10
-1.124
20
1.652
40
0.7
1
0 0 0 0 0 1
41
0.75
7
W0$1
0
TEXT
8
LABEL_ATTRIBUTE
10
-1.124
20
1.652
40
0.7
1
PartType
41
0.75
7
W0$1
0
TEXT
8
PART_TYPE_01
10
-1.124
20
1.652
40
0.7
1
R_1005
41
0.75
7
W0$1
0
TEXT
8
LABEL_INFO
10
1.7
20
-0.1
40
0.56
1
0 0 0 0 0 1
41
0.75
7
W0$1
0
TEXT
8
LABEL_ATTRIBUTE
10
1.7
20
-0.1
40
0.56
1
Ref.Des.
41
0.75
7
W0$1
0
TEXT
8
PART_NAME_01
10
1.7
20
-0.1
40
0.56
1
R5
41
0.75
7
W0$1
0
TEXT
8
PART_INFO
10
1.7
20
-0.9
40
0.56
1
000000
41
0.75
7
W0$1
0
TEXT
8
PART_PTS
10
1.7
20
-1.7
40
0.56
1
1 2 
41
0.75
7
W0$1
0
ENDBLK
0
BLOCK
2
PART_TOP_41
8
0
10
0
20
0
3
PART_TOP_41
70
64
0
INSERT
2
SYM_TOP_9
8
0
10
0
20
0
0
INSERT
2
PKG_7
8
0
10
0
20
0
0
TEXT
8
LABEL_INFO
10
-1.124
20
1.652
40
0.7
1
0 0 0 0 0 1
41
0.75
7
W0$1
0
TEXT
8
LABEL_ATTRIBUTE
10
-1.124
20
1.652
40
0.7
1
PartType
41
0.75
7
W0$1
0
TEXT
8
PART_TYPE_01
10
-1.124
20
1.652
40
0.7
1
R_1005
41
0.75
7
W0$1
0
TEXT
8
LABEL_INFO
10
1.1
20
-0.3
40
0.56
1
0 0 0 0 0 1
41
0.75
7
W0$1
0
TEXT
8
LABEL_ATTRIBUTE
10
1.1
20
-0.3
40
0.56
1
Ref.Des.
41
0.75
7
W0$1
0
TEXT
8
PART_NAME_01
10
1.1
20
-0.3
40
0.56
1
R6
41
0.75
7
W0$1
0
TEXT
8
PART_INFO
10
1.1
20
-1.1
40
0.56
1
000000
41
0.75
7
W0$1
0
TEXT
8
PART_PTS
10
1.1
20
-1.9
40
0.56
1
1 2 
41
0.75
7
W0$1
0
ENDBLK
0
BLOCK
2
PART_TOP_42
8
0
10
0
20
0
3
PART_TOP_42
70
64
0
INSERT
2
SYM_TOP_9
8
0
10
0
20
0
0
INSERT
2
PKG_7
8
0
10
0
20
0
0
TEXT
8
LABEL_INFO
10
-1.124
20
1.652
40
0.7
1
0 0 0 0 0 1
41
0.75
7
W0$1
0
TEXT
8
LABEL_ATTRIBUTE
10
-1.124
20
1.652
40
0.7
1
PartType
41
0.75
7
W0$1
0
TEXT
8
PART_TYPE_01
10
-1.124
20
1.652
40
0.7
1
R_1005
41
0.75
7
W0$1
0
TEXT
8
LABEL_INFO
10
1.1
20
-0.3
40
0.56
1
0 0 0 0 0 1
41
0.75
7
W0$1
0
TEXT
8
LABEL_ATTRIBUTE
10
1.1
20
-0.3
40
0.56
1
Ref.Des.
41
0.75
7
W0$1
0
TEXT
8
PART_NAME_01
10
1.1
20
-0.3
40
0.56
1
R8
41
0.75
7
W0$1
0
TEXT
8
PART_INFO
10
1.1
20
-1.1
40
0.56
1
000000
41
0.75
7
W0$1
0
TEXT
8
PART_PTS
10
1.1
20
-1.9
40
0.56
1
1 2 
41
0.75
7
W0$1
0
ENDBLK
0
BLOCK
2
PART_TOP_43
8
0
10
0
20
0
3
PART_TOP_43
70
64
0
INSERT
2
SYM_TOP_9
8
0
10
0
20
0
0
INSERT
2
PKG_7
8
0
10
0
20
0
0
TEXT
8
LABEL_INFO
10
-1.124
20
1.652
40
0.7
1
0 0 0 0 0 1
41
0.75
7
W0$1
0
TEXT
8
LABEL_ATTRIBUTE
10
-1.124
20
1.652
40
0.7
1
PartType
41
0.75
7
W0$1
0
TEXT
8
PART_TYPE_01
10
-1.124
20
1.652
40
0.7
1
R_1005
41
0.75
7
W0$1
0
TEXT
8
LABEL_INFO
10
1.1
20
-0.3
40
0.56
1
0 0 0 0 0 1
41
0.75
7
W0$1
0
TEXT
8
LABEL_ATTRIBUTE
10
1.1
20
-0.3
40
0.56
1
Ref.Des.
41
0.75
7
W0$1
0
TEXT
8
PART_NAME_01
10
1.1
20
-0.3
40
0.56
1
R9
41
0.75
7
W0$1
0
TEXT
8
PART_INFO
10
1.1
20
-1.1
40
0.56
1
000000
41
0.75
7
W0$1
0
TEXT
8
PART_PTS
10
1.1
20
-1.9
40
0.56
1
1 2 
41
0.75
7
W0$1
0
ENDBLK
0
BLOCK
2
PART_TOP_44
8
0
10
0
20
0
3
PART_TOP_44
70
64
0
INSERT
2
SYM_TOP_10
8
0
10
0
20
0
0
INSERT
2
PKG_8
8
0
10
0
20
0
0
TEXT
8
LABEL_INFO
10
0.3
20
-6.05
40
0.56
1
0 324000000 0 0 0 1
50
180
41
0.75
7
W0$1
0
TEXT
8
LABEL_ATTRIBUTE
10
0.3
20
-6.05
40
0.56
1
Ref.Des.
50
180
41
0.75
7
W0$1
0
TEXT
8
PART_NAME_01
10
0.3
20
-6.05
40
0.56
1
U1
50
180
41
0.75
7
W0$1
0
TEXT
8
LABEL_INFO
10
0
20
0
40
0.889
1
0 0 0 2 0 1
73
2
11
0
21
0
41
0.75
7
W0$127
0
TEXT
8
LABEL_ATTRIBUTE
10
0
20
0
40
0.889
1
PartType
73
2
11
0
21
0
41
0.75
7
W0$127
0
TEXT
8
PART_TYPE_01
10
0
20
0
40
0.889
1
LBAD0XX1SC-DM
73
3
11
0
21
0
41
0.75
7
W0$127
0
TEXT
8
PART_INFO
10
0
20
-1.27
40
0.889
1
000000
73
3
11
0
21
-1.27
41
0.75
7
W0$127
0
TEXT
8
PART_PTS
10
0
20
-2.54
40
0.889
1
1 2 3 4 5 6 7 8 9 10 11 12 13 14 15 16 17 18 19 20 21 22 23 24 25 26 27 28 29 30 31 32 33 34 35 36 37 38 39 40 41 42 43 44 45 46 47 48 49 50 51 52 53 54 55 56 57 58 59 60 61 62 63 64 65 66 67 68 69 70 71 72 73 74 75 76 77 78 79 80 81 82 83 84 85 86 
73
3
11
0
21
-2.54
41
0.75
7
W0$127
0
TEXT
8
PART_PTS
10
0
20
-3.81
40
0.889
1
87 88 89 90 91 92 93 94 95 96 97 98 99 100 101 102 103 104 105 106 107 108 109 110 111 112 113 114 115 
73
3
11
0
21
-3.81
41
0.75
7
W0$127
0
ENDBLK
0
BLOCK
2
PART_TOP_45
8
0
10
0
20
0
3
PART_TOP_45
70
64
0
INSERT
2
SYM_TOP_11
8
0
10
0
20
0
0
INSERT
2
PKG_9
8
0
10
0
20
0
0
TEXT
8
LABEL_INFO
10
0
20
0
40
0.889
1
0 0 0 2 0 1
73
2
11
0
21
0
41
0.75
7
W0$127
0
TEXT
8
LABEL_ATTRIBUTE
10
0
20
0
40
0.889
1
PartType
73
2
11
0
21
0
41
0.75
7
W0$127
0
TEXT
8
PART_TYPE_01
10
0
20
0
40
0.889
1
TXB0108PWR
73
3
11
0
21
0
41
0.75
7
W0$127
0
TEXT
8
LABEL_INFO
10
0.47
20
-3.66
40
0.56
1
0 324000000 0 0 0 1
50
180
41
0.75
7
W0$1
0
TEXT
8
LABEL_ATTRIBUTE
10
0.47
20
-3.66
40
0.56
1
Ref.Des.
50
180
41
0.75
7
W0$1
0
TEXT
8
PART_NAME_01
10
0.47
20
-3.66
40
0.56
1
U3
50
180
41
0.75
7
W0$1
0
TEXT
8
PART_INFO
10
0.47
20
-4.46
40
0.56
1
000000
50
180
41
0.75
7
W0$1
0
TEXT
8
PART_PTS
10
0.47
20
-5.26
40
0.56
1
1 2 3 4 5 6 7 8 9 10 11 12 13 14 15 16 17 18 19 20 
50
180
41
0.75
7
W0$1
0
ENDBLK
0
BLOCK
2
PART_TOP_46
8
0
10
0
20
0
3
PART_TOP_46
70
64
0
INSERT
2
SYM_TOP_12
8
0
10
0
20
0
0
INSERT
2
PKG_10
8
0
10
0
20
0
0
TEXT
8
LABEL_INFO
10
0
20
0
40
0.889
1
0 0 0 2 0 1
73
2
11
0
21
0
41
0.75
7
W0$127
0
TEXT
8
LABEL_ATTRIBUTE
10
0
20
0
40
0.889
1
PartType
73
2
11
0
21
0
41
0.75
7
W0$127
0
TEXT
8
PART_TYPE_01
10
0
20
0
40
0.889
1
BD33IC0WHFV-GTR
73
3
11
0
21
0
41
0.75
7
W0$127
0
TEXT
8
LABEL_INFO
10
-1.84
20
-0.16
40
0.56
1
0 0 0 0 0 1
41
0.75
7
W0$1
0
TEXT
8
LABEL_ATTRIBUTE
10
-1.84
20
-0.16
40
0.56
1
Ref.Des.
41
0.75
7
W0$1
0
TEXT
8
PART_NAME_01
10
-1.84
20
-0.16
40
0.56
1
U5
41
0.75
7
W0$1
0
TEXT
8
PART_INFO
10
-1.84
20
-0.96
40
0.56
1
000000
41
0.75
7
W0$1
0
TEXT
8
PART_PTS
10
-1.84
20
-1.76
40
0.56
1
1 2 3 4 5 6 7 
41
0.75
7
W0$1
0
ENDBLK
0
BLOCK
2
PART_TOP_47
8
0
10
0
20
0
3
PART_TOP_47
70
64
0
INSERT
2
SYM_TOP_13
8
0
10
0
20
0
0
INSERT
2
PKG_11
8
0
10
0
20
0
0
TEXT
8
LABEL_INFO
10
0
20
0
40
0.889
1
0 0 0 2 0 1
73
2
11
0
21
0
41
0.75
7
W0$127
0
TEXT
8
LABEL_ATTRIBUTE
10
0
20
0
40
0.889
1
PartType
73
2
11
0
21
0
41
0.75
7
W0$127
0
TEXT
8
PART_TYPE_01
10
0
20
0
40
0.889
1
BD18IC0WHFV-GTR
73
3
11
0
21
0
41
0.75
7
W0$127
0
TEXT
8
LABEL_INFO
10
-1.79
20
-0.76
40
0.56
1
0 0 0 0 0 1
41
0.75
7
W0$1
0
TEXT
8
LABEL_ATTRIBUTE
10
-1.79
20
-0.76
40
0.56
1
Ref.Des.
41
0.75
7
W0$1
0
TEXT
8
PART_NAME_01
10
-1.79
20
-0.76
40
0.56
1
U6
41
0.75
7
W0$1
0
TEXT
8
PART_INFO
10
-1.79
20
-1.56
40
0.56
1
000000
41
0.75
7
W0$1
0
TEXT
8
PART_PTS
10
-1.79
20
-2.36
40
0.56
1
1 2 3 4 5 6 7 
41
0.75
7
W0$1
0
ENDBLK
0
BLOCK
2
PART_TOP_48
8
0
10
0
20
0
3
PART_TOP_48
70
64
0
INSERT
2
SYM_TOP_9
8
0
10
0
20
0
0
INSERT
2
PKG_7
8
0
10
0
20
0
0
TEXT
8
LABEL_INFO
10
-1.8
20
0.4999993333
40
0.56
1
0 486000000 0 0 0 1
50
270
41
0.75
7
W0$1
0
TEXT
8
LABEL_ATTRIBUTE
10
-1.8
20
0.4999993333
40
0.56
1
Ref.Des.
50
270
41
0.75
7
W0$1
0
TEXT
8
PART_NAME_01
10
-1.8
20
0.4999993333
40
0.56
1
R18
50
270
41
0.75
7
W0$1
0
TEXT
8
LABEL_INFO
10
-1.124
20
1.652
40
0.7
1
0 0 0 0 0 1
41
0.75
7
W0$1
0
TEXT
8
LABEL_ATTRIBUTE
10
-1.124
20
1.652
40
0.7
1
PartType
41
0.75
7
W0$1
0
TEXT
8
PART_TYPE_01
10
-1.124
20
1.652
40
0.7
1
R_1005
41
0.75
7
W0$1
0
TEXT
8
PART_INFO
10
-1.124
20
0.652
40
0.7
1
000010
41
0.75
7
W0$1
0
TEXT
8
PART_PTS
10
-1.124
20
-0.348
40
0.7
1
1 2 
41
0.75
7
W0$1
0
ENDBLK
0
BLOCK
2
PART_TOP_49
8
0
10
0
20
0
3
PART_TOP_49
70
64
0
INSERT
2
SYM_TOP_9
8
0
10
0
20
0
0
INSERT
2
PKG_7
8
0
10
0
20
0
0
TEXT
8
LABEL_INFO
10
-1.124
20
1.652
40
0.7
1
0 0 0 0 0 1
41
0.75
7
W0$1
0
TEXT
8
LABEL_ATTRIBUTE
10
-1.124
20
1.652
40
0.7
1
PartType
41
0.75
7
W0$1
0
TEXT
8
PART_TYPE_01
10
-1.124
20
1.652
40
0.7
1
R_1005
41
0.75
7
W0$1
0
TEXT
8
LABEL_INFO
10
1.7
20
-0.4499993333
40
0.56
1
0 162000000 0 0 0 1
50
90
41
0.75
7
W0$1
0
TEXT
8
LABEL_ATTRIBUTE
10
1.7
20
-0.4499993333
40
0.56
1
Ref.Des.
50
90
41
0.75
7
W0$1
0
TEXT
8
PART_NAME_01
10
1.7
20
-0.4499993333
40
0.56
1
R19
50
90
41
0.75
7
W0$1
0
TEXT
8
PART_INFO
10
1.7
20
-1.2499993333
40
0.56
1
000010
50
90
41
0.75
7
W0$1
0
TEXT
8
PART_PTS
10
1.7
20
-2.0499993333
40
0.56
1
1 2 
50
90
41
0.75
7
W0$1
0
ENDBLK
0
BLOCK
2
PART_TOP_50
8
0
10
0
20
0
3
PART_TOP_50
70
64
0
INSERT
2
SYM_TOP_6
8
0
10
0
20
0
0
INSERT
2
PKG_4
8
0
10
0
20
0
0
TEXT
8
LABEL_INFO
10
-8.112
20
-3.152
40
0.56
1
0 0 0 0 0 1
41
0.75
7
W0$1
0
TEXT
8
LABEL_ATTRIBUTE
10
-8.112
20
-3.152
40
0.56
1
Ref.Des.
41
0.75
7
W0$1
0
TEXT
8
PART_NAME_01
10
-8.112
20
-3.152
40
0.56
1
J1
41
0.75
7
W0$1
0
TEXT
8
PART_TYPE_TOP
10
-8.112
20
-3.952
40
0.56
1
ANT
41
0.75
7
W0$1
0
TEXT
8
PART_INFO
10
-8.112
20
-4.752
40
0.56
1
000010
41
0.75
7
W0$1
0
TEXT
8
PART_PTS
10
-8.112
20
-5.552
40
0.56
1
1 2 3 4 
41
0.75
7
W0$1
0
ENDBLK
0
BLOCK
2
PART_TOP_51
8
0
10
0
20
0
3
PART_TOP_51
70
64
0
INSERT
2
SYM_TOP_2
8
0
10
0
20
0
0
INSERT
2
PKG_0
8
0
10
0
20
0
0
TEXT
8
LABEL_INFO
10
-0.9
20
0.2999993333
40
0.56
1
0 324000000 0 0 0 1
50
180
41
0.75
7
W0$1
0
TEXT
8
LABEL_ATTRIBUTE
10
-0.9
20
0.2999993333
40
0.56
1
Ref.Des.
50
180
41
0.75
7
W0$1
0
TEXT
8
PART_NAME_01
10
-0.9
20
0.2999993333
40
0.56
1
C21
50
180
41
0.75
7
W0$1
0
TEXT
8
LABEL_INFO
10
-1.124
20
1.652
40
0.7
1
0 0 0 0 0 1
41
0.75
7
W0$1
0
TEXT
8
LABEL_ATTRIBUTE
10
-1.124
20
1.652
40
0.7
1
PartType
41
0.75
7
W0$1
0
TEXT
8
PART_TYPE_01
10
-1.124
20
1.652
40
0.7
1
C_0201
41
0.75
7
W0$1
0
TEXT
8
PART_INFO
10
-1.124
20
0.652
40
0.7
1
000000
41
0.75
7
W0$1
0
TEXT
8
PART_PTS
10
-1.124
20
-0.348
40
0.7
1
1 2 
41
0.75
7
W0$1
0
ENDBLK
0
BLOCK
2
PART_TOP_52
8
0
10
0
20
0
3
PART_TOP_52
70
64
0
INSERT
2
SYM_TOP_2
8
0
10
0
20
0
0
INSERT
2
PKG_0
8
0
10
0
20
0
0
TEXT
8
LABEL_INFO
10
0.8
20
-0.3
40
0.56
1
0 0 0 0 0 1
41
0.75
7
W0$1
0
TEXT
8
LABEL_ATTRIBUTE
10
0.8
20
-0.3
40
0.56
1
Ref.Des.
41
0.75
7
W0$1
0
TEXT
8
PART_NAME_01
10
0.8
20
-0.3
40
0.56
1
C29
41
0.75
7
W0$1
0
TEXT
8
LABEL_INFO
10
-1.124
20
1.652
40
0.7
1
0 0 0 0 0 1
41
0.75
7
W0$1
0
TEXT
8
LABEL_ATTRIBUTE
10
-1.124
20
1.652
40
0.7
1
PartType
41
0.75
7
W0$1
0
TEXT
8
PART_TYPE_01
10
-1.124
20
1.652
40
0.7
1
C_0201
41
0.75
7
W0$1
0
TEXT
8
PART_INFO
10
-1.124
20
0.652
40
0.7
1
000000
41
0.75
7
W0$1
0
TEXT
8
PART_PTS
10
-1.124
20
-0.348
40
0.7
1
1 2 
41
0.75
7
W0$1
0
ENDBLK
0
BLOCK
2
PART_TOP_53
8
0
10
0
20
0
3
PART_TOP_53
70
64
0
INSERT
2
SYM_TOP_2
8
0
10
0
20
0
0
INSERT
2
PKG_0
8
0
10
0
20
0
0
TEXT
8
LABEL_INFO
10
1.2
20
-0.2999993333
40
0.56
1
0 162000000 0 0 0 1
50
90
41
0.75
7
W0$1
0
TEXT
8
LABEL_ATTRIBUTE
10
1.2
20
-0.2999993333
40
0.56
1
Ref.Des.
50
90
41
0.75
7
W0$1
0
TEXT
8
PART_NAME_01
10
1.2
20
-0.2999993333
40
0.56
1
C4
50
90
41
0.75
7
W0$1
0
TEXT
8
LABEL_INFO
10
-1.124
20
1.652
40
0.7
1
0 0 0 0 0 1
41
0.75
7
W0$1
0
TEXT
8
LABEL_ATTRIBUTE
10
-1.124
20
1.652
40
0.7
1
PartType
41
0.75
7
W0$1
0
TEXT
8
PART_TYPE_01
10
-1.124
20
1.652
40
0.7
1
C_0201
41
0.75
7
W0$1
0
TEXT
8
PART_INFO
10
-1.124
20
0.652
40
0.7
1
000000
41
0.75
7
W0$1
0
TEXT
8
PART_PTS
10
-1.124
20
-0.348
40
0.7
1
1 2 
41
0.75
7
W0$1
0
ENDBLK
0
BLOCK
2
PART_TOP_54
8
0
10
0
20
0
3
PART_TOP_54
70
64
0
INSERT
2
SYM_TOP_2
8
0
10
0
20
0
0
INSERT
2
PKG_0
8
0
10
0
20
0
0
TEXT
8
LABEL_INFO
10
0.2999993333
20
0.4
40
0.56
1
0 162000000 0 0 0 1
50
90
41
0.75
7
W0$1
0
TEXT
8
LABEL_ATTRIBUTE
10
0.2999993333
20
0.4
40
0.56
1
Ref.Des.
50
90
41
0.75
7
W0$1
0
TEXT
8
PART_NAME_01
10
0.2999993333
20
0.4
40
0.56
1
C5
50
90
41
0.75
7
W0$1
0
TEXT
8
LABEL_INFO
10
-1.124
20
1.652
40
0.7
1
0 0 0 0 0 1
41
0.75
7
W0$1
0
TEXT
8
LABEL_ATTRIBUTE
10
-1.124
20
1.652
40
0.7
1
PartType
41
0.75
7
W0$1
0
TEXT
8
PART_TYPE_01
10
-1.124
20
1.652
40
0.7
1
C_0201
41
0.75
7
W0$1
0
TEXT
8
PART_INFO
10
-1.124
20
0.652
40
0.7
1
000000
41
0.75
7
W0$1
0
TEXT
8
PART_PTS
10
-1.124
20
-0.348
40
0.7
1
1 2 
41
0.75
7
W0$1
0
ENDBLK
0
BLOCK
2
PART_TOP_55
8
0
10
0
20
0
3
PART_TOP_55
70
64
0
INSERT
2
SYM_TOP_5
8
0
10
0
20
0
0
INSERT
2
PKG_3
8
0
10
0
20
0
0
TEXT
8
LABEL_INFO
10
1.6
20
0
40
0.56
1
0 162000000 0 0 0 1
50
90
41
0.75
7
W0$1
0
TEXT
8
LABEL_ATTRIBUTE
10
1.6
20
0
40
0.56
1
Ref.Des.
50
90
41
0.75
7
W0$1
0
TEXT
8
PART_NAME_01
10
1.6
20
0
40
0.56
1
ESD5
50
90
41
0.75
7
W0$1
0
TEXT
8
LABEL_INFO
10
-1.124
20
1.652
40
0.7
1
0 0 0 0 0 1
41
0.75
7
W0$1
0
TEXT
8
LABEL_ATTRIBUTE
10
-1.124
20
1.652
40
0.7
1
PartType
41
0.75
7
W0$1
0
TEXT
8
PART_TYPE_01
10
-1.124
20
1.652
40
0.7
1
LXES1UTBB1-157
41
0.75
7
W0$1
0
TEXT
8
PART_INFO
10
-1.124
20
0.652
40
0.7
1
000000
41
0.75
7
W0$1
0
TEXT
8
PART_PTS
10
-1.124
20
-0.348
40
0.7
1
1 2 
41
0.75
7
W0$1
0
ENDBLK
0
BLOCK
2
PART_TOP_56
8
0
10
0
20
0
3
PART_TOP_56
70
64
0
INSERT
2
SYM_TOP_9
8
0
10
0
20
0
0
INSERT
2
PKG_7
8
0
10
0
20
0
0
TEXT
8
LABEL_INFO
10
-1.124
20
1.652
40
0.7
1
0 0 0 0 0 1
41
0.75
7
W0$1
0
TEXT
8
LABEL_ATTRIBUTE
10
-1.124
20
1.652
40
0.7
1
PartType
41
0.75
7
W0$1
0
TEXT
8
PART_TYPE_01
10
-1.124
20
1.652
40
0.7
1
R_1005
41
0.75
7
W0$1
0
TEXT
8
LABEL_INFO
10
0.3999993333
20
0.6
40
0.56
1
0 162000000 0 0 0 1
50
90
41
0.75
7
W0$1
0
TEXT
8
LABEL_ATTRIBUTE
10
0.3999993333
20
0.6
40
0.56
1
Ref.Des.
50
90
41
0.75
7
W0$1
0
TEXT
8
PART_NAME_01
10
0.3999993333
20
0.6
40
0.56
1
R7
50
90
41
0.75
7
W0$1
0
TEXT
8
PART_INFO
10
0.3999993333
20
-0.2
40
0.56
1
000000
50
90
41
0.75
7
W0$1
0
TEXT
8
PART_PTS
10
0.3999993333
20
-1
40
0.56
1
1 2 
50
90
41
0.75
7
W0$1
0
ENDBLK
0
BLOCK
2
PART_TOP_57
8
0
10
0
20
0
3
PART_TOP_57
70
64
0
INSERT
2
SYM_TOP_14
8
0
10
0
20
0
0
INSERT
2
PKG_12
8
0
10
0
20
0
0
TEXT
8
LABEL_INFO
10
0.4799993333
20
1.57
40
0.56
1
0 162000000 0 0 0 1
50
90
41
0.75
7
W0$1
0
TEXT
8
LABEL_ATTRIBUTE
10
0.4799993333
20
1.57
40
0.56
1
Ref.Des.
50
90
41
0.75
7
W0$1
0
TEXT
8
PART_NAME_01
10
0.4799993333
20
1.57
40
0.56
1
U2
50
90
41
0.75
7
W0$1
0
TEXT
8
LABEL_INFO
10
-0.8
20
0.7
40
0.7
1
0 0 0 0 0 1
41
0.75
7
W0$1
0
TEXT
8
LABEL_ATTRIBUTE
10
-0.8
20
0.7
40
0.7
1
PartType
41
0.75
7
W0$1
0
TEXT
8
PART_TYPE_01
10
-0.8
20
0.7
40
0.7
1
RECE.20279.001E.01
41
0.75
7
W0$1
0
TEXT
8
PART_INFO
10
-0.8
20
-0.3
40
0.7
1
000000
41
0.75
7
W0$1
0
TEXT
8
PART_PTS
10
-0.8
20
-1.3
40
0.7
1
1 2 3 
41
0.75
7
W0$1
0
ENDBLK
0
BLOCK
2
PART_TOP_58
8
0
10
0
20
0
3
PART_TOP_58
70
64
0
INSERT
2
SYM_TOP_3
8
0
10
0
20
0
0
INSERT
2
PKG_1
8
0
10
0
20
0
0
TEXT
8
LABEL_INFO
10
-1.124
20
1.652
40
0.7
1
0 0 0 0 0 1
41
0.75
7
W0$1
0
TEXT
8
LABEL_ATTRIBUTE
10
-1.124
20
1.652
40
0.7
1
PartType
41
0.75
7
W0$1
0
TEXT
8
PART_TYPE_01
10
-1.124
20
1.652
40
0.7
1
C_1005
41
0.75
7
W0$1
0
TEXT
8
LABEL_INFO
10
-0.47
20
1.82
40
0.56
1
0 486000000 0 0 0 1
50
270
41
0.75
7
W0$1
0
TEXT
8
LABEL_ATTRIBUTE
10
-0.47
20
1.82
40
0.56
1
Ref.Des.
50
270
41
0.75
7
W0$1
0
TEXT
8
PART_NAME_01
10
-0.47
20
1.82
40
0.56
1
C30
50
270
41
0.75
7
W0$1
0
TEXT
8
PART_INFO
10
-0.47
20
1.02
40
0.56
1
000000
50
270
41
0.75
7
W0$1
0
TEXT
8
PART_PTS
10
-0.47
20
0.22
40
0.56
1
1 2 
50
270
41
0.75
7
W0$1
0
ENDBLK
0
BLOCK
2
PART_TOP_59
8
0
10
0
20
0
3
PART_TOP_59
70
64
0
INSERT
2
SYM_TOP_3
8
0
10
0
20
0
0
INSERT
2
PKG_1
8
0
10
0
20
0
0
TEXT
8
LABEL_INFO
10
-1.124
20
1.652
40
0.7
1
0 0 0 0 0 1
41
0.75
7
W0$1
0
TEXT
8
LABEL_ATTRIBUTE
10
-1.124
20
1.652
40
0.7
1
PartType
41
0.75
7
W0$1
0
TEXT
8
PART_TYPE_01
10
-1.124
20
1.652
40
0.7
1
C_1005
41
0.75
7
W0$1
0
TEXT
8
LABEL_INFO
10
-0.07
20
1.72
40
0.56
1
0 486000000 0 0 0 1
50
270
41
0.75
7
W0$1
0
TEXT
8
LABEL_ATTRIBUTE
10
-0.07
20
1.72
40
0.56
1
Ref.Des.
50
270
41
0.75
7
W0$1
0
TEXT
8
PART_NAME_01
10
-0.07
20
1.72
40
0.56
1
C31
50
270
41
0.75
7
W0$1
0
TEXT
8
PART_INFO
10
-0.07
20
0.92
40
0.56
1
000000
50
270
41
0.75
7
W0$1
0
TEXT
8
PART_PTS
10
-0.07
20
0.12
40
0.56
1
1 2 
50
270
41
0.75
7
W0$1
0
ENDBLK
0
BLOCK
2
PART_TOP_60
8
0
10
0
20
0
3
PART_TOP_60
70
64
0
INSERT
2
SYM_TOP_3
8
0
10
0
20
0
0
INSERT
2
PKG_1
8
0
10
0
20
0
0
TEXT
8
LABEL_INFO
10
-1.124
20
1.652
40
0.7
1
0 0 0 0 0 1
41
0.75
7
W0$1
0
TEXT
8
LABEL_ATTRIBUTE
10
-1.124
20
1.652
40
0.7
1
PartType
41
0.75
7
W0$1
0
TEXT
8
PART_TYPE_01
10
-1.124
20
1.652
40
0.7
1
C_1005
41
0.75
7
W0$1
0
TEXT
8
LABEL_INFO
10
1
20
0.8
40
0.56
1
0 486000000 0 0 0 1
50
270
41
0.75
7
W0$1
0
TEXT
8
LABEL_ATTRIBUTE
10
1
20
0.8
40
0.56
1
Ref.Des.
50
270
41
0.75
7
W0$1
0
TEXT
8
PART_NAME_01
10
1
20
0.8
40
0.56
1
C32
50
270
41
0.75
7
W0$1
0
TEXT
8
PART_INFO
10
1
20
0
40
0.56
1
000000
50
270
41
0.75
7
W0$1
0
TEXT
8
PART_PTS
10
1
20
-0.8
40
0.56
1
1 2 
50
270
41
0.75
7
W0$1
0
ENDBLK
0
BLOCK
2
PART_TOP_61
8
0
10
0
20
0
3
PART_TOP_61
70
64
0
INSERT
2
SYM_TOP_15
8
0
10
0
20
0
0
INSERT
2
PKG_13
8
0
10
0
20
0
0
TEXT
8
LABEL_INFO
10
0.7
20
0.4
40
0.56
1
0 486000000 0 0 0 1
50
270
41
0.75
7
W0$1
0
TEXT
8
LABEL_ATTRIBUTE
10
0.7
20
0.4
40
0.56
1
Ref.Des.
50
270
41
0.75
7
W0$1
0
TEXT
8
PART_NAME_01
10
0.7
20
0.4
40
0.56
1
U4
50
270
41
0.75
7
W0$1
0
TEXT
8
LABEL_INFO
10
0
20
0
40
0.889
1
0 0 0 2 0 1
73
2
11
0
21
0
41
0.75
7
W0$127
0
TEXT
8
LABEL_ATTRIBUTE
10
0
20
0
40
0.889
1
PartType
73
2
11
0
21
0
41
0.75
7
W0$127
0
TEXT
8
PART_TYPE_01
10
0
20
0
40
0.889
1
XMSSJR6G0BA-093
73
3
11
0
21
0
41
0.75
7
W0$127
0
TEXT
8
PART_INFO
10
0
20
-1.27
40
0.889
1
000000
73
3
11
0
21
-1.27
41
0.75
7
W0$127
0
TEXT
8
PART_PTS
10
0
20
-2.54
40
0.889
1
1 2 3 4 5 6 
73
3
11
0
21
-2.54
41
0.75
7
W0$127
0
ENDBLK
0
BLOCK
2
PART_TOP_62
8
0
10
0
20
0
3
PART_TOP_62
70
64
0
INSERT
2
SYM_TOP_2
8
0
10
0
20
0
0
INSERT
2
PKG_0
8
0
10
0
20
0
0
TEXT
8
LABEL_INFO
10
0.4699993333
20
1.12
40
0.56
1
0 324000000 0 0 0 1
50
180
41
0.75
7
W0$1
0
TEXT
8
LABEL_ATTRIBUTE
10
0.4699993333
20
1.12
40
0.56
1
Ref.Des.
50
180
41
0.75
7
W0$1
0
TEXT
8
PART_NAME_01
10
0.4699993333
20
1.12
40
0.56
1
C20
50
180
41
0.75
7
W0$1
0
TEXT
8
LABEL_INFO
10
-1.124
20
1.652
40
0.7
1
0 0 0 0 0 1
41
0.75
7
W0$1
0
TEXT
8
LABEL_ATTRIBUTE
10
-1.124
20
1.652
40
0.7
1
PartType
41
0.75
7
W0$1
0
TEXT
8
PART_TYPE_01
10
-1.124
20
1.652
40
0.7
1
C_0201
41
0.75
7
W0$1
0
TEXT
8
PART_INFO
10
-1.124
20
0.652
40
0.7
1
000000
41
0.75
7
W0$1
0
TEXT
8
PART_PTS
10
-1.124
20
-0.348
40
0.7
1
1 2 
41
0.75
7
W0$1
0
ENDBLK
0
BLOCK
2
SYM_TOP_2
8
0
10
0
20
0
3
SYM_TOP_2
70
64
0
TEXT
8
SYM_NAME
10
0
20
0
40
1.778
1
C_0201
41
0.75
0
TEXT
8
SYM_PART_NAME_01
10
-1.117
20
0.778
40
0.7
1
 
41
0.75
7
W0$1R0
0
TEXT
8
SYM_PART_TYPE_01
10
-1.124
20
1.652
40
0.7
1
 
41
0.75
7
W0$1R0
0
INSERT
2
PART_BODY_TOP_2
8
0
10
0
20
0
0
INSERT
2
STK_TOP_5
8
0
10
-0.3
20
0
0
TEXT
8
SYM_TERMINAL
10
0
20
-3.048
40
1.778
1
1
0
INSERT
2
STK_TOP_5
8
0
10
0.3
20
0
0
TEXT
8
SYM_TERMINAL
10
0
20
-6.096
40
1.778
1
2
0
ENDBLK
0
BLOCK
2
PKG_0
8
0
10
0
20
0
3
PKG_0
70
64
0
TEXT
8
PKG_INFO
10
0
20
0
40
1.778
1
*SYM:= 2
0
TEXT
8
PKG_INFO
10
0
20
-3.048
40
1.778
1
*PKG:= 0 C_0201 UND
0
TEXT
8
PKG_INFO
10
0
20
-6.096
40
1.778
1
*GATE:=0
0
TEXT
8
PKG_INFO
10
0
20
-9.144
40
1.778
1
*GATEPIN:= 0 9 1 <>
0
TEXT
8
PKG_INFO
10
0
20
-12.192
40
1.778
1
*GATEPIN:= 0 9 2 <>
0
ENDBLK
0
BLOCK
2
SYM_TOP_3
8
0
10
0
20
0
3
SYM_TOP_3
70
64
0
TEXT
8
SYM_NAME
10
0
20
0
40
1.778
1
C_1005
41
0.75
0
TEXT
8
SYM_PART_TYPE_01
10
-1.124
20
1.652
40
0.7
1
 
41
0.75
7
W0$1R0
0
TEXT
8
SYM_PART_NAME_01
10
-1.117
20
0.778
40
0.7
1
 
41
0.75
7
W0$1R0
0
INSERT
2
PART_BODY_TOP_3
8
0
10
0
20
0
0
INSERT
2
STK_TOP_6
8
0
10
-0.45
20
0
0
TEXT
8
SYM_TERMINAL
10
0
20
-3.048
40
1.778
1
1
0
INSERT
2
STK_TOP_6
8
0
10
0.45
20
0
0
TEXT
8
SYM_TERMINAL
10
0
20
-6.096
40
1.778
1
2
0
ENDBLK
0
BLOCK
2
PKG_1
8
0
10
0
20
0
3
PKG_1
70
64
0
TEXT
8
PKG_INFO
10
0
20
0
40
1.778
1
*SYM:= 3
0
TEXT
8
PKG_INFO
10
0
20
-3.048
40
1.778
1
*PKG:= 0 C_1005 UND
0
ENDBLK
0
BLOCK
2
SYM_TOP_4
8
0
10
0
20
0
3
SYM_TOP_4
70
64
0
TEXT
8
SYM_NAME
10
0
20
0
40
1.778
1
WM9364CT-ND
41
0.75
0
TEXT
8
SYM_PART_NAME_01
10
0
20
0
40
0.889
1
 
41
0.75
7
W0$127R0
0
TEXT
8
SYM_PART_TYPE_01
10
0
20
0
40
0.889
1
 
73
2
11
0
21
0
41
0.75
7
W0$127R0
0
INSERT
2
PART_BODY_TOP_4
8
0
10
0
20
0
0
INSERT
2
STK_TOP_7
8
0
10
0
20
2.755
0
TEXT
8
SYM_TERMINAL
10
0
20
-3.048
40
1.778
1
1
0
INSERT
2
STK_TOP_7
8
0
10
0
20
0.215
0
TEXT
8
SYM_TERMINAL
10
0
20
-6.096
40
1.778
1
2
0
INSERT
2
STK_TOP_7
8
0
10
0
20
-2.325
0
TEXT
8
SYM_TERMINAL
10
0
20
-9.144
40
1.778
1
3
0
INSERT
2
STK_TOP_7
8
0
10
0
20
4.025
0
TEXT
8
SYM_TERMINAL
10
0
20
-12.192
40
1.778
1
4
0
INSERT
2
STK_TOP_7
8
0
10
0
20
1.485
0
TEXT
8
SYM_TERMINAL
10
0
20
-15.24
40
1.778
1
5
0
INSERT
2
STK_TOP_7
8
0
10
0
20
-1.055
0
TEXT
8
SYM_TERMINAL
10
0
20
-18.288
40
1.778
1
6
0
INSERT
2
STK_TOP_8
8
0
10
2.17
20
-6.27
0
TEXT
8
SYM_TERMINAL
10
0
20
-21.336
40
1.778
1
7
0
INSERT
2
STK_TOP_8
8
0
10
4.17
20
-6.27
0
TEXT
8
SYM_TERMINAL
10
0
20
-24.384
40
1.778
1
8
0
INSERT
2
STK_TOP_8
8
0
10
2.17
20
6.38
0
TEXT
8
SYM_TERMINAL
10
0
20
-27.432
40
1.778
1
9
0
INSERT
2
STK_TOP_8
8
0
10
4.17
20
6.38
0
TEXT
8
SYM_TERMINAL
10
0
20
-30.48
40
1.778
1
10
0
INSERT
2
STK_TOP_9
8
0
10
13.73
20
6.105
0
TEXT
8
SYM_TERMINAL
10
0
20
-33.528
40
1.778
1
11
0
INSERT
2
STK_TOP_9
8
0
10
13.73
20
-6.105
0
TEXT
8
SYM_TERMINAL
10
0
20
-36.576
40
1.778
1
12
0
ENDBLK
0
BLOCK
2
PKG_2
8
0
10
0
20
0
3
PKG_2
70
64
0
TEXT
8
PKG_INFO
10
0
20
0
40
1.778
1
*SYM:= 4
0
TEXT
8
PKG_INFO
10
0
20
-3.048
40
1.778
1
*PKG:= 0 WM9364CT-ND UND
0
TEXT
8
PKG_INFO
10
0
20
-6.096
40
1.778
1
*GATE:=0
0
TEXT
8
PKG_INFO
10
0
20
-9.144
40
1.778
1
*GATEPIN:= 0 9 1 <>
0
TEXT
8
PKG_INFO
10
0
20
-12.192
40
1.778
1
*GATEPIN:= 0 9 2 <>
0
TEXT
8
PKG_INFO
10
0
20
-15.24
40
1.778
1
*GATEPIN:= 0 9 3 <>
0
TEXT
8
PKG_INFO
10
0
20
-18.288
40
1.778
1
*GATEPIN:= 0 9 4 <>
0
TEXT
8
PKG_INFO
10
0
20
-21.336
40
1.778
1
*GATEPIN:= 0 9 5 <>
0
TEXT
8
PKG_INFO
10
0
20
-24.384
40
1.778
1
*GATEPIN:= 0 9 6 <>
0
TEXT
8
PKG_INFO
10
0
20
-27.432
40
1.778
1
*GATEPIN:= 0 9 7 <>
0
TEXT
8
PKG_INFO
10
0
20
-30.48
40
1.778
1
*GATEPIN:= 0 9 8 <>
0
TEXT
8
PKG_INFO
10
0
20
-33.528
40
1.778
1
*GATEPIN:= 0 9 9 <>
0
TEXT
8
PKG_INFO
10
0
20
-36.576
40
1.778
1
*GATEPIN:= 0 9 10 <>
0
TEXT
8
PKG_INFO
10
0
20
-39.624
40
1.778
1
*GATEPIN:= 0 9 11 <>
0
TEXT
8
PKG_INFO
10
0
20
-42.672
40
1.778
1
*GATEPIN:= 0 9 12 <>
0
ENDBLK
0
BLOCK
2
SYM_TOP_5
8
0
10
0
20
0
3
SYM_TOP_5
70
64
0
TEXT
8
SYM_NAME
10
0
20
0
40
1.778
1
LXES1UTBB1-157
41
0.75
0
TEXT
8
SYM_PART_NAME_01
10
-1.117
20
0.778
40
0.7
1
 
41
0.75
7
W0$1R0
0
TEXT
8
SYM_PART_TYPE_01
10
-1.124
20
1.652
40
0.7
1
 
41
0.75
7
W0$1R0
0
INSERT
2
PART_BODY_TOP_5
8
0
10
0
20
0
0
INSERT
2
STK_TOP_10
8
0
10
-0.45
20
0
0
TEXT
8
SYM_TERMINAL
10
0
20
-3.048
40
1.778
1
1
0
INSERT
2
STK_TOP_10
8
0
10
0.45
20
0
0
TEXT
8
SYM_TERMINAL
10
0
20
-6.096
40
1.778
1
2
0
ENDBLK
0
BLOCK
2
PKG_3
8
0
10
0
20
0
3
PKG_3
70
64
0
TEXT
8
PKG_INFO
10
0
20
0
40
1.778
1
*SYM:= 5
0
TEXT
8
PKG_INFO
10
0
20
-3.048
40
1.778
1
*PKG:= 0 LXES1UTBB1-157 UND
0
TEXT
8
PKG_INFO
10
0
20
-6.096
40
1.778
1
*GATE:=0
0
TEXT
8
PKG_INFO
10
0
20
-9.144
40
1.778
1
*GATEPIN:= 0 9 1 <>
0
TEXT
8
PKG_INFO
10
0
20
-12.192
40
1.778
1
*GATEPIN:= 0 9 2 <>
0
ENDBLK
0
BLOCK
2
SYM_TOP_7
8
0
10
0
20
0
3
SYM_TOP_7
70
64
0
TEXT
8
SYM_NAME
10
0
20
0
40
1.778
1
2.54MM_16PIN
41
0.75
0
TEXT
8
SYM_PART_TYPE_01
10
0
20
0
40
0.889
1
 
73
2
11
0
21
0
41
0.75
7
W0$127R0
0
TEXT
8
SYM_PART_NAME_01
10
0
20
0
40
0.889
1
 
41
0.75
7
W0$127R0
0
INSERT
2
PART_BODY_TOP_7
8
0
10
0
20
0
0
INSERT
2
STK_TOP_69
8
0
10
0
20
0
0
TEXT
8
SYM_TERMINAL
10
0
20
-3.048
40
1.778
1
1
0
INSERT
2
STK_TOP_69
8
0
10
2.54
20
0
0
TEXT
8
SYM_TERMINAL
10
0
20
-6.096
40
1.778
1
2
0
INSERT
2
STK_TOP_69
8
0
10
5.08
20
0
0
TEXT
8
SYM_TERMINAL
10
0
20
-9.144
40
1.778
1
3
0
INSERT
2
STK_TOP_69
8
0
10
7.62
20
0
0
TEXT
8
SYM_TERMINAL
10
0
20
-12.192
40
1.778
1
4
0
INSERT
2
STK_TOP_69
8
0
10
10.16
20
0
0
TEXT
8
SYM_TERMINAL
10
0
20
-15.24
40
1.778
1
5
0
INSERT
2
STK_TOP_69
8
0
10
12.7
20
0
0
TEXT
8
SYM_TERMINAL
10
0
20
-18.288
40
1.778
1
6
0
INSERT
2
STK_TOP_69
8
0
10
15.24
20
0
0
TEXT
8
SYM_TERMINAL
10
0
20
-21.336
40
1.778
1
7
0
INSERT
2
STK_TOP_69
8
0
10
17.78
20
0
0
TEXT
8
SYM_TERMINAL
10
0
20
-24.384
40
1.778
1
8
0
INSERT
2
STK_TOP_69
8
0
10
20.32
20
0
0
TEXT
8
SYM_TERMINAL
10
0
20
-27.432
40
1.778
1
9
0
INSERT
2
STK_TOP_69
8
0
10
22.86
20
0
0
TEXT
8
SYM_TERMINAL
10
0
20
-30.48
40
1.778
1
10
0
INSERT
2
STK_TOP_69
8
0
10
25.4
20
0
0
TEXT
8
SYM_TERMINAL
10
0
20
-33.528
40
1.778
1
11
0
INSERT
2
STK_TOP_69
8
0
10
27.94
20
0
0
TEXT
8
SYM_TERMINAL
10
0
20
-36.576
40
1.778
1
12
0
INSERT
2
STK_TOP_69
8
0
10
30.48
20
0
0
TEXT
8
SYM_TERMINAL
10
0
20
-39.624
40
1.778
1
13
0
INSERT
2
STK_TOP_69
8
0
10
33.02
20
0
0
TEXT
8
SYM_TERMINAL
10
0
20
-42.672
40
1.778
1
14
0
INSERT
2
STK_TOP_69
8
0
10
35.56
20
0
0
TEXT
8
SYM_TERMINAL
10
0
20
-45.72
40
1.778
1
15
0
INSERT
2
STK_TOP_69
8
0
10
38.1
20
0
0
TEXT
8
SYM_TERMINAL
10
0
20
-48.768
40
1.778
1
16
0
ENDBLK
0
BLOCK
2
PKG_5
8
0
10
0
20
0
3
PKG_5
70
64
0
TEXT
8
PKG_INFO
10
0
20
0
40
1.778
1
*SYM:= 7
0
TEXT
8
PKG_INFO
10
0
20
-3.048
40
1.778
1
*PKG:= 0 2.54MM_16PIN UND
0
TEXT
8
PKG_INFO
10
0
20
-6.096
40
1.778
1
*GATE:=0
0
TEXT
8
PKG_INFO
10
0
20
-9.144
40
1.778
1
*GATEPIN:= 0 9 1 <>
0
TEXT
8
PKG_INFO
10
0
20
-12.192
40
1.778
1
*GATEPIN:= 0 9 2 <>
0
TEXT
8
PKG_INFO
10
0
20
-15.24
40
1.778
1
*GATEPIN:= 0 9 3 <>
0
TEXT
8
PKG_INFO
10
0
20
-18.288
40
1.778
1
*GATEPIN:= 0 9 4 <>
0
TEXT
8
PKG_INFO
10
0
20
-21.336
40
1.778
1
*GATEPIN:= 0 9 5 <>
0
TEXT
8
PKG_INFO
10
0
20
-24.384
40
1.778
1
*GATEPIN:= 0 9 6 <>
0
TEXT
8
PKG_INFO
10
0
20
-27.432
40
1.778
1
*GATEPIN:= 0 9 7 <>
0
TEXT
8
PKG_INFO
10
0
20
-30.48
40
1.778
1
*GATEPIN:= 0 9 8 <>
0
TEXT
8
PKG_INFO
10
0
20
-33.528
40
1.778
1
*GATEPIN:= 0 9 9 <>
0
TEXT
8
PKG_INFO
10
0
20
-36.576
40
1.778
1
*GATEPIN:= 0 9 10 <>
0
TEXT
8
PKG_INFO
10
0
20
-39.624
40
1.778
1
*GATEPIN:= 0 9 11 <>
0
TEXT
8
PKG_INFO
10
0
20
-42.672
40
1.778
1
*GATEPIN:= 0 9 12 <>
0
TEXT
8
PKG_INFO
10
0
20
-45.72
40
1.778
1
*GATEPIN:= 0 9 13 <>
0
TEXT
8
PKG_INFO
10
0
20
-48.768
40
1.778
1
*GATEPIN:= 0 9 14 <>
0
TEXT
8
PKG_INFO
10
0
20
-51.816
40
1.778
1
*GATEPIN:= 0 9 15 <>
0
TEXT
8
PKG_INFO
10
0
20
-54.864
40
1.778
1
*GATEPIN:= 0 9 16 <>
0
ENDBLK
0
BLOCK
2
SYM_TOP_8
8
0
10
0
20
0
3
SYM_TOP_8
70
64
0
TEXT
8
SYM_NAME
10
0
20
0
40
1.778
1
L_1005
41
0.75
0
TEXT
8
SYM_PART_NAME_01
10
-1.117
20
0.778
40
0.7
1
 
41
0.75
7
W0$1R0
0
TEXT
8
SYM_PART_TYPE_01
10
-1.124
20
1.652
40
0.7
1
 
41
0.75
7
W0$1R0
0
INSERT
2
PART_BODY_TOP_8
8
0
10
0
20
0
0
INSERT
2
STK_TOP_6
8
0
10
-0.45
20
0
0
TEXT
8
SYM_TERMINAL
10
0
20
-3.048
40
1.778
1
1
0
INSERT
2
STK_TOP_6
8
0
10
0.45
20
0
0
TEXT
8
SYM_TERMINAL
10
0
20
-6.096
40
1.778
1
2
0
ENDBLK
0
BLOCK
2
PKG_6
8
0
10
0
20
0
3
PKG_6
70
64
0
TEXT
8
PKG_INFO
10
0
20
0
40
1.778
1
*SYM:= 8
0
TEXT
8
PKG_INFO
10
0
20
-3.048
40
1.778
1
*PKG:= 0 L_1005 UND
0
ENDBLK
0
BLOCK
2
SYM_TOP_9
8
0
10
0
20
0
3
SYM_TOP_9
70
64
0
TEXT
8
SYM_NAME
10
0
20
0
40
1.778
1
R_1005
41
0.75
0
TEXT
8
SYM_PART_TYPE_01
10
-1.124
20
1.652
40
0.7
1
 
41
0.75
7
W0$1R0
0
TEXT
8
SYM_PART_NAME_01
10
-1.117
20
0.778
40
0.7
1
 
41
0.75
7
W0$1R0
0
INSERT
2
PART_BODY_TOP_9
8
0
10
0
20
0
0
INSERT
2
STK_TOP_6
8
0
10
-0.45
20
0
0
TEXT
8
SYM_TERMINAL
10
0
20
-3.048
40
1.778
1
1
0
INSERT
2
STK_TOP_6
8
0
10
0.45
20
0
0
TEXT
8
SYM_TERMINAL
10
0
20
-6.096
40
1.778
1
2
0
ENDBLK
0
BLOCK
2
PKG_7
8
0
10
0
20
0
3
PKG_7
70
64
0
TEXT
8
PKG_INFO
10
0
20
0
40
1.778
1
*SYM:= 9
0
TEXT
8
PKG_INFO
10
0
20
-3.048
40
1.778
1
*PKG:= 0 R_1005 UND
0
ENDBLK
0
BLOCK
2
SYM_TOP_10
8
0
10
0
20
0
3
SYM_TOP_10
70
64
0
TEXT
8
SYM_NAME
10
0
20
0
40
1.778
1
LBAD0XX1SC-DM
41
0.75
0
TEXT
8
SYM_PART_NAME_01
10
0
20
0
40
0.889
1
 
41
0.75
7
W0$127R0
0
TEXT
8
SYM_PART_TYPE_01
10
0
20
0
40
0.889
1
 
73
2
11
0
21
0
41
0.75
7
W0$127R0
0
INSERT
2
PART_BODY_TOP_10
8
0
10
0
20
0
0
INSERT
2
STK_TOP_15
8
0
10
-4.95
20
5.2
0
TEXT
8
SYM_TERMINAL
10
0
20
-3.048
40
1.778
1
1
0
INSERT
2
STK_TOP_15
8
0
10
-4.95
20
4.55
0
TEXT
8
SYM_TERMINAL
10
0
20
-6.096
40
1.778
1
2
0
INSERT
2
STK_TOP_15
8
0
10
-4.95
20
3.9
0
TEXT
8
SYM_TERMINAL
10
0
20
-9.144
40
1.778
1
3
0
INSERT
2
STK_TOP_15
8
0
10
-4.95
20
3.25
0
TEXT
8
SYM_TERMINAL
10
0
20
-12.192
40
1.778
1
4
0
INSERT
2
STK_TOP_15
8
0
10
-4.95
20
2.6
0
TEXT
8
SYM_TERMINAL
10
0
20
-15.24
40
1.778
1
5
0
INSERT
2
STK_TOP_15
8
0
10
-4.95
20
1.95
0
TEXT
8
SYM_TERMINAL
10
0
20
-18.288
40
1.778
1
6
0
INSERT
2
STK_TOP_15
8
0
10
-4.95
20
1.3
0
TEXT
8
SYM_TERMINAL
10
0
20
-21.336
40
1.778
1
7
0
INSERT
2
STK_TOP_15
8
0
10
-4.95
20
0.65
0
TEXT
8
SYM_TERMINAL
10
0
20
-24.384
40
1.778
1
8
0
INSERT
2
STK_TOP_15
8
0
10
-4.95
20
0
0
TEXT
8
SYM_TERMINAL
10
0
20
-27.432
40
1.778
1
9
0
INSERT
2
STK_TOP_15
8
0
10
-4.95
20
-0.65
0
TEXT
8
SYM_TERMINAL
10
0
20
-30.48
40
1.778
1
10
0
INSERT
2
STK_TOP_15
8
0
10
-4.95
20
-1.3
0
TEXT
8
SYM_TERMINAL
10
0
20
-33.528
40
1.778
1
11
0
INSERT
2
STK_TOP_15
8
0
10
-4.95
20
-1.95
0
TEXT
8
SYM_TERMINAL
10
0
20
-36.576
40
1.778
1
12
0
INSERT
2
STK_TOP_15
8
0
10
-4.95
20
-2.6
0
TEXT
8
SYM_TERMINAL
10
0
20
-39.624
40
1.778
1
13
0
INSERT
2
STK_TOP_15
8
0
10
-4.95
20
-3.25
0
TEXT
8
SYM_TERMINAL
10
0
20
-42.672
40
1.778
1
14
0
INSERT
2
STK_TOP_15
8
0
10
-4.95
20
-3.9
0
TEXT
8
SYM_TERMINAL
10
0
20
-45.72
40
1.778
1
15
0
INSERT
2
STK_TOP_15
8
0
10
-4.95
20
-4.55
0
TEXT
8
SYM_TERMINAL
10
0
20
-48.768
40
1.778
1
16
0
INSERT
2
STK_TOP_15
8
0
10
-4.95
20
-5.2
0
TEXT
8
SYM_TERMINAL
10
0
20
-51.816
40
1.778
1
17
0
INSERT
2
STK_TOP_16
8
0
10
-3.9
20
-5.1
0
TEXT
8
SYM_TERMINAL
10
0
20
-54.864
40
1.778
1
18
0
INSERT
2
STK_TOP_16
8
0
10
-3.25
20
-5.1
0
TEXT
8
SYM_TERMINAL
10
0
20
-57.912
40
1.778
1
19
0
INSERT
2
STK_TOP_16
8
0
10
-2.6
20
-5.1
0
TEXT
8
SYM_TERMINAL
10
0
20
-60.96
40
1.778
1
20
0
INSERT
2
STK_TOP_16
8
0
10
-1.95
20
-5.1
0
TEXT
8
SYM_TERMINAL
10
0
20
-64.008
40
1.778
1
21
0
INSERT
2
STK_TOP_16
8
0
10
-1.3
20
-5.1
0
TEXT
8
SYM_TERMINAL
10
0
20
-67.056
40
1.778
1
22
0
INSERT
2
STK_TOP_16
8
0
10
-0.65
20
-5.1
0
TEXT
8
SYM_TERMINAL
10
0
20
-70.104
40
1.778
1
23
0
INSERT
2
STK_TOP_16
8
0
10
0
20
-5.1
0
TEXT
8
SYM_TERMINAL
10
0
20
-73.152
40
1.778
1
24
0
INSERT
2
STK_TOP_16
8
0
10
0.65
20
-5.1
0
TEXT
8
SYM_TERMINAL
10
0
20
-76.2
40
1.778
1
25
0
INSERT
2
STK_TOP_16
8
0
10
1.3
20
-5.1
0
TEXT
8
SYM_TERMINAL
10
0
20
-79.248
40
1.778
1
26
0
INSERT
2
STK_TOP_16
8
0
10
1.95
20
-5.1
0
TEXT
8
SYM_TERMINAL
10
0
20
-82.296
40
1.778
1
27
0
INSERT
2
STK_TOP_16
8
0
10
2.6
20
-5.1
0
TEXT
8
SYM_TERMINAL
10
0
20
-85.344
40
1.778
1
28
0
INSERT
2
STK_TOP_16
8
0
10
3.25
20
-5.1
0
TEXT
8
SYM_TERMINAL
10
0
20
-88.392
40
1.778
1
29
0
INSERT
2
STK_TOP_16
8
0
10
3.9
20
-5.1
0
TEXT
8
SYM_TERMINAL
10
0
20
-91.44
40
1.778
1
30
0
INSERT
2
STK_TOP_15
8
0
10
4.95
20
-5.2
0
TEXT
8
SYM_TERMINAL
10
0
20
-94.488
40
1.778
1
31
0
INSERT
2
STK_TOP_15
8
0
10
4.95
20
-4.55
0
TEXT
8
SYM_TERMINAL
10
0
20
-97.536
40
1.778
1
32
0
INSERT
2
STK_TOP_15
8
0
10
4.95
20
-3.9
0
TEXT
8
SYM_TERMINAL
10
0
20
-100.584
40
1.778
1
33
0
INSERT
2
STK_TOP_15
8
0
10
4.95
20
-3.25
0
TEXT
8
SYM_TERMINAL
10
0
20
-103.632
40
1.778
1
34
0
INSERT
2
STK_TOP_15
8
0
10
4.95
20
-2.6
0
TEXT
8
SYM_TERMINAL
10
0
20
-106.68
40
1.778
1
35
0
INSERT
2
STK_TOP_15
8
0
10
4.95
20
-1.95
0
TEXT
8
SYM_TERMINAL
10
0
20
-109.728
40
1.778
1
36
0
INSERT
2
STK_TOP_15
8
0
10
4.95
20
-1.3
0
TEXT
8
SYM_TERMINAL
10
0
20
-112.776
40
1.778
1
37
0
INSERT
2
STK_TOP_15
8
0
10
4.95
20
-0.65
0
TEXT
8
SYM_TERMINAL
10
0
20
-115.824
40
1.778
1
38
0
INSERT
2
STK_TOP_15
8
0
10
4.95
20
0
0
TEXT
8
SYM_TERMINAL
10
0
20
-118.872
40
1.778
1
39
0
INSERT
2
STK_TOP_15
8
0
10
4.95
20
0.65
0
TEXT
8
SYM_TERMINAL
10
0
20
-121.92
40
1.778
1
40
0
INSERT
2
STK_TOP_15
8
0
10
4.95
20
1.3
0
TEXT
8
SYM_TERMINAL
10
0
20
-124.968
40
1.778
1
41
0
INSERT
2
STK_TOP_15
8
0
10
4.95
20
1.95
0
TEXT
8
SYM_TERMINAL
10
0
20
-128.016
40
1.778
1
42
0
INSERT
2
STK_TOP_15
8
0
10
4.95
20
2.6
0
TEXT
8
SYM_TERMINAL
10
0
20
-131.064
40
1.778
1
43
0
INSERT
2
STK_TOP_15
8
0
10
4.95
20
3.25
0
TEXT
8
SYM_TERMINAL
10
0
20
-134.112
40
1.778
1
44
0
INSERT
2
STK_TOP_15
8
0
10
4.95
20
3.9
0
TEXT
8
SYM_TERMINAL
10
0
20
-137.16
40
1.778
1
45
0
INSERT
2
STK_TOP_15
8
0
10
4.95
20
4.55
0
TEXT
8
SYM_TERMINAL
10
0
20
-140.208
40
1.778
1
46
0
INSERT
2
STK_TOP_15
8
0
10
4.95
20
5.2
0
TEXT
8
SYM_TERMINAL
10
0
20
-143.256
40
1.778
1
47
0
INSERT
2
STK_TOP_16
8
0
10
3.9
20
5.1
0
TEXT
8
SYM_TERMINAL
10
0
20
-146.304
40
1.778
1
48
0
INSERT
2
STK_TOP_16
8
0
10
3.25
20
5.1
0
TEXT
8
SYM_TERMINAL
10
0
20
-149.352
40
1.778
1
49
0
INSERT
2
STK_TOP_16
8
0
10
2.6
20
5.1
0
TEXT
8
SYM_TERMINAL
10
0
20
-152.4
40
1.778
1
50
0
INSERT
2
STK_TOP_16
8
0
10
1.95
20
5.1
0
TEXT
8
SYM_TERMINAL
10
0
20
-155.448
40
1.778
1
51
0
INSERT
2
STK_TOP_16
8
0
10
1.3
20
5.1
0
TEXT
8
SYM_TERMINAL
10
0
20
-158.496
40
1.778
1
52
0
INSERT
2
STK_TOP_16
8
0
10
0.65
20
5.1
0
TEXT
8
SYM_TERMINAL
10
0
20
-161.544
40
1.778
1
53
0
INSERT
2
STK_TOP_16
8
0
10
0
20
5.1
0
TEXT
8
SYM_TERMINAL
10
0
20
-164.592
40
1.778
1
54
0
INSERT
2
STK_TOP_16
8
0
10
-0.65
20
5.1
0
TEXT
8
SYM_TERMINAL
10
0
20
-167.64
40
1.778
1
55
0
INSERT
2
STK_TOP_16
8
0
10
-1.3
20
5.1
0
TEXT
8
SYM_TERMINAL
10
0
20
-170.688
40
1.778
1
56
0
INSERT
2
STK_TOP_16
8
0
10
-1.95
20
5.1
0
TEXT
8
SYM_TERMINAL
10
0
20
-173.736
40
1.778
1
57
0
INSERT
2
STK_TOP_16
8
0
10
-2.6
20
5.1
0
TEXT
8
SYM_TERMINAL
10
0
20
-176.784
40
1.778
1
58
0
INSERT
2
STK_TOP_16
8
0
10
-3.25
20
5.1
0
TEXT
8
SYM_TERMINAL
10
0
20
-179.832
40
1.778
1
59
0
INSERT
2
STK_TOP_16
8
0
10
-3.9
20
5.1
0
TEXT
8
SYM_TERMINAL
10
0
20
-182.88
40
1.778
1
60
0
INSERT
2
STK_TOP_15
8
0
10
-3.55
20
2.925
0
TEXT
8
SYM_TERMINAL
10
0
20
-185.928
40
1.778
1
61
0
INSERT
2
STK_TOP_15
8
0
10
-3.55
20
2.275
0
TEXT
8
SYM_TERMINAL
10
0
20
-188.976
40
1.778
1
62
0
INSERT
2
STK_TOP_15
8
0
10
-3.55
20
1.625
0
TEXT
8
SYM_TERMINAL
10
0
20
-192.024
40
1.778
1
63
0
INSERT
2
STK_TOP_15
8
0
10
-3.55
20
0.975
0
TEXT
8
SYM_TERMINAL
10
0
20
-195.072
40
1.778
1
64
0
INSERT
2
STK_TOP_15
8
0
10
-3.55
20
0.325
0
TEXT
8
SYM_TERMINAL
10
0
20
-198.12
40
1.778
1
65
0
INSERT
2
STK_TOP_15
8
0
10
-3.55
20
-0.325
0
TEXT
8
SYM_TERMINAL
10
0
20
-201.168
40
1.778
1
66
0
INSERT
2
STK_TOP_15
8
0
10
-3.55
20
-0.975
0
TEXT
8
SYM_TERMINAL
10
0
20
-204.216
40
1.778
1
67
0
INSERT
2
STK_TOP_15
8
0
10
-3.55
20
-1.625
0
TEXT
8
SYM_TERMINAL
10
0
20
-207.264
40
1.778
1
68
0
INSERT
2
STK_TOP_15
8
0
10
-3.55
20
-2.275
0
TEXT
8
SYM_TERMINAL
10
0
20
-210.312
40
1.778
1
69
0
INSERT
2
STK_TOP_15
8
0
10
-3.55
20
-2.925
0
TEXT
8
SYM_TERMINAL
10
0
20
-213.36
40
1.778
1
70
0
INSERT
2
STK_TOP_16
8
0
10
-3.9
20
-3.7
0
TEXT
8
SYM_TERMINAL
10
0
20
-216.408
40
1.778
1
71
0
INSERT
2
STK_TOP_16
8
0
10
-3.25
20
-3.7
0
TEXT
8
SYM_TERMINAL
10
0
20
-219.456
40
1.778
1
72
0
INSERT
2
STK_TOP_16
8
0
10
-2.6
20
-3.7
0
TEXT
8
SYM_TERMINAL
10
0
20
-222.504
40
1.778
1
73
0
INSERT
2
STK_TOP_16
8
0
10
-1.95
20
-3.7
0
TEXT
8
SYM_TERMINAL
10
0
20
-225.552
40
1.778
1
74
0
INSERT
2
STK_TOP_16
8
0
10
-1.3
20
-3.7
0
TEXT
8
SYM_TERMINAL
10
0
20
-228.6
40
1.778
1
75
0
INSERT
2
STK_TOP_16
8
0
10
-0.65
20
-3.7
0
TEXT
8
SYM_TERMINAL
10
0
20
-231.648
40
1.778
1
76
0
INSERT
2
STK_TOP_16
8
0
10
0
20
-3.7
0
TEXT
8
SYM_TERMINAL
10
0
20
-234.696
40
1.778
1
77
0
INSERT
2
STK_TOP_16
8
0
10
0.65
20
-3.7
0
TEXT
8
SYM_TERMINAL
10
0
20
-237.744
40
1.778
1
78
0
INSERT
2
STK_TOP_16
8
0
10
1.3
20
-3.7
0
TEXT
8
SYM_TERMINAL
10
0
20
-240.792
40
1.778
1
79
0
INSERT
2
STK_TOP_16
8
0
10
1.95
20
-3.7
0
TEXT
8
SYM_TERMINAL
10
0
20
-243.84
40
1.778
1
80
0
INSERT
2
STK_TOP_16
8
0
10
2.6
20
-3.7
0
TEXT
8
SYM_TERMINAL
10
0
20
-246.888
40
1.778
1
81
0
INSERT
2
STK_TOP_16
8
0
10
3.25
20
-3.7
0
TEXT
8
SYM_TERMINAL
10
0
20
-249.936
40
1.778
1
82
0
INSERT
2
STK_TOP_16
8
0
10
3.9
20
-3.7
0
TEXT
8
SYM_TERMINAL
10
0
20
-252.984
40
1.778
1
83
0
INSERT
2
STK_TOP_15
8
0
10
3.55
20
-2.925
0
TEXT
8
SYM_TERMINAL
10
0
20
-256.032
40
1.778
1
84
0
INSERT
2
STK_TOP_15
8
0
10
3.55
20
-2.275
0
TEXT
8
SYM_TERMINAL
10
0
20
-259.08
40
1.778
1
85
0
INSERT
2
STK_TOP_15
8
0
10
3.55
20
-1.625
0
TEXT
8
SYM_TERMINAL
10
0
20
-262.128
40
1.778
1
86
0
INSERT
2
STK_TOP_15
8
0
10
3.55
20
-0.975
0
TEXT
8
SYM_TERMINAL
10
0
20
-265.176
40
1.778
1
87
0
INSERT
2
STK_TOP_15
8
0
10
3.55
20
-0.325
0
TEXT
8
SYM_TERMINAL
10
0
20
-268.224
40
1.778
1
88
0
INSERT
2
STK_TOP_15
8
0
10
3.55
20
0.325
0
TEXT
8
SYM_TERMINAL
10
0
20
-271.272
40
1.778
1
89
0
INSERT
2
STK_TOP_15
8
0
10
3.55
20
0.975
0
TEXT
8
SYM_TERMINAL
10
0
20
-274.32
40
1.778
1
90
0
INSERT
2
STK_TOP_15
8
0
10
3.55
20
1.625
0
TEXT
8
SYM_TERMINAL
10
0
20
-277.368
40
1.778
1
91
0
INSERT
2
STK_TOP_15
8
0
10
3.55
20
2.275
0
TEXT
8
SYM_TERMINAL
10
0
20
-280.416
40
1.778
1
92
0
INSERT
2
STK_TOP_15
8
0
10
3.55
20
2.925
0
TEXT
8
SYM_TERMINAL
10
0
20
-283.464
40
1.778
1
93
0
INSERT
2
STK_TOP_16
8
0
10
3.9
20
3.7
0
TEXT
8
SYM_TERMINAL
10
0
20
-286.512
40
1.778
1
94
0
INSERT
2
STK_TOP_16
8
0
10
3.25
20
3.7
0
TEXT
8
SYM_TERMINAL
10
0
20
-289.56
40
1.778
1
95
0
INSERT
2
STK_TOP_16
8
0
10
2.6
20
3.7
0
TEXT
8
SYM_TERMINAL
10
0
20
-292.608
40
1.778
1
96
0
INSERT
2
STK_TOP_16
8
0
10
1.95
20
3.7
0
TEXT
8
SYM_TERMINAL
10
0
20
-295.656
40
1.778
1
97
0
INSERT
2
STK_TOP_16
8
0
10
1.3
20
3.7
0
TEXT
8
SYM_TERMINAL
10
0
20
-298.704
40
1.778
1
98
0
INSERT
2
STK_TOP_16
8
0
10
0.65
20
3.7
0
TEXT
8
SYM_TERMINAL
10
0
20
-301.752
40
1.778
1
99
0
INSERT
2
STK_TOP_16
8
0
10
0
20
3.7
0
TEXT
8
SYM_TERMINAL
10
0
20
-304.8
40
1.778
1
100
0
INSERT
2
STK_TOP_16
8
0
10
-0.65
20
3.7
0
TEXT
8
SYM_TERMINAL
10
0
20
-307.848
40
1.778
1
101
0
INSERT
2
STK_TOP_16
8
0
10
-1.3
20
3.7
0
TEXT
8
SYM_TERMINAL
10
0
20
-310.896
40
1.778
1
102
0
INSERT
2
STK_TOP_16
8
0
10
-1.95
20
3.7
0
TEXT
8
SYM_TERMINAL
10
0
20
-313.944
40
1.778
1
103
0
INSERT
2
STK_TOP_16
8
0
10
-2.6
20
3.7
0
TEXT
8
SYM_TERMINAL
10
0
20
-316.992
40
1.778
1
104
0
INSERT
2
STK_TOP_16
8
0
10
-3.25
20
3.7
0
TEXT
8
SYM_TERMINAL
10
0
20
-320.04
40
1.778
1
105
0
INSERT
2
STK_TOP_16
8
0
10
-3.9
20
3.7
0
TEXT
8
SYM_TERMINAL
10
0
20
-323.088
40
1.778
1
106
0
INSERT
2
STK_TOP_17
8
0
10
-1.6
20
1.63
0
TEXT
8
SYM_TERMINAL
10
0
20
-326.136
40
1.778
1
107
0
INSERT
2
STK_TOP_17
8
0
10
-1.6
20
0
0
TEXT
8
SYM_TERMINAL
10
0
20
-329.184
40
1.778
1
108
0
INSERT
2
STK_TOP_17
8
0
10
-1.6
20
-1.65
0
TEXT
8
SYM_TERMINAL
10
0
20
-332.232
40
1.778
1
109
0
INSERT
2
STK_TOP_17
8
0
10
0
20
-1.59
0
TEXT
8
SYM_TERMINAL
10
0
20
-335.28
40
1.778
1
110
0
INSERT
2
STK_TOP_17
8
0
10
1.6
20
-1.59
0
TEXT
8
SYM_TERMINAL
10
0
20
-338.328
40
1.778
1
111
0
INSERT
2
STK_TOP_17
8
0
10
1.6
20
0
0
TEXT
8
SYM_TERMINAL
10
0
20
-341.376
40
1.778
1
112
0
INSERT
2
STK_TOP_17
8
0
10
1.6
20
1.65
0
TEXT
8
SYM_TERMINAL
10
0
20
-344.424
40
1.778
1
113
0
INSERT
2
STK_TOP_17
8
0
10
0
20
1.63
0
TEXT
8
SYM_TERMINAL
10
0
20
-347.472
40
1.778
1
114
0
INSERT
2
STK_TOP_17
8
0
10
0
20
0
0
TEXT
8
SYM_TERMINAL
10
0
20
-350.52
40
1.778
1
115
0
ENDBLK
0
BLOCK
2
PKG_8
8
0
10
0
20
0
3
PKG_8
70
64
0
TEXT
8
PKG_INFO
10
0
20
0
40
1.778
1
*SYM:= 10
0
TEXT
8
PKG_INFO
10
0
20
-3.048
40
1.778
1
*PKG:= 0 LBAD0XX1SC-DM UND
0
TEXT
8
PKG_INFO
10
0
20
-6.096
40
1.778
1
*GATE:=0
0
TEXT
8
PKG_INFO
10
0
20
-9.144
40
1.778
1
*GATEPIN:= 0 9 1 <>
0
TEXT
8
PKG_INFO
10
0
20
-12.192
40
1.778
1
*GATEPIN:= 0 9 2 <>
0
TEXT
8
PKG_INFO
10
0
20
-15.24
40
1.778
1
*GATEPIN:= 0 9 3 <>
0
TEXT
8
PKG_INFO
10
0
20
-18.288
40
1.778
1
*GATEPIN:= 0 9 4 <>
0
TEXT
8
PKG_INFO
10
0
20
-21.336
40
1.778
1
*GATEPIN:= 0 9 9 <>
0
ENDBLK
0
BLOCK
2
SYM_TOP_11
8
0
10
0
20
0
3
SYM_TOP_11
70
64
0
TEXT
8
SYM_NAME
10
0
20
0
40
1.778
1
TXB0108PWR
41
0.75
0
TEXT
8
SYM_PART_TYPE_01
10
0
20
0
40
0.889
1
 
73
2
11
0
21
0
41
0.75
7
W0$127R0
0
TEXT
8
SYM_PART_NAME_01
10
0
20
0
40
0.889
1
 
41
0.75
7
W0$127R0
0
INSERT
2
PART_BODY_TOP_11
8
0
10
0
20
0
0
INSERT
2
STK_TOP_59
8
0
10
-2.8
20
2.925
0
TEXT
8
SYM_TERMINAL
10
0
20
-3.048
40
1.778
1
1
0
INSERT
2
STK_TOP_59
8
0
10
-2.8
20
2.275
0
TEXT
8
SYM_TERMINAL
10
0
20
-6.096
40
1.778
1
2
0
INSERT
2
STK_TOP_59
8
0
10
-2.8
20
1.625
0
TEXT
8
SYM_TERMINAL
10
0
20
-9.144
40
1.778
1
3
0
INSERT
2
STK_TOP_59
8
0
10
-2.8
20
0.975
0
TEXT
8
SYM_TERMINAL
10
0
20
-12.192
40
1.778
1
4
0
INSERT
2
STK_TOP_59
8
0
10
-2.8
20
0.325
0
TEXT
8
SYM_TERMINAL
10
0
20
-15.24
40
1.778
1
5
0
INSERT
2
STK_TOP_59
8
0
10
-2.8
20
-0.325
0
TEXT
8
SYM_TERMINAL
10
0
20
-18.288
40
1.778
1
6
0
INSERT
2
STK_TOP_59
8
0
10
-2.8
20
-0.975
0
TEXT
8
SYM_TERMINAL
10
0
20
-21.336
40
1.778
1
7
0
INSERT
2
STK_TOP_59
8
0
10
-2.8
20
-1.625
0
TEXT
8
SYM_TERMINAL
10
0
20
-24.384
40
1.778
1
8
0
INSERT
2
STK_TOP_59
8
0
10
-2.8
20
-2.275
0
TEXT
8
SYM_TERMINAL
10
0
20
-27.432
40
1.778
1
9
0
INSERT
2
STK_TOP_59
8
0
10
-2.8
20
-2.925
0
TEXT
8
SYM_TERMINAL
10
0
20
-30.48
40
1.778
1
10
0
INSERT
2
STK_TOP_59
8
0
10
2.8
20
-2.925
0
TEXT
8
SYM_TERMINAL
10
0
20
-33.528
40
1.778
1
11
0
INSERT
2
STK_TOP_59
8
0
10
2.8
20
-2.275
0
TEXT
8
SYM_TERMINAL
10
0
20
-36.576
40
1.778
1
12
0
INSERT
2
STK_TOP_59
8
0
10
2.8
20
-1.625
0
TEXT
8
SYM_TERMINAL
10
0
20
-39.624
40
1.778
1
13
0
INSERT
2
STK_TOP_59
8
0
10
2.8
20
-0.975
0
TEXT
8
SYM_TERMINAL
10
0
20
-42.672
40
1.778
1
14
0
INSERT
2
STK_TOP_59
8
0
10
2.8
20
-0.325
0
TEXT
8
SYM_TERMINAL
10
0
20
-45.72
40
1.778
1
15
0
INSERT
2
STK_TOP_59
8
0
10
2.8
20
0.325
0
TEXT
8
SYM_TERMINAL
10
0
20
-48.768
40
1.778
1
16
0
INSERT
2
STK_TOP_59
8
0
10
2.8
20
0.975
0
TEXT
8
SYM_TERMINAL
10
0
20
-51.816
40
1.778
1
17
0
INSERT
2
STK_TOP_59
8
0
10
2.8
20
1.625
0
TEXT
8
SYM_TERMINAL
10
0
20
-54.864
40
1.778
1
18
0
INSERT
2
STK_TOP_59
8
0
10
2.8
20
2.275
0
TEXT
8
SYM_TERMINAL
10
0
20
-57.912
40
1.778
1
19
0
INSERT
2
STK_TOP_59
8
0
10
2.8
20
2.925
0
TEXT
8
SYM_TERMINAL
10
0
20
-60.96
40
1.778
1
20
0
ENDBLK
0
BLOCK
2
PKG_9
8
0
10
0
20
0
3
PKG_9
70
64
0
TEXT
8
PKG_INFO
10
0
20
0
40
1.778
1
*SYM:= 11
0
TEXT
8
PKG_INFO
10
0
20
-3.048
40
1.778
1
*PKG:= 0 TXB0108PWR UND
0
TEXT
8
PKG_INFO
10
0
20
-6.096
40
1.778
1
*GATE:=0
0
TEXT
8
PKG_INFO
10
0
20
-9.144
40
1.778
1
*GATEPIN:= 0 9 1 <>
0
TEXT
8
PKG_INFO
10
0
20
-12.192
40
1.778
1
*GATEPIN:= 0 9 2 <>
0
TEXT
8
PKG_INFO
10
0
20
-15.24
40
1.778
1
*GATEPIN:= 0 9 3 <>
0
TEXT
8
PKG_INFO
10
0
20
-18.288
40
1.778
1
*GATEPIN:= 0 9 4 <>
0
TEXT
8
PKG_INFO
10
0
20
-21.336
40
1.778
1
*GATEPIN:= 0 9 5 <>
0
TEXT
8
PKG_INFO
10
0
20
-24.384
40
1.778
1
*GATEPIN:= 0 9 6 <>
0
TEXT
8
PKG_INFO
10
0
20
-27.432
40
1.778
1
*GATEPIN:= 0 9 7 <>
0
TEXT
8
PKG_INFO
10
0
20
-30.48
40
1.778
1
*GATEPIN:= 0 9 8 <>
0
TEXT
8
PKG_INFO
10
0
20
-33.528
40
1.778
1
*GATEPIN:= 0 9 9 <>
0
TEXT
8
PKG_INFO
10
0
20
-36.576
40
1.778
1
*GATEPIN:= 0 9 10 <>
0
TEXT
8
PKG_INFO
10
0
20
-39.624
40
1.778
1
*GATEPIN:= 0 9 11 <>
0
TEXT
8
PKG_INFO
10
0
20
-42.672
40
1.778
1
*GATEPIN:= 0 9 12 <>
0
TEXT
8
PKG_INFO
10
0
20
-45.72
40
1.778
1
*GATEPIN:= 0 9 13 <>
0
TEXT
8
PKG_INFO
10
0
20
-48.768
40
1.778
1
*GATEPIN:= 0 9 14 <>
0
TEXT
8
PKG_INFO
10
0
20
-51.816
40
1.778
1
*GATEPIN:= 0 9 15 <>
0
TEXT
8
PKG_INFO
10
0
20
-54.864
40
1.778
1
*GATEPIN:= 0 9 16 <>
0
TEXT
8
PKG_INFO
10
0
20
-57.912
40
1.778
1
*GATEPIN:= 0 9 17 <>
0
TEXT
8
PKG_INFO
10
0
20
-60.96
40
1.778
1
*GATEPIN:= 0 9 18 <>
0
TEXT
8
PKG_INFO
10
0
20
-64.008
40
1.778
1
*GATEPIN:= 0 9 19 <>
0
TEXT
8
PKG_INFO
10
0
20
-67.056
40
1.778
1
*GATEPIN:= 0 9 20 <>
0
ENDBLK
0
BLOCK
2
SYM_TOP_12
8
0
10
0
20
0
3
SYM_TOP_12
70
64
0
TEXT
8
SYM_NAME
10
0
20
0
40
1.778
1
BD33IC0WHFV-GTR
41
0.75
0
TEXT
8
SYM_PART_TYPE_01
10
0
20
0
40
0.889
1
 
73
2
11
0
21
0
41
0.75
7
W0$127R0
0
TEXT
8
SYM_PART_NAME_01
10
0
20
0
40
0.889
1
 
41
0.75
7
W0$127R0
0
INSERT
2
PART_BODY_TOP_12
8
0
10
0
20
0
0
INSERT
2
STK_TOP_61
8
0
10
-0.5
20
-1.5
0
TEXT
8
SYM_TERMINAL
10
0
20
-3.048
40
1.778
1
1
0
INSERT
2
STK_TOP_61
8
0
10
0
20
-1.5
0
TEXT
8
SYM_TERMINAL
10
0
20
-6.096
40
1.778
1
2
0
INSERT
2
STK_TOP_61
8
0
10
0.5
20
-1.5
0
TEXT
8
SYM_TERMINAL
10
0
20
-9.144
40
1.778
1
3
0
INSERT
2
STK_TOP_61
8
0
10
0.5
20
1.5
0
TEXT
8
SYM_TERMINAL
10
0
20
-12.192
40
1.778
1
4
0
INSERT
2
STK_TOP_61
8
0
10
0
20
1.5
0
TEXT
8
SYM_TERMINAL
10
0
20
-15.24
40
1.778
1
5
0
INSERT
2
STK_TOP_61
8
0
10
-0.5
20
1.5
0
TEXT
8
SYM_TERMINAL
10
0
20
-18.288
40
1.778
1
6
0
INSERT
2
STK_TOP_24
8
0
10
0
20
0
0
TEXT
8
SYM_TERMINAL
10
0
20
-21.336
40
1.778
1
7
0
ENDBLK
0
BLOCK
2
PKG_10
8
0
10
0
20
0
3
PKG_10
70
64
0
TEXT
8
PKG_INFO
10
0
20
0
40
1.778
1
*SYM:= 12
0
TEXT
8
PKG_INFO
10
0
20
-3.048
40
1.778
1
*PKG:= 0 BD33IC0WHFV-GTR UND
0
TEXT
8
PKG_INFO
10
0
20
-6.096
40
1.778
1
*GATE:=0
0
TEXT
8
PKG_INFO
10
0
20
-9.144
40
1.778
1
*GATEPIN:= 0 9 1 <>
0
TEXT
8
PKG_INFO
10
0
20
-12.192
40
1.778
1
*GATEPIN:= 0 9 2 <>
0
TEXT
8
PKG_INFO
10
0
20
-15.24
40
1.778
1
*GATEPIN:= 0 9 3 <>
0
TEXT
8
PKG_INFO
10
0
20
-18.288
40
1.778
1
*GATEPIN:= 0 9 4 <>
0
TEXT
8
PKG_INFO
10
0
20
-21.336
40
1.778
1
*GATEPIN:= 0 9 5 <>
0
TEXT
8
PKG_INFO
10
0
20
-24.384
40
1.778
1
*GATEPIN:= 0 9 6 <>
0
TEXT
8
PKG_INFO
10
0
20
-27.432
40
1.778
1
*GATEPIN:= 0 9 7 <>
0
ENDBLK
0
BLOCK
2
SYM_TOP_13
8
0
10
0
20
0
3
SYM_TOP_13
70
64
0
TEXT
8
SYM_NAME
10
0
20
0
40
1.778
1
BD18IC0WHFV-GTR
41
0.75
0
TEXT
8
SYM_PART_TYPE_01
10
0
20
0
40
0.889
1
 
73
2
11
0
21
0
41
0.75
7
W0$127R0
0
TEXT
8
SYM_PART_NAME_01
10
0
20
0
40
0.889
1
 
41
0.75
7
W0$127R0
0
INSERT
2
PART_BODY_TOP_13
8
0
10
0
20
0
0
INSERT
2
STK_TOP_61
8
0
10
-0.5
20
-1.5
0
TEXT
8
SYM_TERMINAL
10
0
20
-3.048
40
1.778
1
1
0
INSERT
2
STK_TOP_61
8
0
10
0
20
-1.5
0
TEXT
8
SYM_TERMINAL
10
0
20
-6.096
40
1.778
1
2
0
INSERT
2
STK_TOP_61
8
0
10
0.5
20
-1.5
0
TEXT
8
SYM_TERMINAL
10
0
20
-9.144
40
1.778
1
3
0
INSERT
2
STK_TOP_61
8
0
10
0.5
20
1.5
0
TEXT
8
SYM_TERMINAL
10
0
20
-12.192
40
1.778
1
4
0
INSERT
2
STK_TOP_61
8
0
10
0
20
1.5
0
TEXT
8
SYM_TERMINAL
10
0
20
-15.24
40
1.778
1
5
0
INSERT
2
STK_TOP_61
8
0
10
-0.5
20
1.5
0
TEXT
8
SYM_TERMINAL
10
0
20
-18.288
40
1.778
1
6
0
INSERT
2
STK_TOP_24
8
0
10
0
20
0
0
TEXT
8
SYM_TERMINAL
10
0
20
-21.336
40
1.778
1
7
0
ENDBLK
0
BLOCK
2
PKG_11
8
0
10
0
20
0
3
PKG_11
70
64
0
TEXT
8
PKG_INFO
10
0
20
0
40
1.778
1
*SYM:= 13
0
TEXT
8
PKG_INFO
10
0
20
-3.048
40
1.778
1
*PKG:= 0 BD18IC0WHFV-GTR UND
0
TEXT
8
PKG_INFO
10
0
20
-6.096
40
1.778
1
*GATE:=0
0
TEXT
8
PKG_INFO
10
0
20
-9.144
40
1.778
1
*GATEPIN:= 0 9 1 <>
0
TEXT
8
PKG_INFO
10
0
20
-12.192
40
1.778
1
*GATEPIN:= 0 9 2 <>
0
TEXT
8
PKG_INFO
10
0
20
-15.24
40
1.778
1
*GATEPIN:= 0 9 3 <>
0
TEXT
8
PKG_INFO
10
0
20
-18.288
40
1.778
1
*GATEPIN:= 0 9 4 <>
0
TEXT
8
PKG_INFO
10
0
20
-21.336
40
1.778
1
*GATEPIN:= 0 9 5 <>
0
TEXT
8
PKG_INFO
10
0
20
-24.384
40
1.778
1
*GATEPIN:= 0 9 6 <>
0
TEXT
8
PKG_INFO
10
0
20
-27.432
40
1.778
1
*GATEPIN:= 0 9 7 <>
0
ENDBLK
0
BLOCK
2
SYM_TOP_6
8
0
10
0
20
0
3
SYM_TOP_6
70
64
0
TEXT
8
SYM_NAME
10
0
20
0
40
1.778
1
ANT
41
0.75
0
TEXT
8
SYM_PART_NAME_01
10
0
20
0
40
0.2667
1
 
41
0.75
7
W0$0381R0
0
TEXT
8
SYM_PART_TYPE_01
10
0
20
0
40
0.2667
1
 
73
2
11
0
21
0
41
0.75
7
W0$0381R0
0
INSERT
2
PART_BODY_TOP_6
8
0
10
0
20
0
0
INSERT
2
STK_TOP_11
8
0
10
-8
20
2
0
TEXT
8
SYM_TERMINAL
10
0
20
-3.048
40
1.778
1
1
0
INSERT
2
STK_TOP_11
8
0
10
8
20
2
0
TEXT
8
SYM_TERMINAL
10
0
20
-6.096
40
1.778
1
2
0
INSERT
2
STK_TOP_11
8
0
10
-8
20
-2
0
TEXT
8
SYM_TERMINAL
10
0
20
-9.144
40
1.778
1
3
0
INSERT
2
STK_TOP_11
8
0
10
8
20
-2
0
TEXT
8
SYM_TERMINAL
10
0
20
-12.192
40
1.778
1
4
0
ENDBLK
0
BLOCK
2
PKG_4
8
0
10
0
20
0
3
PKG_4
70
64
0
TEXT
8
PKG_INFO
10
0
20
0
40
1.778
1
*SYM:= 6
0
TEXT
8
PKG_INFO
10
0
20
-3.048
40
1.778
1
*PKG:= 0 ANT UND
0
TEXT
8
PKG_INFO
10
0
20
-6.096
40
1.778
1
*GATE:=0
0
TEXT
8
PKG_INFO
10
0
20
-9.144
40
1.778
1
*GATEPIN:= 0 9 2 <>
0
TEXT
8
PKG_INFO
10
0
20
-12.192
40
1.778
1
*GATEPIN:= 0 9 1 <>
0
ENDBLK
0
BLOCK
2
SYM_TOP_14
8
0
10
0
20
0
3
SYM_TOP_14
70
64
0
TEXT
8
SYM_NAME
10
0
20
0
40
1.778
1
RECE.20279.001E.01
41
0.75
0
TEXT
8
SYM_PART_NAME_01
10
-0.9
20
-0.1
40
0.7
1
 
41
0.75
7
W0$1R0
0
TEXT
8
SYM_PART_TYPE_01
10
-0.8
20
0.7
40
0.7
1
 
41
0.75
7
W0$1R0
0
INSERT
2
PART_BODY_TOP_15
8
0
10
0
20
0
0
INSERT
2
STK_TOP_42
8
0
10
0
20
-1.55
0
TEXT
8
SYM_TERMINAL
10
0
20
-3.048
40
1.778
1
1
0
INSERT
2
STK_TOP_41
8
0
10
-1.45
20
0
0
TEXT
8
SYM_TERMINAL
10
0
20
-6.096
40
1.778
1
2
0
INSERT
2
STK_TOP_41
8
0
10
1.45
20
0
0
TEXT
8
SYM_TERMINAL
10
0
20
-9.144
40
1.778
1
3
0
ENDBLK
0
BLOCK
2
PKG_12
8
0
10
0
20
0
3
PKG_12
70
64
0
TEXT
8
PKG_INFO
10
0
20
0
40
1.778
1
*SYM:= 14
0
TEXT
8
PKG_INFO
10
0
20
-3.048
40
1.778
1
*PKG:= 0 RECE.20279.001E.01 UND
0
TEXT
8
PKG_INFO
10
0
20
-6.096
40
1.778
1
*GATE:=0
0
TEXT
8
PKG_INFO
10
0
20
-9.144
40
1.778
1
*GATEPIN:= 0 9 2 <>
0
TEXT
8
PKG_INFO
10
0
20
-12.192
40
1.778
1
*GATEPIN:= 0 9 3 <>
0
TEXT
8
PKG_INFO
10
0
20
-15.24
40
1.778
1
*GATEPIN:= 0 9 1 <>
0
ENDBLK
0
BLOCK
2
SYM_TOP_15
8
0
10
0
20
0
3
SYM_TOP_15
70
64
0
TEXT
8
SYM_NAME
10
0
20
0
40
1.778
1
XMSSJR6G0BA-093
41
0.75
0
TEXT
8
SYM_PART_NAME_01
10
0
20
0
40
0.889
1
 
41
0.75
7
W0$127R0
0
TEXT
8
SYM_PART_TYPE_01
10
0
20
0
40
0.889
1
 
73
2
11
0
21
0
41
0.75
7
W0$127R0
0
INSERT
2
PART_BODY_TOP_16
8
0
10
0
20
0
0
INSERT
2
STK_TOP_46
8
0
10
-0.4
20
-0.2
0
TEXT
8
SYM_TERMINAL
10
0
20
-3.048
40
1.778
1
1
0
INSERT
2
STK_TOP_46
8
0
10
0
20
-0.2
0
TEXT
8
SYM_TERMINAL
10
0
20
-6.096
40
1.778
1
2
0
INSERT
2
STK_TOP_46
8
0
10
0.4
20
-0.2
0
TEXT
8
SYM_TERMINAL
10
0
20
-9.144
40
1.778
1
3
0
INSERT
2
STK_TOP_46
8
0
10
0.4
20
0.2
0
TEXT
8
SYM_TERMINAL
10
0
20
-12.192
40
1.778
1
4
0
INSERT
2
STK_TOP_46
8
0
10
0
20
0.2
0
TEXT
8
SYM_TERMINAL
10
0
20
-15.24
40
1.778
1
5
0
INSERT
2
STK_TOP_46
8
0
10
-0.4
20
0.2
0
TEXT
8
SYM_TERMINAL
10
0
20
-18.288
40
1.778
1
6
0
ENDBLK
0
BLOCK
2
PKG_13
8
0
10
0
20
0
3
PKG_13
70
64
0
TEXT
8
PKG_INFO
10
0
20
0
40
1.778
1
*SYM:= 15
0
TEXT
8
PKG_INFO
10
0
20
-3.048
40
1.778
1
*PKG:= 0 XMSSJR6G0BA-093 UND
0
TEXT
8
PKG_INFO
10
0
20
-6.096
40
1.778
1
*GATE:=0
0
TEXT
8
PKG_INFO
10
0
20
-9.144
40
1.778
1
*GATEPIN:= 0 9 1 <>
0
TEXT
8
PKG_INFO
10
0
20
-12.192
40
1.778
1
*GATEPIN:= 0 9 2 <>
0
TEXT
8
PKG_INFO
10
0
20
-15.24
40
1.778
1
*GATEPIN:= 0 9 3 <>
0
TEXT
8
PKG_INFO
10
0
20
-18.288
40
1.778
1
*GATEPIN:= 0 9 4 <>
0
TEXT
8
PKG_INFO
10
0
20
-21.336
40
1.778
1
*GATEPIN:= 0 9 5 <>
0
TEXT
8
PKG_INFO
10
0
20
-24.384
40
1.778
1
*GATEPIN:= 0 9 6 <>
0
ENDBLK
0
BLOCK
2
PART_BODY_TOP_2
8
0
10
0
20
0
3
PART_BODY_TOP_2
70
64
0
POLYLINE
8
PART_TOP_2DLINE_01
66
1
40
0.1
41
0.1
70
1
0
VERTEX
8
PART_TOP_2DLINE_01
10
-0.55
20
0.25
0
VERTEX
8
PART_TOP_2DLINE_01
10
0.55
20
0.25
0
VERTEX
8
PART_TOP_2DLINE_01
10
0.55
20
-0.25
0
VERTEX
8
PART_TOP_2DLINE_01
10
-0.55
20
-0.25
0
SEQEND
0
INSERT
2
SMOOTH_0$1
8
PART_TOP_2DLINE_01
10
-0.55
20
0.25
0
INSERT
2
SMOOTH_0$1
8
PART_TOP_2DLINE_01
10
0.55
20
0.25
0
INSERT
2
SMOOTH_0$1
8
PART_TOP_2DLINE_01
10
0.55
20
-0.25
0
INSERT
2
SMOOTH_0$1
8
PART_TOP_2DLINE_01
10
-0.55
20
-0.25
0
ENDBLK
0
BLOCK
2
STK_TOP_5
8
0
10
0
20
0
3
STK_TOP_5
70
64
0
INSERT
2
DRIL_HOLE_0
8
DRIL_PLTE_THRU_01
10
0
20
0
0
INSERT
2
DRIL_HOLE_0
8
DRIL_PLTE_THRU_02
10
0
20
0
0
INSERT
2
DRIL_HOLE_0
8
DRIL_PLTE_THRU_03
10
0
20
0
0
INSERT
2
DRIL_HOLE_0
8
DRIL_PLTE_THRU_04
10
0
20
0
0
INSERT
2
PAD_0
8
PADS_INNER
10
0
20
0
0
INSERT
2
PAD_0
8
PADS_BOT
10
0
20
0
0
INSERT
2
PAD_1
8
PADS_TOP
10
0
20
0
0
ENDBLK
0
BLOCK
2
PART_BODY_TOP_3
8
0
10
0
20
0
3
PART_BODY_TOP_3
70
64
0
POLYLINE
8
PART_TOP_2DLINE_20
66
1
40
0.1
41
0.1
70
1
0
VERTEX
8
PART_TOP_2DLINE_20
10
-0.5
20
0.25
0
VERTEX
8
PART_TOP_2DLINE_20
10
0.5
20
0.25
0
VERTEX
8
PART_TOP_2DLINE_20
10
0.5
20
-0.25
0
VERTEX
8
PART_TOP_2DLINE_20
10
-0.5
20
-0.25
0
SEQEND
0
INSERT
2
SMOOTH_0$1
8
PART_TOP_2DLINE_20
10
-0.5
20
0.25
0
INSERT
2
SMOOTH_0$1
8
PART_TOP_2DLINE_20
10
0.5
20
0.25
0
INSERT
2
SMOOTH_0$1
8
PART_TOP_2DLINE_20
10
0.5
20
-0.25
0
INSERT
2
SMOOTH_0$1
8
PART_TOP_2DLINE_20
10
-0.5
20
-0.25
0
POLYLINE
8
PART_TOP_2DLINE_01
66
1
40
0.1
41
0.1
70
1
0
VERTEX
8
PART_TOP_2DLINE_01
10
-0.9
20
-0.46
0
VERTEX
8
PART_TOP_2DLINE_01
10
0.9
20
-0.46
0
VERTEX
8
PART_TOP_2DLINE_01
10
0.9
20
0.45
0
VERTEX
8
PART_TOP_2DLINE_01
10
-0.9
20
0.45
0
SEQEND
0
INSERT
2
SMOOTH_0$1
8
PART_TOP_2DLINE_01
10
-0.9
20
-0.46
0
INSERT
2
SMOOTH_0$1
8
PART_TOP_2DLINE_01
10
0.9
20
-0.46
0
INSERT
2
SMOOTH_0$1
8
PART_TOP_2DLINE_01
10
0.9
20
0.45
0
INSERT
2
SMOOTH_0$1
8
PART_TOP_2DLINE_01
10
-0.9
20
0.45
0
ENDBLK
0
BLOCK
2
STK_TOP_6
8
0
10
0
20
0
3
STK_TOP_6
70
64
0
INSERT
2
DRIL_HOLE_0
8
DRIL_PLTE_THRU_01
10
0
20
0
0
INSERT
2
DRIL_HOLE_0
8
DRIL_PLTE_THRU_02
10
0
20
0
0
INSERT
2
DRIL_HOLE_0
8
DRIL_PLTE_THRU_03
10
0
20
0
0
INSERT
2
DRIL_HOLE_0
8
DRIL_PLTE_THRU_04
10
0
20
0
0
INSERT
2
PAD_0
8
PADS_INNER
10
0
20
0
0
INSERT
2
PAD_0
8
PADS_BOT
10
0
20
0
0
INSERT
2
PAD_2
8
PADS_TOP
10
0
20
0
0
ENDBLK
0
BLOCK
2
PART_BODY_TOP_4
8
0
10
0
20
0
3
PART_BODY_TOP_4
70
64
0
POLYLINE
8
PART_TOP_COPPER_26
66
1
40
0.254
41
0.254
39
1.2
70
1
0
VERTEX
8
PART_TOP_COPPER_26
10
1.41
20
6.05
0
VERTEX
8
PART_TOP_COPPER_26
10
12.62
20
6.05
0
VERTEX
8
PART_TOP_COPPER_26
10
12.62
20
-5.8
0
VERTEX
8
PART_TOP_COPPER_26
10
1.41
20
-5.8
0
SEQEND
0
INSERT
2
SMOOTH_0$254
8
PART_TOP_COPPER_26
10
1.41
20
6.05
0
INSERT
2
SMOOTH_0$254
8
PART_TOP_COPPER_26
10
12.62
20
6.05
0
INSERT
2
SMOOTH_0$254
8
PART_TOP_COPPER_26
10
12.62
20
-5.8
0
INSERT
2
SMOOTH_0$254
8
PART_TOP_COPPER_26
10
1.41
20
-5.8
0
POLYLINE
8
PART_TOP_2DLINE_26
66
1
40
0.254
41
0.254
39
1.2
0
VERTEX
8
PART_TOP_2DLINE_26
10
-0.37
20
-2.75
0
VERTEX
8
PART_TOP_2DLINE_26
10
-0.37
20
-6.26
0
VERTEX
8
PART_TOP_2DLINE_26
10
1.37
20
-6.26
0
SEQEND
0
INSERT
2
SMOOTH_0$254
8
PART_TOP_2DLINE_26
10
-0.37
20
-2.75
0
INSERT
2
SMOOTH_0$254
8
PART_TOP_2DLINE_26
10
-0.37
20
-6.26
0
INSERT
2
SMOOTH_0$254
8
PART_TOP_2DLINE_26
10
1.37
20
-6.26
0
POLYLINE
8
PART_TOP_2DLINE_26
66
1
40
0.254
41
0.254
39
1.2
0
VERTEX
8
PART_TOP_2DLINE_26
10
-0.38
20
4.46
0
VERTEX
8
PART_TOP_2DLINE_26
10
-0.38
20
6.43
0
VERTEX
8
PART_TOP_2DLINE_26
10
1.37
20
6.43
0
SEQEND
0
INSERT
2
SMOOTH_0$254
8
PART_TOP_2DLINE_26
10
-0.38
20
4.46
0
INSERT
2
SMOOTH_0$254
8
PART_TOP_2DLINE_26
10
-0.38
20
6.43
0
INSERT
2
SMOOTH_0$254
8
PART_TOP_2DLINE_26
10
1.37
20
6.43
0
POLYLINE
8
PART_TOP_2DLINE_26
66
1
40
0.254
41
0.254
39
1.2
0
VERTEX
8
PART_TOP_2DLINE_26
10
5.01
20
6.39
0
VERTEX
8
PART_TOP_2DLINE_26
10
12.7
20
6.39
0
SEQEND
0
INSERT
2
SMOOTH_0$254
8
PART_TOP_2DLINE_26
10
5.01
20
6.39
0
INSERT
2
SMOOTH_0$254
8
PART_TOP_2DLINE_26
10
12.7
20
6.39
0
POLYLINE
8
PART_TOP_2DLINE_26
66
1
40
0.254
41
0.254
39
1.2
0
VERTEX
8
PART_TOP_2DLINE_26
10
14.85
20
6.37
0
VERTEX
8
PART_TOP_2DLINE_26
10
15.13
20
6.37
0
VERTEX
8
PART_TOP_2DLINE_26
10
15.13
20
-6.23
0
VERTEX
8
PART_TOP_2DLINE_26
10
14.74
20
-6.23
0
SEQEND
0
INSERT
2
SMOOTH_0$254
8
PART_TOP_2DLINE_26
10
14.85
20
6.37
0
INSERT
2
SMOOTH_0$254
8
PART_TOP_2DLINE_26
10
15.13
20
6.37
0
INSERT
2
SMOOTH_0$254
8
PART_TOP_2DLINE_26
10
15.13
20
-6.23
0
INSERT
2
SMOOTH_0$254
8
PART_TOP_2DLINE_26
10
14.74
20
-6.23
0
POLYLINE
8
PART_TOP_2DLINE_26
66
1
40
0.254
41
0.254
39
1.2
0
VERTEX
8
PART_TOP_2DLINE_26
10
12.78
20
-6.25
0
VERTEX
8
PART_TOP_2DLINE_26
10
4.95
20
-6.25
0
SEQEND
0
INSERT
2
SMOOTH_0$254
8
PART_TOP_2DLINE_26
10
12.78
20
-6.25
0
INSERT
2
SMOOTH_0$254
8
PART_TOP_2DLINE_26
10
4.95
20
-6.25
0
ENDBLK
0
BLOCK
2
STK_TOP_7
8
0
10
0
20
0
3
STK_TOP_7
70
64
0
INSERT
2
DRIL_HOLE_0
8
DRIL_NPLTE_THRU_01
10
0
20
0
0
INSERT
2
DRIL_HOLE_0
8
DRIL_NPLTE_THRU_02
10
0
20
0
0
INSERT
2
DRIL_HOLE_0
8
DRIL_NPLTE_THRU_03
10
0
20
0
0
INSERT
2
DRIL_HOLE_0
8
DRIL_NPLTE_THRU_04
10
0
20
0
0
INSERT
2
PAD_0
8
PADS_INNER
10
0
20
0
0
INSERT
2
PAD_0
8
PADS_BOT
10
0
20
0
0
INSERT
2
PAD_3
8
PADS_TOP
10
0
20
0
0
ENDBLK
0
BLOCK
2
STK_TOP_8
8
0
10
0
20
0
3
STK_TOP_8
70
64
0
INSERT
2
DRIL_HOLE_0
8
DRIL_NPLTE_THRU_01
10
0
20
0
0
INSERT
2
DRIL_HOLE_0
8
DRIL_NPLTE_THRU_02
10
0
20
0
0
INSERT
2
DRIL_HOLE_0
8
DRIL_NPLTE_THRU_03
10
0
20
0
0
INSERT
2
DRIL_HOLE_0
8
DRIL_NPLTE_THRU_04
10
0
20
0
0
INSERT
2
PAD_0
8
PADS_INNER
10
0
20
0
0
INSERT
2
PAD_0
8
PADS_BOT
10
0
20
0
0
INSERT
2
PAD_4
8
PADS_TOP
10
0
20
0
0
ENDBLK
0
BLOCK
2
STK_TOP_9
8
0
10
0
20
0
3
STK_TOP_9
70
64
0
INSERT
2
DRIL_HOLE_0
8
DRIL_NPLTE_THRU_01
10
0
20
0
0
INSERT
2
DRIL_HOLE_0
8
DRIL_NPLTE_THRU_02
10
0
20
0
0
INSERT
2
DRIL_HOLE_0
8
DRIL_NPLTE_THRU_03
10
0
20
0
0
INSERT
2
DRIL_HOLE_0
8
DRIL_NPLTE_THRU_04
10
0
20
0
0
INSERT
2
PAD_0
8
PADS_INNER
10
0
20
0
0
INSERT
2
PAD_0
8
PADS_BOT
10
0
20
0
0
INSERT
2
PAD_5
8
PADS_TOP
10
0
20
0
0
ENDBLK
0
BLOCK
2
PART_BODY_TOP_5
8
0
10
0
20
0
3
PART_BODY_TOP_5
70
64
0
POLYLINE
8
PART_TOP_2DLINE_01
66
1
40
0.1
41
0.1
70
1
0
VERTEX
8
PART_TOP_2DLINE_01
10
-0.9
20
0.45
0
VERTEX
8
PART_TOP_2DLINE_01
10
0.9
20
0.45
0
VERTEX
8
PART_TOP_2DLINE_01
10
0.9
20
-0.45
0
VERTEX
8
PART_TOP_2DLINE_01
10
-0.9
20
-0.45
0
SEQEND
0
INSERT
2
SMOOTH_0$1
8
PART_TOP_2DLINE_01
10
-0.9
20
0.45
0
INSERT
2
SMOOTH_0$1
8
PART_TOP_2DLINE_01
10
0.9
20
0.45
0
INSERT
2
SMOOTH_0$1
8
PART_TOP_2DLINE_01
10
0.9
20
-0.45
0
INSERT
2
SMOOTH_0$1
8
PART_TOP_2DLINE_01
10
-0.9
20
-0.45
0
ENDBLK
0
BLOCK
2
STK_TOP_10
8
0
10
0
20
0
3
STK_TOP_10
70
64
0
INSERT
2
DRIL_HOLE_0
8
DRIL_PLTE_THRU_01
10
0
20
0
0
INSERT
2
DRIL_HOLE_0
8
DRIL_PLTE_THRU_02
10
0
20
0
0
INSERT
2
DRIL_HOLE_0
8
DRIL_PLTE_THRU_03
10
0
20
0
0
INSERT
2
DRIL_HOLE_0
8
DRIL_PLTE_THRU_04
10
0
20
0
0
INSERT
2
PAD_0
8
PADS_INNER
10
0
20
0
0
INSERT
2
PAD_0
8
PADS_BOT
10
0
20
0
0
INSERT
2
PAD_6
8
PADS_TOP
10
0
20
0
0
ENDBLK
0
BLOCK
2
PART_BODY_TOP_7
8
0
10
0
20
0
3
PART_BODY_TOP_7
70
64
0
ENDBLK
0
BLOCK
2
STK_TOP_69
8
0
10
0
20
0
3
STK_TOP_69
70
64
0
INSERT
2
DRIL_HOLE_1
8
DRIL_PLTE_THRU_01
10
0
20
0
0
INSERT
2
DRIL_HOLE_1
8
DRIL_PLTE_THRU_02
10
0
20
0
0
INSERT
2
DRIL_HOLE_1
8
DRIL_PLTE_THRU_03
10
0
20
0
0
INSERT
2
DRIL_HOLE_1
8
DRIL_PLTE_THRU_04
10
0
20
0
0
INSERT
2
PAD_7
8
PADS_INNER
10
0
20
0
0
INSERT
2
PAD_8
8
PADS_BOT
10
0
20
0
50
90
0
INSERT
2
PAD_7
8
PADS_TOP
10
0
20
0
0
ENDBLK
0
BLOCK
2
PART_BODY_TOP_8
8
0
10
0
20
0
3
PART_BODY_TOP_8
70
64
0
POLYLINE
8
PART_TOP_2DLINE_01
66
1
40
0.1
41
0.1
70
1
0
VERTEX
8
PART_TOP_2DLINE_01
10
-0.9
20
-0.46
0
VERTEX
8
PART_TOP_2DLINE_01
10
0.9
20
-0.46
0
VERTEX
8
PART_TOP_2DLINE_01
10
0.9
20
0.45
0
VERTEX
8
PART_TOP_2DLINE_01
10
-0.9
20
0.45
0
SEQEND
0
INSERT
2
SMOOTH_0$1
8
PART_TOP_2DLINE_01
10
-0.9
20
-0.46
0
INSERT
2
SMOOTH_0$1
8
PART_TOP_2DLINE_01
10
0.9
20
-0.46
0
INSERT
2
SMOOTH_0$1
8
PART_TOP_2DLINE_01
10
0.9
20
0.45
0
INSERT
2
SMOOTH_0$1
8
PART_TOP_2DLINE_01
10
-0.9
20
0.45
0
ENDBLK
0
BLOCK
2
PART_BODY_TOP_9
8
0
10
0
20
0
3
PART_BODY_TOP_9
70
64
0
POLYLINE
8
PART_TOP_2DLINE_20
66
1
40
0.1
41
0.1
70
1
0
VERTEX
8
PART_TOP_2DLINE_20
10
-0.5
20
0.25
0
VERTEX
8
PART_TOP_2DLINE_20
10
0.5
20
0.25
0
VERTEX
8
PART_TOP_2DLINE_20
10
0.5
20
-0.25
0
VERTEX
8
PART_TOP_2DLINE_20
10
-0.5
20
-0.25
0
SEQEND
0
INSERT
2
SMOOTH_0$1
8
PART_TOP_2DLINE_20
10
-0.5
20
0.25
0
INSERT
2
SMOOTH_0$1
8
PART_TOP_2DLINE_20
10
0.5
20
0.25
0
INSERT
2
SMOOTH_0$1
8
PART_TOP_2DLINE_20
10
0.5
20
-0.25
0
INSERT
2
SMOOTH_0$1
8
PART_TOP_2DLINE_20
10
-0.5
20
-0.25
0
POLYLINE
8
PART_TOP_2DLINE_20
66
1
40
0.1
41
0.1
70
1
0
VERTEX
8
PART_TOP_2DLINE_20
10
-0.5
20
0.25
0
VERTEX
8
PART_TOP_2DLINE_20
10
0.5
20
0.25
0
VERTEX
8
PART_TOP_2DLINE_20
10
0.5
20
-0.25
0
VERTEX
8
PART_TOP_2DLINE_20
10
-0.5
20
-0.25
0
SEQEND
0
INSERT
2
SMOOTH_0$1
8
PART_TOP_2DLINE_20
10
-0.5
20
0.25
0
INSERT
2
SMOOTH_0$1
8
PART_TOP_2DLINE_20
10
0.5
20
0.25
0
INSERT
2
SMOOTH_0$1
8
PART_TOP_2DLINE_20
10
0.5
20
-0.25
0
INSERT
2
SMOOTH_0$1
8
PART_TOP_2DLINE_20
10
-0.5
20
-0.25
0
POLYLINE
8
PART_TOP_2DLINE_01
66
1
40
0.1
41
0.1
70
1
0
VERTEX
8
PART_TOP_2DLINE_01
10
-0.9
20
0.45
0
VERTEX
8
PART_TOP_2DLINE_01
10
0.9
20
0.45
0
VERTEX
8
PART_TOP_2DLINE_01
10
0.9
20
-0.45
0
VERTEX
8
PART_TOP_2DLINE_01
10
-0.9
20
-0.45
0
SEQEND
0
INSERT
2
SMOOTH_0$1
8
PART_TOP_2DLINE_01
10
-0.9
20
0.45
0
INSERT
2
SMOOTH_0$1
8
PART_TOP_2DLINE_01
10
0.9
20
0.45
0
INSERT
2
SMOOTH_0$1
8
PART_TOP_2DLINE_01
10
0.9
20
-0.45
0
INSERT
2
SMOOTH_0$1
8
PART_TOP_2DLINE_01
10
-0.9
20
-0.45
0
ENDBLK
0
BLOCK
2
PART_BODY_TOP_10
8
0
10
0
20
0
3
PART_BODY_TOP_10
70
64
0
POLYLINE
8
PART_TOP_2DLINE_01
66
1
40
0.1
41
0.1
70
1
0
VERTEX
8
PART_TOP_2DLINE_01
10
-5.55
20
5.7
0
VERTEX
8
PART_TOP_2DLINE_01
10
5.55
20
5.7
0
VERTEX
8
PART_TOP_2DLINE_01
10
5.55
20
-5.7
0
VERTEX
8
PART_TOP_2DLINE_01
10
-5.55
20
-5.7
0
SEQEND
0
INSERT
2
SMOOTH_0$1
8
PART_TOP_2DLINE_01
10
-5.55
20
5.7
0
INSERT
2
SMOOTH_0$1
8
PART_TOP_2DLINE_01
10
5.55
20
5.7
0
INSERT
2
SMOOTH_0$1
8
PART_TOP_2DLINE_01
10
5.55
20
-5.7
0
INSERT
2
SMOOTH_0$1
8
PART_TOP_2DLINE_01
10
-5.55
20
-5.7
0
POLYLINE
8
PART_TOP_2DLINE_01
66
1
40
0.2
41
0.2
0
VERTEX
8
PART_TOP_2DLINE_01
10
-5.56
20
5.33
0
VERTEX
8
PART_TOP_2DLINE_01
10
-5.12
20
5.77
0
VERTEX
8
PART_TOP_2DLINE_01
10
-5.6
20
5.77
0
VERTEX
8
PART_TOP_2DLINE_01
10
-5.6
20
5.33
0
SEQEND
0
INSERT
2
SMOOTH_0$2
8
PART_TOP_2DLINE_01
10
-5.56
20
5.33
0
INSERT
2
SMOOTH_0$2
8
PART_TOP_2DLINE_01
10
-5.12
20
5.77
0
INSERT
2
SMOOTH_0$2
8
PART_TOP_2DLINE_01
10
-5.6
20
5.77
0
INSERT
2
SMOOTH_0$2
8
PART_TOP_2DLINE_01
10
-5.6
20
5.33
0
ENDBLK
0
BLOCK
2
STK_TOP_15
8
0
10
0
20
0
3
STK_TOP_15
70
64
0
INSERT
2
DRIL_HOLE_0
8
DRIL_NPLTE_THRU_01
10
0
20
0
0
INSERT
2
DRIL_HOLE_0
8
DRIL_NPLTE_THRU_02
10
0
20
0
0
INSERT
2
DRIL_HOLE_0
8
DRIL_NPLTE_THRU_03
10
0
20
0
0
INSERT
2
DRIL_HOLE_0
8
DRIL_NPLTE_THRU_04
10
0
20
0
0
INSERT
2
PAD_0
8
PADS_INNER
10
0
20
0
0
INSERT
2
PAD_0
8
PADS_BOT
10
0
20
0
0
INSERT
2
PAD_9
8
PADS_TOP
10
0
20
0
0
ENDBLK
0
BLOCK
2
STK_TOP_16
8
0
10
0
20
0
3
STK_TOP_16
70
64
0
INSERT
2
DRIL_HOLE_0
8
DRIL_NPLTE_THRU_01
10
0
20
0
0
INSERT
2
DRIL_HOLE_0
8
DRIL_NPLTE_THRU_02
10
0
20
0
0
INSERT
2
DRIL_HOLE_0
8
DRIL_NPLTE_THRU_03
10
0
20
0
0
INSERT
2
DRIL_HOLE_0
8
DRIL_NPLTE_THRU_04
10
0
20
0
0
INSERT
2
PAD_0
8
PADS_INNER
10
0
20
0
0
INSERT
2
PAD_0
8
PADS_BOT
10
0
20
0
0
INSERT
2
PAD_9
8
PADS_TOP
10
0
20
0
50
90
0
ENDBLK
0
BLOCK
2
STK_TOP_17
8
0
10
0
20
0
3
STK_TOP_17
70
64
0
INSERT
2
DRIL_HOLE_0
8
DRIL_NPLTE_THRU_01
10
0
20
0
0
INSERT
2
DRIL_HOLE_0
8
DRIL_NPLTE_THRU_02
10
0
20
0
0
INSERT
2
DRIL_HOLE_0
8
DRIL_NPLTE_THRU_03
10
0
20
0
0
INSERT
2
DRIL_HOLE_0
8
DRIL_NPLTE_THRU_04
10
0
20
0
0
INSERT
2
PAD_0
8
PADS_INNER
10
0
20
0
0
INSERT
2
PAD_0
8
PADS_BOT
10
0
20
0
0
INSERT
2
PAD_10
8
PADS_TOP
10
0
20
0
0
ENDBLK
0
BLOCK
2
PART_BODY_TOP_11
8
0
10
0
20
0
3
PART_BODY_TOP_11
70
64
0
POLYLINE
8
PART_TOP_2DLINE_26
66
1
40
0.2
41
0.2
39
1.2
70
1
0
VERTEX
8
PART_TOP_2DLINE_26
10
-1.675
20
3.25
0
VERTEX
8
PART_TOP_2DLINE_26
10
-0.2093746667
20
3.25
0
VERTEX
8
PART_TOP_2DLINE_26
10
-0.2093746667
20
2.84375
0
VERTEX
8
PART_TOP_2DLINE_26
10
0.2093753333
20
2.84375
0
VERTEX
8
PART_TOP_2DLINE_26
10
0.2093753333
20
3.25
0
VERTEX
8
PART_TOP_2DLINE_26
10
1.675
20
3.25
0
VERTEX
8
PART_TOP_2DLINE_26
10
1.675
20
-3.25
0
VERTEX
8
PART_TOP_2DLINE_26
10
-1.675
20
-3.25
0
SEQEND
0
INSERT
2
SMOOTH_0$2
8
PART_TOP_2DLINE_26
10
-1.675
20
3.25
0
INSERT
2
SMOOTH_0$2
8
PART_TOP_2DLINE_26
10
-0.2093746667
20
3.25
0
INSERT
2
SMOOTH_0$2
8
PART_TOP_2DLINE_26
10
-0.2093746667
20
2.84375
0
INSERT
2
SMOOTH_0$2
8
PART_TOP_2DLINE_26
10
0.2093753333
20
2.84375
0
INSERT
2
SMOOTH_0$2
8
PART_TOP_2DLINE_26
10
0.2093753333
20
3.25
0
INSERT
2
SMOOTH_0$2
8
PART_TOP_2DLINE_26
10
1.675
20
3.25
0
INSERT
2
SMOOTH_0$2
8
PART_TOP_2DLINE_26
10
1.675
20
-3.25
0
INSERT
2
SMOOTH_0$2
8
PART_TOP_2DLINE_26
10
-1.675
20
-3.25
0
ENDBLK
0
BLOCK
2
STK_TOP_59
8
0
10
0
20
0
3
STK_TOP_59
70
64
0
INSERT
2
DRIL_HOLE_0
8
DRIL_NPLTE_THRU_01
10
0
20
0
0
INSERT
2
DRIL_HOLE_0
8
DRIL_NPLTE_THRU_02
10
0
20
0
0
INSERT
2
DRIL_HOLE_0
8
DRIL_NPLTE_THRU_03
10
0
20
0
0
INSERT
2
DRIL_HOLE_0
8
DRIL_NPLTE_THRU_04
10
0
20
0
0
INSERT
2
PAD_0
8
PADS_INNER
10
0
20
0
0
INSERT
2
PAD_0
8
PADS_BOT
10
0
20
0
0
INSERT
2
PAD_11
8
PADS_TOP
10
0
20
0
0
ENDBLK
0
BLOCK
2
PART_BODY_TOP_12
8
0
10
0
20
0
3
PART_BODY_TOP_12
70
64
0
POLYLINE
8
PART_TOP_2DLINE_26
66
1
40
0.1
41
0.1
39
1.27
0
VERTEX
8
PART_TOP_2DLINE_26
10
-0.66
20
-1.5
0
VERTEX
8
PART_TOP_2DLINE_26
10
-0.9
20
-1.5
0
VERTEX
8
PART_TOP_2DLINE_26
10
-0.9
20
1.5
0
VERTEX
8
PART_TOP_2DLINE_26
10
-0.67
20
1.5
0
SEQEND
0
INSERT
2
SMOOTH_0$1
8
PART_TOP_2DLINE_26
10
-0.66
20
-1.5
0
INSERT
2
SMOOTH_0$1
8
PART_TOP_2DLINE_26
10
-0.9
20
-1.5
0
INSERT
2
SMOOTH_0$1
8
PART_TOP_2DLINE_26
10
-0.9
20
1.5
0
INSERT
2
SMOOTH_0$1
8
PART_TOP_2DLINE_26
10
-0.67
20
1.5
0
POLYLINE
8
PART_TOP_2DLINE_26
66
1
40
0.1
41
0.1
39
1.27
0
VERTEX
8
PART_TOP_2DLINE_26
10
0.66
20
1.5
0
VERTEX
8
PART_TOP_2DLINE_26
10
0.9
20
1.5
0
VERTEX
8
PART_TOP_2DLINE_26
10
0.9
20
-1.5
0
VERTEX
8
PART_TOP_2DLINE_26
10
0.67
20
-1.5
0
SEQEND
0
INSERT
2
SMOOTH_0$1
8
PART_TOP_2DLINE_26
10
0.66
20
1.5
0
INSERT
2
SMOOTH_0$1
8
PART_TOP_2DLINE_26
10
0.9
20
1.5
0
INSERT
2
SMOOTH_0$1
8
PART_TOP_2DLINE_26
10
0.9
20
-1.5
0
INSERT
2
SMOOTH_0$1
8
PART_TOP_2DLINE_26
10
0.67
20
-1.5
0
POLYLINE
8
PART_TOP_2DLINE_26
66
1
40
0.1
41
0.1
39
1.27
70
1
0
VERTEX
8
PART_TOP_2DLINE_26
10
-0.9521953333
20
-1.63
42
1
0
VERTEX
8
PART_TOP_2DLINE_26
10
-0.7678046667
20
-1.63
42
1
0
SEQEND
0
ENDBLK
0
BLOCK
2
STK_TOP_61
8
0
10
0
20
0
3
STK_TOP_61
70
64
0
INSERT
2
DRIL_HOLE_0
8
DRIL_NPLTE_THRU_01
10
0
20
0
0
INSERT
2
DRIL_HOLE_0
8
DRIL_NPLTE_THRU_02
10
0
20
0
0
INSERT
2
DRIL_HOLE_0
8
DRIL_NPLTE_THRU_03
10
0
20
0
0
INSERT
2
DRIL_HOLE_0
8
DRIL_NPLTE_THRU_04
10
0
20
0
0
INSERT
2
PAD_0
8
PADS_INNER
10
0
20
0
0
INSERT
2
PAD_0
8
PADS_BOT
10
0
20
0
0
INSERT
2
PAD_12
8
PADS_TOP
10
0
20
0
50
90
0
ENDBLK
0
BLOCK
2
STK_TOP_24
8
0
10
0
20
0
3
STK_TOP_24
70
64
0
INSERT
2
DRIL_HOLE_0
8
DRIL_NPLTE_THRU_01
10
0
20
0
0
INSERT
2
DRIL_HOLE_0
8
DRIL_NPLTE_THRU_02
10
0
20
0
0
INSERT
2
DRIL_HOLE_0
8
DRIL_NPLTE_THRU_03
10
0
20
0
0
INSERT
2
DRIL_HOLE_0
8
DRIL_NPLTE_THRU_04
10
0
20
0
0
INSERT
2
PAD_13
8
PADS_INNER
10
0
20
0
0
INSERT
2
PAD_13
8
PADS_BOT
10
0
20
0
0
INSERT
2
PAD_14
8
PADS_TOP
10
0
20
0
50
90
0
ENDBLK
0
BLOCK
2
PART_BODY_TOP_13
8
0
10
0
20
0
3
PART_BODY_TOP_13
70
64
0
POLYLINE
8
PART_TOP_2DLINE_26
66
1
40
0.1
41
0.1
39
1.27
0
VERTEX
8
PART_TOP_2DLINE_26
10
-0.66
20
-1.5
0
VERTEX
8
PART_TOP_2DLINE_26
10
-0.9
20
-1.5
0
VERTEX
8
PART_TOP_2DLINE_26
10
-0.9
20
1.5
0
VERTEX
8
PART_TOP_2DLINE_26
10
-0.67
20
1.5
0
SEQEND
0
INSERT
2
SMOOTH_0$1
8
PART_TOP_2DLINE_26
10
-0.66
20
-1.5
0
INSERT
2
SMOOTH_0$1
8
PART_TOP_2DLINE_26
10
-0.9
20
-1.5
0
INSERT
2
SMOOTH_0$1
8
PART_TOP_2DLINE_26
10
-0.9
20
1.5
0
INSERT
2
SMOOTH_0$1
8
PART_TOP_2DLINE_26
10
-0.67
20
1.5
0
POLYLINE
8
PART_TOP_2DLINE_26
66
1
40
0.1
41
0.1
39
1.27
0
VERTEX
8
PART_TOP_2DLINE_26
10
0.66
20
1.5
0
VERTEX
8
PART_TOP_2DLINE_26
10
0.9
20
1.5
0
VERTEX
8
PART_TOP_2DLINE_26
10
0.9
20
-1.5
0
VERTEX
8
PART_TOP_2DLINE_26
10
0.67
20
-1.5
0
SEQEND
0
INSERT
2
SMOOTH_0$1
8
PART_TOP_2DLINE_26
10
0.66
20
1.5
0
INSERT
2
SMOOTH_0$1
8
PART_TOP_2DLINE_26
10
0.9
20
1.5
0
INSERT
2
SMOOTH_0$1
8
PART_TOP_2DLINE_26
10
0.9
20
-1.5
0
INSERT
2
SMOOTH_0$1
8
PART_TOP_2DLINE_26
10
0.67
20
-1.5
0
POLYLINE
8
PART_TOP_2DLINE_26
66
1
40
0.1
41
0.1
39
1.27
70
1
0
VERTEX
8
PART_TOP_2DLINE_26
10
-0.9521953333
20
-1.63
42
1
0
VERTEX
8
PART_TOP_2DLINE_26
10
-0.7678046667
20
-1.63
42
1
0
SEQEND
0
ENDBLK
0
BLOCK
2
PART_BODY_TOP_6
8
0
10
0
20
0
3
PART_BODY_TOP_6
70
64
0
ENDBLK
0
BLOCK
2
STK_TOP_11
8
0
10
0
20
0
3
STK_TOP_11
70
64
0
INSERT
2
DRIL_HOLE_0
8
DRIL_PLTE_THRU_01
10
0
20
0
0
INSERT
2
DRIL_HOLE_0
8
DRIL_PLTE_THRU_02
10
0
20
0
0
INSERT
2
DRIL_HOLE_0
8
DRIL_PLTE_THRU_03
10
0
20
0
0
INSERT
2
DRIL_HOLE_0
8
DRIL_PLTE_THRU_04
10
0
20
0
0
INSERT
2
PAD_13
8
PADS_INNER
10
0
20
0
0
INSERT
2
PAD_13
8
PADS_BOT
10
0
20
0
0
INSERT
2
PAD_15
8
PADS_TOP
10
0
20
0
0
ENDBLK
0
BLOCK
2
PART_BODY_TOP_15
8
0
10
0
20
0
3
PART_BODY_TOP_15
70
64
0
POLYLINE
8
PART_TOP_2DLINE_26
66
1
40
0.1
41
0.1
0
VERTEX
8
PART_TOP_2DLINE_26
10
-1.5
20
1.1
0
VERTEX
8
PART_TOP_2DLINE_26
10
-1.5
20
1.3
0
VERTEX
8
PART_TOP_2DLINE_26
10
1.5
20
1.3
0
VERTEX
8
PART_TOP_2DLINE_26
10
1.5
20
1.1
0
SEQEND
0
INSERT
2
SMOOTH_0$1
8
PART_TOP_2DLINE_26
10
-1.5
20
1.1
0
INSERT
2
SMOOTH_0$1
8
PART_TOP_2DLINE_26
10
-1.5
20
1.3
0
INSERT
2
SMOOTH_0$1
8
PART_TOP_2DLINE_26
10
1.5
20
1.3
0
INSERT
2
SMOOTH_0$1
8
PART_TOP_2DLINE_26
10
1.5
20
1.1
0
POLYLINE
8
PART_TOP_2DLINE_26
66
1
40
0.1
41
0.1
0
VERTEX
8
PART_TOP_2DLINE_26
10
-1.5
20
-1.1
0
VERTEX
8
PART_TOP_2DLINE_26
10
-1.5
20
-1.3
0
VERTEX
8
PART_TOP_2DLINE_26
10
-0.6
20
-1.3
0
SEQEND
0
INSERT
2
SMOOTH_0$1
8
PART_TOP_2DLINE_26
10
-1.5
20
-1.1
0
INSERT
2
SMOOTH_0$1
8
PART_TOP_2DLINE_26
10
-1.5
20
-1.3
0
INSERT
2
SMOOTH_0$1
8
PART_TOP_2DLINE_26
10
-0.6
20
-1.3
0
POLYLINE
8
PART_TOP_2DLINE_26
66
1
40
0.1
41
0.1
0
VERTEX
8
PART_TOP_2DLINE_26
10
0.5
20
-1.3
0
VERTEX
8
PART_TOP_2DLINE_26
10
1.5
20
-1.3
0
VERTEX
8
PART_TOP_2DLINE_26
10
1.5
20
-1.1
0
SEQEND
0
INSERT
2
SMOOTH_0$1
8
PART_TOP_2DLINE_26
10
0.5
20
-1.3
0
INSERT
2
SMOOTH_0$1
8
PART_TOP_2DLINE_26
10
1.5
20
-1.3
0
INSERT
2
SMOOTH_0$1
8
PART_TOP_2DLINE_26
10
1.5
20
-1.1
0
ENDBLK
0
BLOCK
2
STK_TOP_42
8
0
10
0
20
0
3
STK_TOP_42
70
64
0
INSERT
2
DRIL_HOLE_0
8
DRIL_PLTE_THRU_01
10
0
20
0
0
INSERT
2
DRIL_HOLE_0
8
DRIL_PLTE_THRU_02
10
0
20
0
0
INSERT
2
DRIL_HOLE_0
8
DRIL_PLTE_THRU_03
10
0
20
0
0
INSERT
2
DRIL_HOLE_0
8
DRIL_PLTE_THRU_04
10
0
20
0
0
INSERT
2
PAD_0
8
PADS_INNER
10
0
20
0
0
INSERT
2
PAD_0
8
PADS_BOT
10
0
20
0
0
INSERT
2
PAD_16
8
PADS_TOP
10
0
20
0
50
90
0
ENDBLK
0
BLOCK
2
STK_TOP_41
8
0
10
0
20
0
3
STK_TOP_41
70
64
0
INSERT
2
DRIL_HOLE_0
8
DRIL_PLTE_THRU_01
10
0
20
0
0
INSERT
2
DRIL_HOLE_0
8
DRIL_PLTE_THRU_02
10
0
20
0
0
INSERT
2
DRIL_HOLE_0
8
DRIL_PLTE_THRU_03
10
0
20
0
0
INSERT
2
DRIL_HOLE_0
8
DRIL_PLTE_THRU_04
10
0
20
0
0
INSERT
2
PAD_0
8
PADS_INNER
10
0
20
0
0
INSERT
2
PAD_0
8
PADS_BOT
10
0
20
0
0
INSERT
2
PAD_17
8
PADS_TOP
10
0
20
0
50
90
0
ENDBLK
0
BLOCK
2
PART_BODY_TOP_16
8
0
10
0
20
0
3
PART_BODY_TOP_16
70
64
0
POLYLINE
8
PART_TOP_2DLINE_26
66
1
40
0.1
41
0.1
39
1.27
70
1
0
VERTEX
8
PART_TOP_2DLINE_26
10
-0.55
20
0.35
0
VERTEX
8
PART_TOP_2DLINE_26
10
0.55
20
0.35
0
VERTEX
8
PART_TOP_2DLINE_26
10
0.55
20
-0.35
0
VERTEX
8
PART_TOP_2DLINE_26
10
-0.55
20
-0.35
0
SEQEND
0
INSERT
2
SMOOTH_0$1
8
PART_TOP_2DLINE_26
10
-0.55
20
0.35
0
INSERT
2
SMOOTH_0$1
8
PART_TOP_2DLINE_26
10
0.55
20
0.35
0
INSERT
2
SMOOTH_0$1
8
PART_TOP_2DLINE_26
10
0.55
20
-0.35
0
INSERT
2
SMOOTH_0$1
8
PART_TOP_2DLINE_26
10
-0.55
20
-0.35
0
POLYLINE
8
PART_TOP_2DLINE_26
66
1
40
0.1
41
0.1
39
1.27
70
1
0
VERTEX
8
PART_TOP_2DLINE_26
10
-0.5
20
-0.5
42
1
0
VERTEX
8
PART_TOP_2DLINE_26
10
-0.3
20
-0.5
42
1
0
SEQEND
0
ENDBLK
0
BLOCK
2
STK_TOP_46
8
0
10
0
20
0
3
STK_TOP_46
70
64
0
INSERT
2
DRIL_HOLE_0
8
DRIL_NPLTE_THRU_01
10
0
20
0
0
INSERT
2
DRIL_HOLE_0
8
DRIL_NPLTE_THRU_02
10
0
20
0
0
INSERT
2
DRIL_HOLE_0
8
DRIL_NPLTE_THRU_03
10
0
20
0
0
INSERT
2
DRIL_HOLE_0
8
DRIL_NPLTE_THRU_04
10
0
20
0
0
INSERT
2
PAD_0
8
PADS_INNER
10
0
20
0
0
INSERT
2
PAD_0
8
PADS_BOT
10
0
20
0
0
INSERT
2
PAD_18
8
PADS_TOP
10
0
20
0
0
ENDBLK
999
*** POWERPCB  PCB PARAMETER ***
0
BLOCK
2
PCB_PARAMS
8
0
10
0
20
0
3
PCB_PARAMS
70
64
999
 *  1.Job name           2.Backupfile name       3.CursorType
999
 *  4.TearDropFlag       5.HighlighNetsFlag      6.HatchDisplayFlag
999
 *  7.PadsFlag           8.TracksFlag            9.ViasFlag
999
 * 10.CopperFlag        11.LinesFlag            12.TextFlag
999
 * 13.TopComponentFlag  14.BottomComponentFlag  16.ObjectSnapFlags
0
TEXT
8
PCB_PARAMS
10
0
20
-3.048
40
1.778
1
A:=PCB1.pcb <> 3 1 1 1 1 1 1 1 1 1 1 1 0 510 0
999
 *  1.RefDesHeight       2.RefDesWidth           3.DefaultWidth
999
 *  4.VGX                5.VGY                   6.OVR
999
 *  7.HatchGrid          8.ObjectSnapRadius
0
TEXT
8
PCB_PARAMS
10
0
20
-6.096
40
1.778
1
B:=2.54 0.254 1 0.1 0.1 0 0.1 0.01
999
 *  1.ScaleFactor        2.NetAttributeFlags     3.BackupInterval
999
 *  4.WorkingLevel       5.HatchMode             6.HatchDirection
999
 *  7.ConnectionColor    8.BackgroundColor       9.ForegroundColor
999
 * 10.BoardOutlineColor
0
TEXT
8
PCB_PARAMS
10
0
20
-9.144
40
1.778
1
C:=1.2590274811 10002 20 1 0 0 15 0 8 8
999
 * MitreAngle0 - MitreAngle6
0
TEXT
8
PCB_PARAMS
10
0
20
-12.192
40
1.778
1
D:=324000000 324000000 324000000 324000000 324000000 324000000 324000000
999
 * Hatch & Keepout Parameters
0
TEXT
8
PCB_PARAMS
10
0
20
-15.24
40
1.778
1
E:=0.5 0 0 2.54 2 1
999
 * Fanout Parameters
0
TEXT
8
PCB_PARAMS
10
0
20
-18.288
40
1.778
1
F:=0.635 0.635 6.35 1 2 0 1 1 0 0 1 1 1 1
999
 * Pad Entry Parameters
0
TEXT
8
PCB_PARAMS
10
0
20
-21.336
40
1.778
1
P:= 1 1 1 1
999
 * DFF Parameters
0
TEXT
8
PCB_PARAMS
10
0
20
-24.384
40
1.778
1
Q:=89.9999 3967 114300 114300 114300 5 4 114300 114300 114300 114300 1 114300 1 114300 1 114300 0
0
ENDBLK
0
BLOCK
2
DRIL_SYMBOL_0
8
0
10
0
20
0
3
DRIL_SYMBOL_0
70
64
0
ENDBLK
0
BLOCK
2
DRIL_SYMBOL_1
8
0
10
0
20
0
3
DRIL_SYMBOL_1
70
64
0
POLYLINE
8
DRIL_SYMBOL
66
1
40
0.0508
41
0.0508
0
VERTEX
8
DRIL_SYMBOL
10
0
20
-0.254
0
VERTEX
8
DRIL_SYMBOL
10
0
20
0.254
0
SEQEND
0
POLYLINE
8
DRIL_SYMBOL
66
1
40
0.0508
41
0.0508
0
VERTEX
8
DRIL_SYMBOL
10
-0.254
20
0
0
VERTEX
8
DRIL_SYMBOL
10
0.254
20
0
0
SEQEND
0
ENDBLK
999
*** POWERPCB  SMOOTH CIRCLE ***
0
BLOCK
2
SMOOTH_0$1
8
0
10
0
20
0
3
SMOOTH_0$1
70
64
0
POLYLINE
8
0
66
1
40
0.05
41
0.05
70
1
0
VERTEX
8
0
10
-0.025
20
0
42
1
0
VERTEX
8
0
10
0.025
20
0
42
1
0
SEQEND
0
ENDBLK
0
BLOCK
2
SMOOTH_0$254
8
0
10
0
20
0
3
SMOOTH_0$254
70
64
0
POLYLINE
8
0
66
1
40
0.127
41
0.127
70
1
0
VERTEX
8
0
10
-0.0635
20
0
42
1
0
VERTEX
8
0
10
0.0635
20
0
42
1
0
SEQEND
0
ENDBLK
0
BLOCK
2
SMOOTH_0$2
8
0
10
0
20
0
3
SMOOTH_0$2
70
64
0
POLYLINE
8
0
66
1
40
0.1
41
0.1
70
1
0
VERTEX
8
0
10
-0.05
20
0
42
1
0
VERTEX
8
0
10
0.05
20
0
42
1
0
SEQEND
0
ENDBLK
0
BLOCK
2
PAD_0
8
0
10
0
20
0
3
PAD_0
70
64
0
POLYLINE
8
0
70
1
66
1
0
VERTEX
8
0
10
0
20
0
42
1
0
VERTEX
8
0
10
0
20
0
42
1
0
SEQEND
0
ENDBLK
0
BLOCK
2
PAD_1
8
0
10
0
20
0
3
PAD_1
70
64
0
POLYLINE
8
0
66
1
40
0.3
41
0.3
0
VERTEX
8
0
10
-0.15
20
0
0
VERTEX
8
0
10
0.15
20
0
0
SEQEND
0
ENDBLK
0
BLOCK
2
PAD_2
8
0
10
0
20
0
3
PAD_2
70
64
0
POLYLINE
8
0
66
1
40
0.5
41
0.5
0
VERTEX
8
0
10
-0.25
20
0
0
VERTEX
8
0
10
0.25
20
0
0
SEQEND
0
ENDBLK
0
BLOCK
2
PAD_3
8
0
10
0
20
0
3
PAD_3
70
64
0
POLYLINE
8
0
66
1
40
0.65
41
0.65
0
VERTEX
8
0
10
-0.575
20
0
0
VERTEX
8
0
10
0.575
20
0
0
SEQEND
0
ENDBLK
0
BLOCK
2
PAD_4
8
0
10
0
20
0
3
PAD_4
70
64
0
POLYLINE
8
0
66
1
40
0.45
41
0.45
0
VERTEX
8
0
10
-0.65
20
0
0
VERTEX
8
0
10
0.65
20
0
0
SEQEND
0
ENDBLK
0
BLOCK
2
PAD_5
8
0
10
0
20
0
3
PAD_5
70
64
0
POLYLINE
8
0
66
1
40
1.4
41
1.4
0
VERTEX
8
0
10
-0.85
20
0
0
VERTEX
8
0
10
0.85
20
0
0
SEQEND
0
ENDBLK
0
BLOCK
2
PAD_6
8
0
10
0
20
0
3
PAD_6
70
64
0
POLYLINE
8
0
66
1
40
0.55
41
0.55
0
VERTEX
8
0
10
-0.275
20
0
0
VERTEX
8
0
10
0.275
20
0
0
SEQEND
0
ENDBLK
0
BLOCK
2
PAD_7
8
0
10
0
20
0
3
PAD_7
70
64
0
POLYLINE
8
0
66
1
40
1.4
41
1.4
0
VERTEX
8
0
10
-0.7
20
0
0
VERTEX
8
0
10
0.7
20
0
0
SEQEND
0
ENDBLK
0
BLOCK
2
PAD_8
8
0
10
0
20
0
3
PAD_8
70
64
0
POLYLINE
8
0
66
1
40
1.4
41
1.4
0
VERTEX
8
0
10
-1.2
20
0
0
VERTEX
8
0
10
1.2
20
0
0
SEQEND
0
ENDBLK
0
BLOCK
2
PAD_9
8
0
10
0
20
0
3
PAD_9
70
64
0
POLYLINE
8
0
66
1
40
0.3
41
0.3
0
VERTEX
8
0
10
-0.3
20
0
0
VERTEX
8
0
10
0.3
20
0
0
SEQEND
0
ENDBLK
0
BLOCK
2
PAD_10
8
0
10
0
20
0
3
PAD_10
70
64
0
POLYLINE
8
0
66
1
40
0.8
41
0.8
0
VERTEX
8
0
10
-0.4
20
0
0
VERTEX
8
0
10
0.4
20
0
0
SEQEND
0
ENDBLK
0
BLOCK
2
PAD_11
8
0
10
0
20
0
3
PAD_11
70
64
0
POLYLINE
8
0
66
1
40
0.35
41
0.35
0
VERTEX
8
0
10
-0.775
20
0
0
VERTEX
8
0
10
0.775
20
0
0
SEQEND
0
ENDBLK
0
BLOCK
2
PAD_12
8
0
10
0
20
0
3
PAD_12
70
64
0
POLYLINE
8
0
66
1
40
0.3
41
0.3
0
VERTEX
8
0
10
-0.25
20
0
0
VERTEX
8
0
10
0.25
20
0
0
SEQEND
0
ENDBLK
0
BLOCK
2
PAD_13
8
0
10
0
20
0
3
PAD_13
70
64
0
POLYLINE
8
0
66
1
0
VERTEX
8
0
10
0
20
0
0
VERTEX
8
0
10
0
20
0
0
SEQEND
0
ENDBLK
0
BLOCK
2
PAD_14
8
0
10
0
20
0
3
PAD_14
70
64
0
POLYLINE
8
0
66
1
40
1.2
41
1.2
0
VERTEX
8
0
10
-0.75
20
0
0
VERTEX
8
0
10
0.75
20
0
0
SEQEND
0
ENDBLK
0
BLOCK
2
PAD_15
8
0
10
0
20
0
3
PAD_15
70
64
0
POLYLINE
8
0
66
1
40
1.2
41
1.2
0
VERTEX
8
0
10
-1.1
20
0
0
VERTEX
8
0
10
1.1
20
0
0
SEQEND
0
ENDBLK
0
BLOCK
2
PAD_16
8
0
10
0
20
0
3
PAD_16
70
64
0
POLYLINE
8
0
66
1
40
1
41
1
0
VERTEX
8
0
10
-0.55
20
0
0
VERTEX
8
0
10
0.55
20
0
0
SEQEND
0
ENDBLK
0
BLOCK
2
PAD_17
8
0
10
0
20
0
3
PAD_17
70
64
0
POLYLINE
8
0
66
1
40
1.05
41
1.05
0
VERTEX
8
0
10
-1.1
20
0
0
VERTEX
8
0
10
1.1
20
0
0
SEQEND
0
ENDBLK
0
BLOCK
2
PAD_18
8
0
10
0
20
0
3
PAD_18
70
64
0
POLYLINE
8
0
70
1
66
1
40
0.1
41
0.1
0
VERTEX
8
0
10
0
20
-0.05
42
1
0
VERTEX
8
0
10
0
20
0.05
42
1
0
SEQEND
0
ENDBLK
999
*** POWERPCB  DRILL HOLE ***
0
BLOCK
2
DRIL_HOLE_0
8
0
10
0
20
0
3
DRIL_HOLE_0
70
64
0
POLYLINE
8
0
66
1
70
1
0
VERTEX
8
0
10
0
20
0
42
1
0
VERTEX
8
0
10
0
20
0
42
1
0
SEQEND
0
INSERT
2
DRIL_SYMBOL_0
8
0
10
0
20
0
0
ENDBLK
0
BLOCK
2
DRIL_HOLE_1
8
0
10
0
20
0
3
DRIL_HOLE_1
70
64
0
POLYLINE
8
0
66
1
40
0.5
41
0.5
70
1
0
VERTEX
8
0
10
-0.25
20
0
42
1
0
VERTEX
8
0
10
0.25
20
0
42
1
0
SEQEND
0
INSERT
2
DRIL_SYMBOL_1
8
0
10
0
20
0
0
ENDBLK
0
ENDSEC
0
SECTION
2
ENTITIES
999
*** POWERPCB  DBLAYER ***
0
INSERT
2
DBLAYERS
8
0
10
0
20
0
999
*** POWERPCB  BOARD ***
0
INSERT
2
BOARD_1
8
0
10
-0.35
20
42.3
999
*** POWERPCB  2DLINE ***
999
*** POWERPCB  COMPONENT ***
0
INSERT
2
PART_TOP_0
8
0
10
1.8
20
17.3
50
270
0
INSERT
2
PART_TOP_1
8
0
10
10.5
20
17.2
50
270
0
INSERT
2
PART_TOP_2
8
0
10
14.5
20
36.5
0
INSERT
2
PART_TOP_3
8
0
10
17.6
20
18.7
50
90
0
INSERT
2
PART_TOP_4
8
0
10
18.46
20
32.64
0
INSERT
2
PART_TOP_5
8
0
10
18.46
20
31.54
0
INSERT
2
PART_TOP_6
8
0
10
18.26
20
30.64
0
INSERT
2
PART_TOP_7
8
0
10
18.06
20
25.14
50
180
0
INSERT
2
PART_TOP_8
8
0
10
18.06
20
24.04
50
180
0
INSERT
2
PART_TOP_9
8
0
10
18.26
20
23.04
50
180
0
INSERT
2
PART_TOP_10
8
0
10
16.6
20
17.7
50
90
0
INSERT
2
PART_TOP_11
8
0
10
12.2
20
17.7
50
90
0
INSERT
2
PART_TOP_12
8
0
10
22.16
20
28.24
0
INSERT
2
PART_TOP_13
8
0
10
22.16
20
27.14
0
INSERT
2
PART_TOP_14
8
0
10
21.96
20
26.24
0
INSERT
2
PART_TOP_15
8
0
10
21.96
20
23.44
0
INSERT
2
PART_TOP_16
8
0
10
20.45
20
32.1
50
270
0
INSERT
2
PART_TOP_17
8
0
10
9.3
20
24.5
50
270
0
INSERT
2
PART_TOP_18
8
0
10
11.6
20
37.6
50
180
0
INSERT
2
PART_TOP_19
8
0
10
2.3
20
41.4
0
INSERT
2
PART_TOP_20
8
0
10
2.3
20
38.4
0
INSERT
2
PART_TOP_21
8
0
10
12.5
20
15.2
50
270
0
INSERT
2
PART_TOP_22
8
0
10
3.15
20
49
0
INSERT
2
PART_TOP_23
8
0
10
14.3
20
17.9
50
270
0
INSERT
2
PART_TOP_24
8
0
10
13.2
20
17.9
50
270
0
INSERT
2
PART_TOP_25
8
0
10
15.7
20
17.9
50
270
0
INSERT
2
PART_TOP_26
8
0
10
0
20
40
50
270
0
INSERT
2
PART_TOP_27
8
0
10
25
20
40
50
270
0
INSERT
2
PART_TOP_28
8
0
10
2.75
20
39.9
50
90
0
INSERT
2
PART_TOP_29
8
0
10
4.3
20
38.4
50
180
0
INSERT
2
PART_TOP_30
8
0
10
14.9
20
32
0
INSERT
2
PART_TOP_31
8
0
10
18.1
20
17.5
50
180
0
INSERT
2
PART_TOP_32
8
0
10
18.56
20
21.64
50
270
0
INSERT
2
PART_TOP_33
8
0
10
20.25
20
29.15
50
270
0
INSERT
2
PART_TOP_34
8
0
10
20.26
20
27.14
50
270
0
INSERT
2
PART_TOP_35
8
0
10
21.66
20
24.84
50
90
0
INSERT
2
PART_TOP_36
8
0
10
22.15
20
33.65
0
INSERT
2
PART_TOP_37
8
0
10
14.9
20
30.9
0
INSERT
2
PART_TOP_38
8
0
10
14.878
20
29.8
0
INSERT
2
PART_TOP_39
8
0
10
10.9
20
22.7
50
180
0
INSERT
2
PART_TOP_40
8
0
10
14.9
20
28.7
0
INSERT
2
PART_TOP_41
8
0
10
14.9
20
27.6
0
INSERT
2
PART_TOP_42
8
0
10
14.9
20
34.6
0
INSERT
2
PART_TOP_43
8
0
10
14.9
20
26.5
0
INSERT
2
PART_TOP_44
8
0
10
8
20
31.3
50
180
0
INSERT
2
PART_TOP_45
8
0
10
5.97
20
19.84
50
180
0
INSERT
2
PART_TOP_46
8
0
10
18.5
20
28.1
0
INSERT
2
PART_TOP_47
8
0
10
22.15
20
31.1
0
INSERT
2
PART_TOP_48
8
0
10
23
20
43
50
90
0
INSERT
2
PART_TOP_49
8
0
10
10.35
20
43
50
270
0
INSERT
2
PART_TOP_50
8
0
10
15
20
47
0
INSERT
2
PART_TOP_51
8
0
10
18.26
20
20.24
50
180
0
INSERT
2
PART_TOP_52
8
0
10
14.5
20
35.8
0
INSERT
2
PART_TOP_53
8
0
10
10.6
20
24.5
50
270
0
INSERT
2
PART_TOP_54
8
0
10
11.9
20
24.5
50
270
0
INSERT
2
PART_TOP_55
8
0
10
5.3
20
40.4
50
270
0
INSERT
2
PART_TOP_56
8
0
10
3.8
20
43
50
270
0
INSERT
2
PART_TOP_57
8
0
10
8.2
20
40
50
270
0
INSERT
2
PART_TOP_58
8
0
10
2.75
20
42.95
50
90
0
INSERT
2
PART_TOP_59
8
0
10
3.6
20
47.3
50
90
0
INSERT
2
PART_TOP_60
8
0
10
4.2
20
40.4
50
90
0
INSERT
2
PART_TOP_61
8
0
10
3.6
20
45
50
90
0
INSERT
2
PART_TOP_62
8
0
10
1.9
20
45.4
50
180
999
*** POWERPCB  PCB PARAMETER ***
0
INSERT
2
PCB_PARAMS
8
0
10
0
20
0
0
ENDSEC
0
EOF
